<svg width="100" height="100" fill="none" xmlns="http://www.w3.org/2000/svg">
    <path d="M33.528 27.652v7.578M41.106 27.652v7.578M49.527 27.652v7.578M57.105 27.652v7.578" stroke="#5CBBBB" stroke-width="2" stroke-miterlimit="10" stroke-linecap="round" stroke-linejoin="round"/>
    <path d="M62.702 46.184H36.595v14.918h26.107V46.184z" stroke="#5CBBBB" stroke-width="2" stroke-miterlimit="10" stroke-linejoin="round"/>
    <path d="M66.878 21.25H23.752v14.554h43.126V21.25zM62.701 35.805h-34.78V76.16H62.7V35.805z" stroke="#696969" stroke-width="2" stroke-miterlimit="10" stroke-linejoin="round"/>
    <path d="M62.254 78.75c7.088 0 12.835-5.748 12.835-12.836 0-7.09-5.747-12.836-12.835-12.836-7.09 0-12.836 5.747-12.836 12.836 0 7.088 5.747 12.835 12.836 12.835z" fill="#F9F9F9" stroke="#696969" stroke-width="2" stroke-miterlimit="10"/>
    <path d="M57.275 67.698c-.783 2.917 1.964 5.463 4.98 5.463 3.018 0 5.765-2.546 4.981-5.463-.709-2.635-4.98-9.024-4.98-9.024s-4.272 6.383-4.981 9.024z" stroke="#5CBBBB" stroke-width="2" stroke-miterlimit="10"/>
</svg>
