<svg width="24" height="24" viewBox="0 0 24 24" fill="none" xmlns="http://www.w3.org/2000/svg">
<path d="M12.0003 15.7495C14.0713 15.7495 15.7503 14.0706 15.7503 11.9995C15.7503 9.92844 14.0713 8.24951 12.0003 8.24951C9.92921 8.24951 8.25027 9.92844 8.25027 11.9995C8.25027 14.0706 9.92921 15.7495 12.0003 15.7495Z" stroke="black" stroke-width="2" stroke-linecap="round" stroke-linejoin="round"/>
<path d="M16.9767 19.4997C15.3058 20.6086 13.3125 21.1278 11.3129 20.9748C9.31343 20.8218 7.42226 20.0055 5.93951 18.6553C4.45677 17.3052 3.46738 15.4985 3.12833 13.522C2.78929 11.5455 3.12001 9.51242 4.06802 7.74529C5.01602 5.97816 6.52702 4.57822 8.36125 3.76762C10.1955 2.95702 12.2479 2.78217 14.1928 3.27083C16.1377 3.75949 17.8637 4.88366 19.097 6.46497C20.3303 8.04628 21.0001 9.99416 21.0003 11.9995C21.0003 14.0706 20.2503 15.7495 18.3753 15.7495C16.5003 15.7495 15.7503 14.0706 15.7503 11.9995V8.24952" stroke="black" stroke-width="2" stroke-linecap="round" stroke-linejoin="round"/>
</svg>
