<svg width="76" height="76" fill="none" xmlns="http://www.w3.org/2000/svg">
    <path d="M52.62 12.95h3.922v18.138M56.542 41.383v17.649H52.62M52.196 35.76V11.002H16.18M16.178 11.002a5.038 5.038 0 1 0 0 10.072V61.54h36.016V45.2" stroke="#696969" stroke-width="1.5" stroke-miterlimit="10" stroke-linecap="round" stroke-linejoin="round"/>
    <path d="M16.179 61.54v3.845a5.038 5.038 0 0 1-5.027-5.038l-.125-44.566" stroke="#696969" stroke-width="1.5" stroke-miterlimit="10" stroke-linecap="round" stroke-linejoin="round"/>
    <path d="M31.009 22.814h11.89M31.009 33.327h11.89M22.288 52.082h18.233" stroke="#5CBBBB" stroke-width="1.5" stroke-miterlimit="10" stroke-linecap="round" stroke-linejoin="round"/>
    <path d="m22.288 23.21 1.586 1.19 2.378-2.775M22.288 33.326l1.586 1.19 2.378-2.775" stroke="#5CBBBB" stroke-width="1.5" stroke-linecap="round" stroke-linejoin="round"/>
    <path d="m46.219 51.16-5.697.964.974-5.686 20.216-20.211c.701-.706 1.95-.593 2.803.253l1.662 1.666c.846.842.959 2.098.257 2.803L46.219 51.161zM59.484 29.617l3.922 3.922M41.497 46.44l4.722 4.722" stroke="#5CBBBB" stroke-width="1.5" stroke-miterlimit="10" stroke-linecap="round" stroke-linejoin="round"/>
</svg>
