<svg width="100" height="100" fill="none" xmlns="http://www.w3.org/2000/svg">
    <path d="M65.406 16.406s-8.859 7.762-3.01 21.412c4.245 9.906 1.696 17.333-3.242 22.017 0 0-7.762 8.86-21.412 3.011-9.906-4.245-17.333-1.696-22.017 3.242" stroke="#696969" stroke-width="2" stroke-miterlimit="10" stroke-linecap="round"/>
    <path d="M83.992 34.992s-7.762 8.859-21.412 3.011c-9.906-4.246-17.33-1.693-22.014 3.245 0 0-8.859 7.762-3.01 21.412 4.245 9.906 1.696 17.333-3.242 22.017M80.587 36.719l-8.623-8.623M64.139 50.865 49.482 36.208M50.884 64.117 36.227 49.46M59.022 59.865 40.484 41.327" stroke="#5CBBBB" stroke-width="2" stroke-miterlimit="10" stroke-linecap="round"/>
    <path d="m64.139 50.865-7.272-7.271M50.884 64.117l-7.347-7.346M59.022 59.865l-9.4-9.4" stroke="#696969" stroke-width="2" stroke-miterlimit="10" stroke-linecap="round"/>
    <path d="m75.693 39.49-7.74-7.74" stroke="#5CBBBB" stroke-width="2" stroke-miterlimit="10" stroke-linecap="round"/>
    <path d="m17.969 64.031 9.306 9.307M23.167 61.57l7.806 7.805" stroke="#696969" stroke-width="2" stroke-miterlimit="10" stroke-linecap="round"/>
</svg>
