<svg width="100" height="100" fill="none" xmlns="http://www.w3.org/2000/svg">
    <path d="M68.695 22.5H25v56.011h43.695V22.5z" stroke="#696969" stroke-width="2" stroke-miterlimit="10" stroke-linecap="round" stroke-linejoin="round"/>
    <path d="m40.377 33.21-4.581 4.649-2.701-2.74M46.544 35.531H60.6M40.378 44.332l-4.581 4.648-2.701-2.74M46.544 46.654H60.6" stroke="#696969" stroke-width="2" stroke-miterlimit="10" stroke-linecap="round" stroke-linejoin="round"/>
    <path d="m71.797 43.609.367-.395 1.475-1.542c.982-1.023 2.61-1.08 3.63-.103l3.163 3.036c1.005.95 1.032 2.59.05 3.614l-1.845 1.923-19.812 20.603-7.361 1.213.529-7.748 19.79-20.597" fill="#F3F3F3"/>
    <path d="m71.797 43.609.367-.395 1.475-1.542c.982-1.023 2.61-1.08 3.63-.103l3.163 3.036c1.005.95 1.032 2.59.05 3.614l-1.845 1.923-19.812 20.603-7.361 1.213.529-7.748 19.79-20.597" stroke="#5CBBBB" stroke-width="2" stroke-miterlimit="10" stroke-linecap="round" stroke-linejoin="round"/>
    <path d="m71.61 43.605.001.008.014-.004 3.186 3.032.256.248 3.42 3.287" fill="#F3F3F3"/>
    <path d="m71.61 43.605.001.008.014-.004 3.186 3.032.256.248 3.42 3.287" stroke="#5CBBBB" stroke-width="2" stroke-miterlimit="10" stroke-linecap="round" stroke-linejoin="round"/>
</svg>
