<svg width="50" height="50" viewBox="0 0 50 50" fill="none" xmlns="http://www.w3.org/2000/svg">
<path d="M41.0917 14H21.082V31.9179H41.0917V14Z" stroke="#696969" stroke-width="1.5" stroke-miterlimit="10" stroke-linecap="round" stroke-linejoin="round"/>
<path d="M31.0897 35.4448C33.0366 35.4448 34.6149 33.8663 34.6149 31.9192C34.6149 29.972 33.0366 28.3936 31.0897 28.3936C29.1427 28.3936 27.5645 29.972 27.5645 31.9192C27.5645 33.8663 29.1427 35.4448 31.0897 35.4448Z" fill="white" stroke="#5CBBBB" stroke-width="1.5" stroke-miterlimit="10" stroke-linecap="round" stroke-linejoin="round"/>
<path d="M17.4565 24.4537H8.75L12.0564 19.5557H17.4565V24.4537Z" stroke="#5CBBBB" stroke-width="1.5" stroke-miterlimit="10" stroke-linecap="round" stroke-linejoin="round"/>
<path d="M21.0823 31.9171H8.75V24.4695L14.0437 16.6079H21.0823V31.9171Z" stroke="#696969" stroke-width="1.5" stroke-miterlimit="10" stroke-linecap="round" stroke-linejoin="round"/>
<path d="M14.9139 35.4448C16.8608 35.4448 18.4391 33.8663 18.4391 31.9192C18.4391 29.972 16.8608 28.3936 14.9139 28.3936C12.967 28.3936 11.3887 29.972 11.3887 31.9192C11.3887 33.8663 12.967 35.4448 14.9139 35.4448Z" fill="white" stroke="#5CBBBB" stroke-width="1.5" stroke-miterlimit="10" stroke-linecap="round" stroke-linejoin="round"/>
</svg>
