<svg width="100" height="100" fill="none" xmlns="http://www.w3.org/2000/svg">
    <path d="M71.782 85.254s-1.527-8.675-.414-15.976c2.176-14.32 7.63-11.022 8.199-27.362C80.063 27.056 67.416 15 52.437 15 37.46 15 25.322 27.044 25.322 41.904l1.62 7.525L20 62.106h7.983l.414 10.142s-.213 6.48 16.161 4.132v8.264" stroke="#696969" stroke-width="2" stroke-miterlimit="10" stroke-linecap="round" stroke-linejoin="round"/>
    <path d="M52.069 45.813c2.633 0 4.768-2.118 4.768-4.73 0-2.614-2.135-4.731-4.768-4.731-2.634 0-4.768 2.117-4.768 4.73 0 2.613 2.134 4.73 4.768 4.73zM56.79 27.173a2.687 2.687 0 0 0 2.698-2.676 2.687 2.687 0 0 0-2.698-2.677 2.687 2.687 0 0 0-2.697 2.677 2.687 2.687 0 0 0 2.697 2.676zM70.323 40.612a2.687 2.687 0 0 0 2.698-2.676 2.687 2.687 0 0 0-2.698-2.676 2.687 2.687 0 0 0-2.697 2.676 2.687 2.687 0 0 0 2.697 2.676zM37.28 34.321a2.687 2.687 0 0 0 2.698-2.676 2.687 2.687 0 0 0-2.697-2.676 2.687 2.687 0 0 0-2.698 2.676 2.687 2.687 0 0 0 2.698 2.676zM61.51 55.286a2.687 2.687 0 0 0 2.697-2.676 2.687 2.687 0 0 0-2.697-2.676 2.687 2.687 0 0 0-2.697 2.676 2.687 2.687 0 0 0 2.697 2.676zM40.26 49.616a2.687 2.687 0 0 0 2.698-2.676 2.687 2.687 0 0 0-2.698-2.676 2.687 2.687 0 0 0-2.697 2.676 2.687 2.687 0 0 0 2.697 2.676zM53.478 36.082l2.355-8.135M47.877 38.184 39.81 33.37M57.32 40.401l10.199-1.725M55.113 44.803l4.564 5.704M47.504 43.662l-4.944 1.901" stroke="#5CBBBB" stroke-width="2" stroke-miterlimit="10" stroke-linecap="round" stroke-linejoin="round"/>
</svg>
