<svg width="100" height="100" fill="none" xmlns="http://www.w3.org/2000/svg">
    <path d="M66.107 76.18c7.788 0 14.102-6.313 14.102-14.101 0-7.789-6.314-14.102-14.102-14.102S52.005 54.29 52.005 62.079c0 7.788 6.314 14.102 14.102 14.102z" stroke="#696969" stroke-width="2" stroke-miterlimit="10" stroke-linecap="round" stroke-linejoin="round"/>
    <path d="M58.455 62.078h15.293M47.32 53.57 31.732 37.983l-9.757 9.757c-4.3 4.3-4.3 11.289 0 15.589 4.3 4.3 11.288 4.3 15.588 0l9.757-9.757z" stroke="#5CBBBB" stroke-width="2" stroke-miterlimit="10" stroke-linecap="round" stroke-linejoin="round"/>
    <path d="M47.32 53.57 31.73 37.982l9.757-9.757c4.3-4.3 11.289-4.3 15.589 0 4.3 4.3 4.3 11.288 0 15.588L47.32 53.57z" stroke="#696969" stroke-width="2" stroke-miterlimit="10" stroke-linecap="round" stroke-linejoin="round"/>
</svg>
