<svg width="24" height="24" fill="none" xmlns="http://www.w3.org/2000/svg">
    <circle cx="12" cy="12" r="10" fill="#5CBBBB"/>
    <path d="M9.134 7.27h3.808c.607 0 1.125.075 1.554.224.439.14.798.34 1.078.602.28.252.485.555.616.91.14.355.21.737.21 1.148v.294c0 .41-.07.803-.21 1.176-.14.364-.355.686-.644.966-.29.27-.649.49-1.078.658-.43.159-.938.238-1.526.238h-2.016v3.878H9.134V7.27zm1.792 1.498v3.206h1.778c.588 0 1.05-.112 1.386-.336.336-.224.504-.63.504-1.218v-.252c0-.28-.042-.509-.126-.686a.997.997 0 0 0-.364-.42 1.252 1.252 0 0 0-.546-.224 3.295 3.295 0 0 0-.7-.07h-1.932z" fill="#fff"/>
</svg>
