<svg width="60" height="60" fill="none" xmlns="http://www.w3.org/2000/svg">
    <path d="M2 34.26h21.91l-1.79 13a8 8 0 0 0 .14 3.24 8.12 8.12 0 0 0 7.82 6v0a8.12 8.12 0 0 0 7.83-6 8 8 0 0 0 .14-3.24l-1.79-13h21.91" stroke="#4F4F4F" stroke-width="2" stroke-linecap="round" stroke-linejoin="round"/>
    <path d="M32.36 41.863c.293 2.038.67 5.346.67 5.346.065.444.05.897-.047 1.336a3.13 3.13 0 0 1-1.054 1.735c-.534.445-1.2.698-1.894.72a3.114 3.114 0 0 1-1.89-.722 3.13 3.13 0 0 1-1.05-1.733 3.535 3.535 0 0 1-.056-1.337l.68-5.345S31.5 16.09 37 5c0-.038-7.145 19.564-4.64 36.863z" stroke="#5CBBBB" stroke-width="2" stroke-linecap="round" stroke-linejoin="round"/>
</svg>
