<svg width="32" height="33" viewBox="0 0 32 33" fill="none" xmlns="http://www.w3.org/2000/svg">
<path d="M5.99994 25.5C5.99994 25.5 10.9999 24.5 11.9999 21.5C11.9999 21.5 3.99994 18.5 5.99994 7.5C5.99994 7.5 9.99994 12.5 15.9999 13.5V11.5004C16.0001 10.3516 16.3957 9.23783 17.1203 8.34641C17.845 7.45498 18.8544 6.84023 19.979 6.60551C21.1036 6.37078 22.2747 6.5304 23.2954 7.05752C24.3161 7.58464 25.1242 8.44712 25.5839 9.49996L29.9999 9.5L25.9999 13.5C25.9999 20.5 20.9999 27.5 11.9999 27.5C7.99994 27.5 5.99994 25.5 5.99994 25.5Z" stroke="black" stroke-width="2" stroke-linecap="round" stroke-linejoin="round"/>
</svg>
