<svg width="36" height="36" viewBox="0 0 36 36" fill="none" xmlns="http://www.w3.org/2000/svg">
<path d="M18.2049 6.76128C15.0375 3.57946 9.90229 3.57945 6.73496 6.76127C3.56762 9.94309 3.56763 15.1018 6.73496 18.2837L16.9865 28.5821C20.1538 31.7639 25.2891 31.7639 28.4564 28.5821C31.6237 25.4003 31.6237 20.2415 28.4564 17.0597L18.2049 6.76128Z" fill="#5CBBBB" stroke="#4F4F4F" stroke-width="2" stroke-linecap="round" stroke-linejoin="round"/>
<path d="M23.9221 12.5116L18.2032 6.76652C16.6823 5.23929 14.6198 4.38135 12.4694 4.38135C10.3189 4.38135 8.25654 5.23929 6.73563 6.76652C5.21535 8.29439 4.36133 10.3662 4.36133 12.5265C4.36133 14.6868 5.21535 16.7587 6.73563 18.2865L12.4694 24.0316L23.9221 12.5116Z" fill="#F2F2F2" stroke="#4F4F4F" stroke-width="2" stroke-linecap="round" stroke-linejoin="round"/>
</svg>
