<svg width="1024" height="520" fill="none" xmlns="http://www.w3.org/2000/svg">
    <rect x="40" width="150" height="70" rx="10" fill="#F8F8F8"/>
    <path d="M81.072 43.8v-11h-3.92v-1.74h3.92v-5.7h1.98V43.8h-1.98zm-7.88-9.26a2.689 2.689 0 0 1-.42.68c-.173.227-.42.513-.74.86-.413.453-.886.947-1.42 1.48-.533.52-1.14 1.093-1.82 1.72l-1.3-1.34a41.401 41.401 0 0 0 3.16-3.1 9.86 9.86 0 0 0 .76-.96c.2-.293.353-.58.46-.86.12-.293.2-.587.24-.88.053-.307.08-.64.08-1V26.7h2v4.44c0 .4.027.76.08 1.08.053.307.14.607.26.9.12.28.28.567.48.86.213.28.474.587.78.92.427.467.873.927 1.34 1.38.467.44 1 .927 1.6 1.46l-1.28 1.36a95.504 95.504 0 0 1-1.76-1.66c-.466-.48-.893-.927-1.28-1.34-.28-.307-.533-.593-.76-.86-.213-.267-.36-.5-.44-.7h-.02zm25.943 9.26V25.36h1.98V43.8h-1.98zm-11.96-4.84v-12.1h1.96v4.36h4.66v-4.36h1.96v12.1h-8.58zm1.96-1.7h4.66V32.9h-4.66v4.36zm31.823 2.4v1.68h-16.92v-1.68h16.92zm-8.46-7.32c-.106.227-.36.513-.76.86-.386.347-.92.733-1.6 1.16a120.1 120.1 0 0 1-1.86 1.16c-.653.387-1.4.813-2.24 1.28l-.98-1.56c.8-.44 1.534-.853 2.2-1.24a32.75 32.75 0 0 0 2-1.26c.454-.307.827-.6 1.12-.88.294-.28.52-.573.68-.88.174-.307.287-.64.34-1 .067-.373.1-.807.1-1.3v-2.02h2v2.02c0 .493.027.927.08 1.3.054.36.167.7.34 1.02.174.307.42.607.74.9.32.293.754.62 1.3.98.627.413 1.254.8 1.88 1.16.627.36 1.334.753 2.12 1.18l-.96 1.54a533.96 533.96 0 0 0-2.18-1.24 53.845 53.845 0 0 1-1.96-1.2 15.295 15.295 0 0 1-1.58-1.12c-.4-.347-.653-.633-.76-.86h-.02zm22.444 7.4v-3.6h-7.7v-1.68h16.92v1.68h-7.22v3.6h-2zm7.18-6.3c-.814-.333-1.56-.647-2.24-.94a50.34 50.34 0 0 1-1.82-.84c-1.334-.667-2.114-1.24-2.34-1.72h-.02c-.107.24-.354.5-.74.78-.374.28-.907.593-1.6.94-.56.267-1.167.553-1.82.86-.654.293-1.4.6-2.24.92l-.78-1.62a76.03 76.03 0 0 0 2.3-.94c.746-.32 1.446-.66 2.1-1.02.28-.16.533-.32.76-.48.226-.16.413-.34.56-.54.16-.213.28-.447.36-.7.08-.267.12-.58.12-.94v-1.5h1.96v1.5c0 .72.153 1.267.46 1.64.306.373.753.713 1.34 1.02.666.347 1.38.687 2.14 1.02.76.333 1.52.647 2.28.94l-.78 1.62zm-10.46 8.44h10.42v1.72h-12.4v-5.52h1.98v3.8zm27.223 1.92v-11h-3.92v-1.74h3.92v-5.7h1.98V43.8h-1.98zm-7.88-9.26a2.73 2.73 0 0 1-.42.68c-.174.227-.42.513-.74.86-.414.453-.887.947-1.42 1.48-.534.52-1.14 1.093-1.82 1.72l-1.3-1.34a41.586 41.586 0 0 0 3.16-3.1c.306-.347.56-.667.76-.96.2-.293.353-.58.46-.86.12-.293.2-.587.24-.88.053-.307.08-.64.08-1V26.7h2v4.44c0 .4.026.76.08 1.08.053.307.14.607.26.9.12.28.28.567.48.86.213.28.473.587.78.92.426.467.873.927 1.34 1.38.466.44 1 .927 1.6 1.46l-1.28 1.36a93.293 93.293 0 0 1-1.76-1.66c-.467-.48-.894-.927-1.28-1.34a31.36 31.36 0 0 1-.76-.86c-.214-.267-.36-.5-.44-.7h-.02zM65.534 244.78c-.827.08-1.647.153-2.46.22a100.093 100.093 0 0 1-5.76.22c-1.147.013-2.487.02-4.02.02V244h2.8c.866 0 1.68-.013 2.44-.04v-2.28a6.058 6.058 0 0 1-1.54-.34 4.382 4.382 0 0 1-1.2-.7 3.34 3.34 0 0 1-.78-.92 2.387 2.387 0 0 1-.26-1.08v-.76c0-.4.106-.787.32-1.16.213-.373.506-.7.88-.98.386-.28.846-.5 1.38-.66a5.87 5.87 0 0 1 1.78-.26c.653 0 1.246.087 1.78.26.533.16.986.38 1.36.66.386.28.686.607.9.98.213.373.32.76.32 1.16v.76c0 .36-.087.707-.26 1.04-.16.333-.394.633-.7.9-.307.267-.68.5-1.12.7a5.182 5.182 0 0 1-1.44.38v2.26a81.888 81.888 0 0 0 2.88-.12c.88-.067 1.74-.147 2.58-.24l.12 1.22zm2.68 3.94h-1.42v-18.28h1.42v18.28zm-9.1-12.7c-.467 0-.887.06-1.26.18a3.187 3.187 0 0 0-.96.44 2.389 2.389 0 0 0-.6.62c-.134.227-.2.46-.2.7v.6c0 .24.066.48.2.72.146.227.346.433.6.62.266.187.586.34.96.46.373.107.793.16 1.26.16.466 0 .886-.053 1.26-.16.373-.12.686-.273.94-.46.266-.187.466-.393.6-.62.146-.24.22-.48.22-.72v-.6c0-.24-.074-.473-.22-.7a2.026 2.026 0 0 0-.6-.62 2.927 2.927 0 0 0-.94-.44 4.108 4.108 0 0 0-1.26-.18zm.68-3.46h4.52v1.24h-10.56v-1.24h4.64v-2.28h1.4v2.28zm16.223 4.96a6.45 6.45 0 0 1-1.72-.22c-.534-.16-1-.373-1.4-.64a3.16 3.16 0 0 1-.94-.94 2.17 2.17 0 0 1-.34-1.18v-.76c0-.427.113-.82.34-1.18.227-.36.54-.673.94-.94.4-.267.866-.473 1.4-.62a5.958 5.958 0 0 1 1.72-.24c.613 0 1.187.08 1.72.24.533.147 1 .353 1.4.62.4.267.713.58.94.94.227.36.34.753.34 1.18v.76c0 .427-.114.82-.34 1.18a3.16 3.16 0 0 1-.94.94c-.4.267-.867.48-1.4.64a6.452 6.452 0 0 1-1.72.22zm7.72 3.94v-11.02h1.4v14.2h-1.4v-1.94h-4.12v-1.24h4.12zm-7.72-9.46c-.427 0-.827.053-1.2.16-.36.093-.68.227-.96.4-.28.173-.5.38-.66.62a1.23 1.23 0 0 0-.24.72v.52c0 .267.08.513.24.74.16.227.38.427.66.6s.6.313.96.42c.373.093.773.14 1.2.14.413 0 .806-.047 1.18-.14.373-.107.7-.247.98-.42s.5-.373.66-.6c.16-.227.24-.473.24-.74v-.52c0-.253-.08-.493-.24-.72-.16-.24-.38-.447-.66-.62a3.431 3.431 0 0 0-.98-.4 4.263 4.263 0 0 0-1.18-.16zm-1.14 15.26h10.68v1.24h-12.1v-4.84h1.42v3.6zm7.46-7.66-1.36.12c-.44.04-.894.08-1.36.12-.467.027-.96.053-1.48.08-.52.027-1.073.047-1.66.06v2.9h-1.42V240c-.68.027-1.407.04-2.18.04h-2.54v-1.22c1.44 0 2.706-.007 3.8-.02 1.093-.013 2.093-.033 3-.06.92-.04 1.78-.087 2.58-.14a61.73 61.73 0 0 0 2.5-.22l.12 1.22zm18.983-2.18h3.04v1.26h-3.04v10.04H99.9v-18.28h1.42v6.98zm-13.58 5.96a65.766 65.766 0 0 0 2.64-1.58 20.09 20.09 0 0 0 1.84-1.3 9.46 9.46 0 0 0 1.22-1.16c.307-.36.54-.72.7-1.08.16-.373.267-.767.32-1.18.053-.413.08-.867.08-1.36v-2.26h-6.6v-1.28h7.98v3.56c0 .907-.087 1.7-.26 2.38-.16.667-.5 1.32-1.02 1.96-.52.627-1.273 1.287-2.26 1.98-.973.693-2.273 1.513-3.9 2.46l-.74-1.14zm31.763-2.52v7.84h-11.16v-7.84h1.38v2.52h8.4v-2.52h1.38zm-14.24-6.1c0-.453.107-.9.32-1.34.213-.44.513-.827.9-1.16.4-.347.873-.62 1.42-.82a4.975 4.975 0 0 1 1.82-.32c.667 0 1.273.107 1.82.32a4.26 4.26 0 0 1 1.4.82c.4.333.707.72.92 1.16.213.44.32.887.32 1.34v.96c0 .467-.107.92-.32 1.36-.213.427-.52.813-.92 1.16a4.787 4.787 0 0 1-1.4.82c-.547.2-1.153.3-1.82.3s-1.273-.1-1.82-.3a5.08 5.08 0 0 1-1.42-.82 3.886 3.886 0 0 1-.9-1.16 3.087 3.087 0 0 1-.32-1.36v-.96zm7.56.14c0-.333-.08-.647-.24-.94a2.303 2.303 0 0 0-.64-.8 3.032 3.032 0 0 0-1-.56 3.3 3.3 0 0 0-1.22-.22c-.44 0-.853.073-1.24.22-.373.133-.7.32-.98.56-.28.227-.5.493-.66.8-.147.293-.22.607-.22.94v.68c0 .333.073.653.22.96.16.293.38.56.66.8.28.227.607.413.98.56.387.133.8.2 1.24.2.44 0 .847-.067 1.22-.2.387-.147.72-.333 1-.56.28-.24.493-.507.64-.8.16-.307.24-.627.24-.96v-.68zm5.3 12.54v-2.82h-8.4v2.82h8.4zm1.38-7.66h-1.4v-9.34h1.4v9.34zM437.571 241.72h11.18v6.96h-11.18v-6.96zm-3.22-1.84a77.04 77.04 0 0 0 2.7-1.18c.76-.36 1.393-.693 1.9-1 .52-.307.933-.6 1.24-.88.306-.293.54-.593.7-.9.16-.32.266-.653.32-1 .053-.36.08-.767.08-1.22v-.92h-6.32v-1.24h7.7v2.28c0 .413-.02.8-.06 1.16h4.74v-4.54h1.4v10.2h-1.4v-4.42h-5.06c-.174.427-.434.82-.78 1.18-.347.36-.814.727-1.4 1.1-.574.373-1.287.767-2.14 1.18-.854.4-1.88.853-3.08 1.36l-.54-1.16zm4.58 7.54h8.46v-4.44h-8.46v4.44zm26.023-10.16h3.06v1.26h-3.06v10.2h-1.42v-18.28h1.42v6.82zm-10.96 2.62c.32-.36.573-.687.76-.98.186-.293.333-.58.44-.86a3.55 3.55 0 0 0 .2-.9c.04-.307.06-.66.06-1.06v-4.3h1.46v4.2c0 .387.013.727.04 1.02.026.28.08.553.16.82.08.253.2.507.36.76.16.253.373.533.64.84.4.467.886.993 1.46 1.58a49.68 49.68 0 0 0 2.02 1.9l-.92.96c-.64-.6-1.234-1.167-1.78-1.7-.534-.547-1-1.033-1.4-1.46-.307-.32-.587-.627-.84-.92-.24-.293-.387-.507-.44-.64h-.02a1.169 1.169 0 0 1-.16.32 6.935 6.935 0 0 1-.36.46c-.134.173-.28.36-.44.56-.16.187-.314.36-.46.52-.174.187-.387.407-.64.66-.24.253-.5.52-.78.8s-.574.567-.88.86c-.307.293-.607.567-.9.82l-.94-.98a49.77 49.77 0 0 0 1.82-1.68 24.534 24.534 0 0 0 1.54-1.6zm15.183 3.76a45.23 45.23 0 0 0 3.06-1.76c.813-.52 1.467-1 1.96-1.44.507-.44.88-.86 1.12-1.26.253-.413.427-.833.52-1.26l-6.82.16-.04-1.26 6.96-.12v-3.32h-6.58v-1.28h7.96v4c0 .573-.033 1.107-.1 1.6-.053.48-.173.947-.36 1.4-.187.44-.453.873-.8 1.3-.333.427-.78.867-1.34 1.32-.547.453-1.22.933-2.02 1.44-.8.493-1.753 1.033-2.86 1.62l-.66-1.14zm13.96 5.08h-1.42v-18.28h1.42v18.28zm16.623-7.3h-12.1v-9.48h11.94v1.2h-10.56v2.94h10.46v1.2h-10.46v2.94h10.72v1.2zm2.24 3.5v1.22h-16.8v-1.22H502zm21.203-3.98v1.22h-7.68v6.56h-1.42v-6.56h-7.7v-1.22h16.8zm-6.06-3.88c-1.347-.667-2.127-1.227-2.34-1.68h-.02c-.253.48-1.033 1.047-2.34 1.7-.547.267-1.193.573-1.94.92-.733.333-1.507.66-2.32.98l-.62-1.12c.747-.28 1.507-.593 2.28-.94.787-.347 1.5-.687 2.14-1.02.387-.2.713-.393.98-.58.267-.2.48-.42.64-.66.173-.24.293-.52.36-.84.08-.32.12-.7.12-1.14v-1.6h1.42v1.6c0 .44.033.82.1 1.14.08.32.2.6.36.84.16.24.373.46.64.66.267.187.593.38.98.58.64.333 1.34.673 2.1 1.02.773.333 1.533.64 2.28.92l-.6 1.1a49.037 49.037 0 0 1-2.32-.98c-.72-.333-1.353-.633-1.9-.9zm10.663 8.18c0-.493.134-.94.4-1.34.28-.4.667-.74 1.16-1.02.494-.28 1.08-.493 1.76-.64.68-.147 1.427-.22 2.24-.22.814 0 1.56.08 2.24.24.68.147 1.267.36 1.76.64.494.28.874.62 1.14 1.02.28.4.42.847.42 1.34v.72c0 .507-.14.96-.42 1.36-.266.4-.646.74-1.14 1.02-.493.28-1.08.493-1.76.64-.68.147-1.426.22-2.24.22-.813 0-1.56-.073-2.24-.22-.68-.147-1.266-.36-1.76-.64-.493-.28-.88-.62-1.16-1.02a2.4 2.4 0 0 1-.4-1.36v-.74zm-1.64-5.9h2.42c.76-.013 1.48-.027 2.16-.04.68-.027 1.334-.06 1.96-.1a76.162 76.162 0 0 0 1.86-.18l.14 1.22a72.01 72.01 0 0 1-1.88.18c-.64.04-1.346.073-2.12.1-.76.027-1.62.047-2.58.06h-3.34v-5.22h6.06v-2.76h-6.06v-1.24h7.44v5.2h-6.06v2.78zm7.2 8.68c.6 0 1.154-.053 1.66-.16.52-.107.967-.253 1.34-.44.374-.187.667-.407.88-.66a1.27 1.27 0 0 0 .32-.84v-.6c0-.293-.106-.567-.32-.82-.213-.267-.506-.493-.88-.68a5.444 5.444 0 0 0-1.34-.44 8.035 8.035 0 0 0-1.66-.16c-.6 0-1.16.053-1.68.16-.506.107-.946.26-1.32.46-.373.187-.666.407-.88.66-.213.253-.32.527-.32.82v.6c0 .307.107.587.32.84.214.253.507.473.88.66.374.187.814.333 1.32.44.52.107 1.08.16 1.68.16zm4.08-15.02v-2.56h1.38v11.1h-1.38v-4.06h-3.82v-1.22h3.82v-2.04h-3.82V233h3.82zM209.814 232.1c1.827 0 3.254.533 4.28 1.6 1.04 1.053 1.56 2.58 1.56 4.58v2.06c0 2-.52 3.533-1.56 4.6-1.026 1.053-2.453 1.58-4.28 1.58h-4.5V232.1h4.5zm-3.1 13.18h3.12c.64 0 1.234-.1 1.78-.3a3.561 3.561 0 0 0 1.4-.92c.387-.427.687-.953.9-1.58.227-.627.34-1.373.34-2.24v-1.86c0-.853-.113-1.593-.34-2.22-.213-.64-.513-1.167-.9-1.58a3.46 3.46 0 0 0-1.4-.94 5.14 5.14 0 0 0-1.78-.3h-3.12v11.94zm19.519-13.18v1.24h-4.62v13.18h-1.4v-13.18h-4.6v-1.24h10.62zm5.933-.22c.96 0 1.807.127 2.54.38.747.24 1.42.593 2.02 1.06l-.72 1.1c-.653-.467-1.273-.787-1.86-.96-.586-.173-1.246-.26-1.98-.26-.666 0-1.26.127-1.78.38-.506.24-.933.587-1.28 1.04-.346.44-.613.973-.8 1.6-.173.613-.26 1.3-.26 2.06v1.84c0 1.787.374 3.113 1.12 3.98.76.867 1.807 1.3 3.14 1.3.907 0 1.674-.14 2.3-.42a6.669 6.669 0 0 0 1.66-1.06l.82 1.1c-.533.48-1.18.887-1.94 1.22-.76.333-1.713.5-2.86.5-1.866 0-3.28-.58-4.24-1.74-.946-1.16-1.42-2.787-1.42-4.88v-1.78c0-2.053.48-3.64 1.44-4.76.974-1.133 2.34-1.7 4.1-1.7zm11.838 2.76c0-.6.173-1.133.52-1.6.346-.467.806-.86 1.38-1.18a7.152 7.152 0 0 1 1.92-.72 10.109 10.109 0 0 1 4.38 0c.72.16 1.366.4 1.94.72.573.32 1.033.713 1.38 1.18.346.467.52 1 .52 1.6v.92c0 .6-.174 1.133-.52 1.6-.347.467-.807.86-1.38 1.18a7.14 7.14 0 0 1-1.94.72 10.109 10.109 0 0 1-4.38 0 7.152 7.152 0 0 1-1.92-.72c-.574-.32-1.034-.713-1.38-1.18-.347-.467-.52-1-.52-1.6v-.92zm10.64.12c0-.4-.127-.76-.38-1.08-.24-.32-.574-.587-1-.8-.427-.227-.92-.4-1.48-.52a8.383 8.383 0 0 0-1.76-.18c-.627 0-1.22.06-1.78.18a5.681 5.681 0 0 0-1.46.52c-.427.213-.767.48-1.02.8-.24.32-.36.68-.36 1.08v.68c0 .4.12.76.36 1.08.253.32.593.593 1.02.82.426.213.913.38 1.46.5.56.12 1.153.18 1.78.18.613 0 1.2-.06 1.76-.18a6.236 6.236 0 0 0 1.48-.5c.426-.227.76-.5 1-.82.253-.32.38-.68.38-1.08v-.68zm3.78 6.42v1.22h-4.48v6.3h-1.42v-6.3h-5v6.3h-1.42v-6.3h-4.48v-1.22h16.8zm6.283-3.8c-.04.147-.207.373-.5.68-.28.307-.633.647-1.06 1.02-.173.16-.387.34-.64.54-.24.2-.5.407-.78.62-.267.213-.54.427-.82.64a15.8 15.8 0 0 1-.74.56l-.86-1c.6-.427 1.2-.873 1.8-1.34.6-.48 1.147-.96 1.64-1.44.24-.24.44-.467.6-.68.16-.213.28-.427.36-.64.093-.213.153-.433.18-.66.04-.24.06-.493.06-.76v-2.06h-4.12v-1.22h9.46v1.22h-3.92v2c0 .293.013.553.04.78.027.227.087.447.18.66.107.213.253.433.44.66.2.213.46.46.78.74.32.267.74.593 1.26.98s1.067.773 1.64 1.16l-.82.98c-.413-.28-.833-.58-1.26-.9-.427-.32-.793-.6-1.1-.84a50.267 50.267 0 0 1-1.22-1.04c-.347-.307-.54-.527-.58-.66h-.02zm7.92-2.08v-4.86h1.4v13.06h-1.4v-6.96h-3.82v-1.24h3.82zm-8.38 11.96h10.24v1.24h-11.66v-6.06h1.42v4.82zm22.083-13.88h-4.14v2.86c0 .387.013.72.04 1 .027.28.08.547.16.8s.193.507.34.76c.16.24.373.513.64.82.387.453.867.967 1.44 1.54a61.818 61.818 0 0 0 2 1.86l-.92.94a63.593 63.593 0 0 1-1.8-1.72c-.493-.507-.94-.973-1.34-1.4-.293-.307-.56-.6-.8-.88s-.387-.487-.44-.62h-.02a1.27 1.27 0 0 1-.2.36 4.334 4.334 0 0 1-.36.48c-.133.173-.28.353-.44.54l-.46.5c-.133.147-.313.34-.54.58l-.76.76c-.267.267-.56.553-.88.86-.307.293-.607.567-.9.82l-.94-.94c.64-.56 1.233-1.113 1.78-1.66a34.03 34.03 0 0 0 1.54-1.6c.32-.36.573-.68.76-.96.187-.293.327-.58.42-.86.107-.28.173-.567.2-.86.04-.293.06-.633.06-1.02v-2.96h-4.2v-1.24h9.76v1.24zm3.88 4.04h3.04v1.26h-3.04v10.04h-1.42v-18.28h1.42v6.98zm11.003 4.3h11.18v6.96h-11.18v-6.96zm-3.22-1.84a75.416 75.416 0 0 0 2.7-1.18c.76-.36 1.394-.693 1.9-1 .52-.307.934-.6 1.24-.88.307-.293.54-.593.7-.9.16-.32.267-.653.32-1 .054-.36.08-.767.08-1.22v-.92h-6.32v-1.24h7.7v2.28c0 .413-.02.8-.06 1.16h4.74v-4.54h1.4v10.2h-1.4v-4.42h-5.06c-.173.427-.433.82-.78 1.18-.346.36-.813.727-1.4 1.1-.573.373-1.286.767-2.14 1.18-.853.4-1.88.853-3.08 1.36l-.54-1.16zm4.58 7.54h8.46v-4.44h-8.46v4.44zm26.023-10.16h3.06v1.26h-3.06v10.2h-1.42v-18.28h1.42v6.82zm-10.96 2.62c.32-.36.574-.687.76-.98.187-.293.334-.58.44-.86.107-.293.174-.593.2-.9.04-.307.06-.66.06-1.06v-4.3h1.46v4.2c0 .387.014.727.04 1.02.027.28.08.553.16.82.08.253.2.507.36.76.16.253.374.533.64.84.4.467.887.993 1.46 1.58.587.587 1.26 1.22 2.02 1.9l-.92.96c-.64-.6-1.233-1.167-1.78-1.7-.533-.547-1-1.033-1.4-1.46-.306-.32-.586-.627-.84-.92-.24-.293-.386-.507-.44-.64h-.02c-.013.067-.066.173-.16.32a6.323 6.323 0 0 1-.36.46c-.133.173-.28.36-.44.56-.16.187-.313.36-.46.52-.173.187-.386.407-.64.66a52.7 52.7 0 0 1-1.66 1.66 22.99 22.99 0 0 1-.9.82l-.94-.98a48.176 48.176 0 0 0 1.82-1.68 24.273 24.273 0 0 0 1.54-1.6zm23.283 7.38h10.2v1.24h-11.62v-6.1h1.42v4.86zm9.74-3.78h-1.4v-13.04h1.4v13.04zm-9.32-6.54c-.026.173-.186.413-.48.72-.28.293-.64.653-1.08 1.08-.346.333-.786.727-1.32 1.18-.533.44-1.093.893-1.68 1.36l-.88-1a54.82 54.82 0 0 0 1.7-1.34 24.431 24.431 0 0 0 1.56-1.42c.32-.32.567-.593.74-.82.187-.24.327-.48.42-.72.107-.24.174-.493.2-.76.027-.267.04-.593.04-.98v-2.94h1.44v2.9c0 .373.014.693.04.96.027.253.087.493.18.72.107.227.254.46.44.7.2.227.467.487.8.78.494.427.994.847 1.5 1.26.52.413 1.007.787 1.46 1.12l-.84.98c-.56-.427-1.06-.813-1.5-1.16l-1.16-.98c-.946-.8-1.466-1.347-1.56-1.64h-.02zm21.264 4.86c.773 0 1.493.08 2.16.24.68.147 1.266.367 1.76.66.506.28.9.627 1.18 1.04.293.413.44.873.44 1.38v.76c0 .507-.147.967-.44 1.38-.28.413-.674.76-1.18 1.04-.494.293-1.08.513-1.76.66-.667.16-1.387.24-2.16.24-.774 0-1.5-.08-2.18-.24a6.122 6.122 0 0 1-1.76-.66 3.585 3.585 0 0 1-1.18-1.04 2.405 2.405 0 0 1-.42-1.38v-.78c0-.52.14-.98.42-1.38.293-.413.686-.76 1.18-1.04a6.517 6.517 0 0 1 1.76-.64c.68-.16 1.406-.24 2.18-.24zm-3.84-4.5c-.04.147-.207.373-.5.68-.28.307-.634.647-1.06 1.02-.174.16-.387.34-.64.54-.24.2-.5.407-.78.62-.267.213-.54.427-.82.64-.267.213-.514.4-.74.56l-.86-1c.6-.427 1.2-.873 1.8-1.34.6-.48 1.146-.96 1.64-1.44.493-.48.813-.92.96-1.32.16-.4.24-.86.24-1.38v-1.1h-4.22v-1.22h4.22v-2.28h1.42v2.28h4v1.22h-4v1.04c0 .28.013.533.04.76.026.227.086.447.18.66.106.2.253.413.44.64.2.213.46.46.78.74.32.267.74.593 1.26.98s1.066.773 1.64 1.16l-.82 1c-.4-.28-.82-.58-1.26-.9l-1.1-.86a48.414 48.414 0 0 1-1.22-1.04c-.347-.307-.54-.527-.58-.66h-.02zm3.84 10.7c.56 0 1.093-.053 1.6-.16.506-.093.946-.24 1.32-.44.386-.187.693-.413.92-.68.226-.267.34-.573.34-.92v-.6c0-.333-.114-.633-.34-.9a2.643 2.643 0 0 0-.92-.7 4.521 4.521 0 0 0-1.32-.44 7.731 7.731 0 0 0-1.6-.16c-.56 0-1.094.053-1.6.16-.507.093-.954.24-1.34.44-.374.187-.674.42-.9.7-.227.267-.34.567-.34.9v.6c0 .347.113.653.34.92.226.267.526.493.9.68.386.2.833.347 1.34.44.506.107 1.04.16 1.6.16zm5.44-6.62h-1.4v-4.42h-3.74v-1.24h3.74v-5.28h1.4v10.94z" fill="#000"/>
    <path d="M977 162h30v188h-30M1019.19 263.096l6.97-7.548-6.97-7.547M1025.58 255.547H1007M985.184 525l-6.967 7.547 6.967 7.548" stroke="#D6D6D6" stroke-width="2"/>
    <path d="M1156 390v143H979M189.192 167.096l6.967-7.548-6.967-7.547M195.578 159.547H177M389.191 167.096l6.967-7.548-6.967-7.547M395.578 159.547H377M788.915 359.096l6.967-7.548-6.967-7.547M795 352H377M589.192 167.096l6.967-7.548-6.967-7.547M595.578 159.547H577M789.194 167.096l6.967-7.548-6.967-7.547M795.578 159.547H777M784.808 543.096l-6.967-7.548 6.967-7.547M778.422 535.547H797M584.808 543.096l-6.967-7.548 6.967-7.547M578.422 535.547H597M384.806 543.096l-6.967-7.548 6.967-7.547M378.422 535.547H397" stroke="#D6D6D6" stroke-width="2"/>
    <path d="M297.499 277.06c0 .987-.12 1.893-.36 2.72a7.585 7.585 0 0 1-1.04 2.2l2.16 2.54h-1.6l-1.36-1.6c-.6.64-1.3 1.1-2.1 1.38-.786.293-1.58.44-2.38.44h-.12c-.6 0-1.18-.08-1.74-.24a5.042 5.042 0 0 1-1.48-.68 3.57 3.57 0 0 1-1.02-1.12c-.253-.44-.38-.94-.38-1.5v-.48c0-.453.067-.867.2-1.24.134-.373.347-.72.64-1.04.294-.333.674-.66 1.14-.98.48-.32 1.067-.653 1.76-1l-.38-.46c-.16-.2-.333-.407-.52-.62a7.25 7.25 0 0 1-.52-.72 4.494 4.494 0 0 1-.4-.8 2.772 2.772 0 0 1-.14-.88v-.36c0-.32.074-.64.22-.96.147-.333.367-.627.66-.88.294-.267.654-.48 1.08-.64.44-.173.94-.26 1.5-.26.534 0 1.014.087 1.44.26.427.16.787.373 1.08.64.307.253.54.547.7.88.16.32.24.64.24.96v.38c0 .32-.053.633-.16.94-.093.307-.26.62-.5.94-.24.307-.56.62-.96.94-.386.32-.873.647-1.46.98l3.56 4.2c.307-.507.54-1.093.7-1.76.16-.667.24-1.393.24-2.18h1.3zm-6.72 6.48c.76 0 1.454-.133 2.08-.4a4.668 4.668 0 0 0 1.66-1.16l-3.9-4.58a23.26 23.26 0 0 0-1.42.82c-.4.253-.733.513-1 .78a2.666 2.666 0 0 0-.6.82c-.12.28-.18.607-.18.98v.34c0 .32.08.627.24.92.174.293.407.553.7.78.307.213.667.387 1.08.52.414.12.86.18 1.34.18zm-1.62-10.62c0 .24.054.487.16.74.12.253.267.507.44.76.174.253.36.507.56.76.214.253.414.493.6.72.547-.293.987-.573 1.32-.84.347-.267.607-.52.78-.76.187-.253.307-.493.36-.72.067-.227.1-.447.1-.66v-.22c0-.24-.06-.46-.18-.66-.106-.2-.26-.373-.46-.52a2.27 2.27 0 0 0-.7-.34 2.536 2.536 0 0 0-1.66 0c-.253.08-.48.193-.68.34-.2.147-.36.32-.48.52-.106.2-.16.42-.16.66v.22z" fill="#D6D6D6"/>
    <path d="M297.499 277.06h.5v-.5h-.5v.5zm-.36 2.72.48.142.001-.003-.481-.139zm-1.04 2.2-.41-.285-.22.316.249.293.381-.324zm2.16 2.54v.5h1.082l-.701-.824-.381.324zm-1.6 0-.381.324.15.176h.231v-.5zm-1.36-1.6.381-.324-.362-.427-.383.409.364.342zm-2.1 1.38-.165-.472-.009.004.174.468zm-4.24.2-.137.481.137-.481zm-1.48-.68-.292.406.009.006.283-.412zm-1.02-1.12.434-.249-.434.249zm-.18-3.22.471.168-.471-.168zm.64-1.04.369.338.007-.008-.376-.33zm1.14-.98-.277-.416-.005.004.282.412zm1.76-1 .224.447.562-.281-.4-.484-.386.318zm-.38-.46-.39.312.005.006.385-.318zm-.52-.62-.386.318.005.006.005.005.376-.329zm-.52-.72-.422.267.422-.267zm-.4-.8-.474.158.003.01.004.01.467-.178zm.08-2.2.455.208.003-.007-.458-.201zm.66-.88.327.379.01-.009-.337-.37zm1.08-.64.176.468.008-.003-.184-.465zm2.94 0-.188.463.013.005.175-.468zm1.08.64-.336.37.009.008.009.007.318-.385zm.7.88-.45.216.003.008.447-.224zm.08 2.28-.472-.164-.003.009-.003.009.478.146zm-.5.94.394.308.006-.008-.4-.3zm-.96.94-.312-.39-.006.005.318.385zm-1.46.98-.247-.435-.524.298.39.46.381-.323zm3.56 4.2-.381.323.449.53.36-.594-.428-.259zm.7-1.76.487.117-.487-.117zm.24-2.18v-.5h-.5v.5h.5zm-3.34 6.08-.192-.462-.003.002.195.46zm1.66-1.16.368.339.3-.326-.287-.337-.381.324zm-3.9-4.58.381-.324-.262-.307-.355.19.236.441zm-1.42.82.268.422-.268-.422zm-1 .78.345.363.009-.009-.354-.354zm-.6.82-.455-.207-.004.01.459.197zm.06 2.24-.439.239.005.008.004.007.43-.254zm.7.78-.305.396.01.007.01.007.285-.41zm1.08.52-.153.476.007.002.007.002.139-.48zm-.12-9.7-.46.194.004.01.005.01.451-.214zm.44.76.413-.282-.413.282zm.56.76-.392.31.005.006.005.006.382-.322zm.6.72-.386.318.261.317.362-.194-.237-.441zm1.32-.84-.305-.396-.007.006.312.39zm.78-.76-.402-.297-.003.004.405.293zm.36-.72-.479-.141-.004.013-.003.013.486.115zm-.08-1.54-.441.235.006.011.007.011.428-.257zm-.46-.52-.295.403.295-.403zm-.7-.34-.172.469.014.005.015.005.143-.479zm-1.66 0 .151.477.007-.003.008-.002-.166-.472zm-.68.34.296.403-.296-.403zm-.48.52-.428-.257-.007.011-.006.011.441.235zm7.68 5.02c0 .946-.115 1.805-.34 2.581l.961.278c.254-.878.379-1.832.379-2.859h-1zm-.339 2.578a7.105 7.105 0 0 1-.971 2.057l.821.57c.486-.7.855-1.482 1.109-2.343l-.959-.284zm-.942 2.666 2.16 2.54.762-.648-2.16-2.54-.762.648zm2.541 1.716h-1.6v1h1.6v-1zm-1.219.176-1.36-1.6-.762.648 1.36 1.6.762-.648zm-2.105-1.618a4.705 4.705 0 0 1-1.901 1.25l.331.944a5.705 5.705 0 0 0 2.299-1.51l-.729-.684zm-1.91 1.254a6.282 6.282 0 0 1-2.206.408v1c.863 0 1.715-.158 2.555-.472l-.349-.936zm-2.206.408h-.12v1h.12v-1zm-.12 0a5.792 5.792 0 0 1-1.602-.221l-.275.962a6.805 6.805 0 0 0 1.877.259v-1zm-1.602-.221a4.528 4.528 0 0 1-1.334-.611l-.567.824a5.52 5.52 0 0 0 1.626.749l.275-.962zm-1.326-.605a3.046 3.046 0 0 1-.878-.963l-.867.498c.29.504.679.93 1.162 1.277l.583-.812zm-.878-.963a2.448 2.448 0 0 1-.314-1.251h-1c0 .638.146 1.226.447 1.749l.867-.498zm-.314-1.251v-.48h-1v.48h1zm0-.48c0-.404.06-.76.171-1.072l-.941-.336c-.156.434-.23.905-.23 1.408h1zm.171-1.072c.109-.305.285-.595.538-.87l-.737-.676a3.549 3.549 0 0 0-.742 1.21l.941.336zm.545-.878a5.629 5.629 0 0 1 1.047-.898l-.565-.824c-.492.337-.906.69-1.233 1.062l.751.66zm1.042-.894a16.185 16.185 0 0 1 1.706-.969l-.447-.894c-.706.353-1.312.696-1.814 1.031l.555.832zm1.868-1.734-.38-.46-.771.636.38.46.771-.636zm-.375-.454a17.905 17.905 0 0 0-.534-.637l-.753.658c.182.209.351.41.506.603l.781-.624zm-.525-.626a6.55 6.55 0 0 1-.483-.669l-.845.534c.171.271.356.528.556.771l.772-.636zm-.483-.669a3.933 3.933 0 0 1-.355-.711l-.935.356c.119.311.267.608.445.889l.845-.534zm-.348-.691a2.257 2.257 0 0 1-.115-.722h-1c0 .358.055.705.166 1.038l.949-.316zm-.115-.722v-.36h-1v.36h1zm0-.36c0-.241.055-.49.175-.752l-.909-.416a2.776 2.776 0 0 0-.266 1.168h1zm.178-.759a1.97 1.97 0 0 1 .529-.703l-.653-.756a2.953 2.953 0 0 0-.791 1.057l.915.402zm.539-.711a2.82 2.82 0 0 1 .919-.542l-.351-.936a3.823 3.823 0 0 0-1.241.738l.673.74zm.927-.545a3.58 3.58 0 0 1 1.316-.225v-1c-.611 0-1.175.095-1.683.295l.367.93zm1.316-.225c.479 0 .894.078 1.252.223l.377-.926a4.304 4.304 0 0 0-1.629-.297v1zm1.265.228c.376.141.679.324.919.542l.673-.74a3.823 3.823 0 0 0-1.241-.738l-.351.936zm.937.557c.255.211.441.448.568.711l.901-.432a3.082 3.082 0 0 0-.832-1.049l-.637.77zm.571.719c.13.258.187.502.187.736h1c0-.406-.102-.802-.292-1.184l-.895.448zm.187.736v.38h1v-.38h-1zm0 .38c0 .263-.043.521-.132.776l.945.328c.124-.358.187-.727.187-1.104h-1zm-.138.794c-.073.24-.208.501-.422.786l.8.6c.267-.355.465-.72.579-1.094l-.957-.292zm-.415.778c-.21.268-.5.555-.879.858l.625.78a6.366 6.366 0 0 0 1.041-1.022l-.787-.616zm-.885.863a9.698 9.698 0 0 1-1.389.93l.494.87a10.665 10.665 0 0 0 1.532-1.03l-.637-.77zm-1.523 1.688 3.56 4.2.763-.646-3.56-4.2-.763.646zm4.369 4.136a6.674 6.674 0 0 0 .759-1.902l-.973-.234a5.649 5.649 0 0 1-.641 1.618l.855.518zm.759-1.902c.17-.71.253-1.477.253-2.297h-1a8.81 8.81 0 0 1-.226 2.063l.973.234zm-.247-1.797h1.3v-1h-1.3v1zm-5.42 6.48c.82 0 1.581-.144 2.276-.44l-.391-.92a4.77 4.77 0 0 1-1.885.36v1zm2.273-.438a5.186 5.186 0 0 0 1.835-1.283l-.735-.678a4.18 4.18 0 0 1-1.485 1.037l.385.924zm1.848-1.946-3.9-4.58-.761.648 3.9 4.58.761-.648zm-4.517-4.697c-.554.298-1.038.577-1.451.839l.535.844c.387-.245.85-.512 1.389-.801l-.473-.882zm-1.451.839a6.26 6.26 0 0 0-1.086.848l.707.708c.235-.235.538-.473.914-.712l-.535-.844zm-1.077.839a3.163 3.163 0 0 0-.711.976l.911.414c.103-.227.262-.449.489-.664l-.689-.726zm-.715.986a2.97 2.97 0 0 0-.221 1.177h1c0-.32.052-.578.14-.783l-.919-.394zm-.221 1.177v.34h1v-.34h-1zm0 .34c0 .407.103.796.301 1.159l.878-.478a1.407 1.407 0 0 1-.179-.681h-1zm.31 1.174c.208.353.486.66.825.922l.611-.792a2.243 2.243 0 0 1-.575-.638l-.861.508zm.845.936c.353.246.759.44 1.212.586l.307-.952a3.542 3.542 0 0 1-.948-.454l-.571.82zm1.226.59c.463.135.958.2 1.479.2v-1c-.438 0-.837-.055-1.2-.16l-.279.96zm-.641-10.92c0 .316.071.628.2.934l.921-.388a1.415 1.415 0 0 1-.121-.546h-1zm.209.954c.132.279.292.555.479.828l.825-.564a5.143 5.143 0 0 1-.401-.692l-.903.428zm.479.828c.18.264.373.526.58.788l.785-.62a13.976 13.976 0 0 1-.54-.732l-.825.564zm.59.8c.212.252.411.491.596.716l.772-.636c-.188-.228-.389-.47-.603-.724l-.765.644zm1.219.839a9.333 9.333 0 0 0 1.396-.891l-.625-.78a8.293 8.293 0 0 1-1.244.789l.473.882zm1.388-.885c.369-.283.669-.57.881-.863l-.811-.586c-.135.187-.355.407-.679.657l.609.792zm.878-.859a2.52 2.52 0 0 0 .444-.902l-.973-.23c-.034.143-.116.321-.276.538l.805.594zm.437-.876c.079-.268.12-.535.12-.801h-1c0 .161-.025.333-.079.519l.959.282zm.12-.801v-.22h-1v.22h1zm0-.22c0-.328-.083-.637-.251-.917l-.857.514a.76.76 0 0 1 .108.403h1zm-.238-.895a2.047 2.047 0 0 0-.606-.688l-.591.806c.145.107.246.225.314.352l.883-.47zm-.606-.688a2.77 2.77 0 0 0-.852-.416l-.287.958c.218.066.399.155.548.264l.591-.806zm-.823-.406a2.836 2.836 0 0 0-.993-.171v1c.24 0 .454.038.648.109l.345-.938zm-.993-.171c-.347 0-.683.055-1.005.168l.331.944a2.02 2.02 0 0 1 .674-.112v-1zm-.99.163a2.816 2.816 0 0 0-.825.414l.591.806c.153-.112.33-.201.535-.266l-.301-.954zm-.825.414c-.25.183-.457.405-.613.666l.857.514c.084-.139.197-.264.347-.374l-.591-.806zm-.626.688a1.884 1.884 0 0 0-.219.895h1c0-.163.036-.301.102-.425l-.883-.47zm-.219.895v.22h1v-.22h-1zM892.499 277.06c0 .987-.12 1.893-.36 2.72a7.585 7.585 0 0 1-1.04 2.2l2.16 2.54h-1.6l-1.36-1.6c-.6.64-1.3 1.1-2.1 1.38-.786.293-1.58.44-2.38.44h-.12c-.6 0-1.18-.08-1.74-.24a5.042 5.042 0 0 1-1.48-.68 3.57 3.57 0 0 1-1.02-1.12c-.253-.44-.38-.94-.38-1.5v-.48c0-.453.067-.867.2-1.24.134-.373.347-.72.64-1.04.294-.333.674-.66 1.14-.98.48-.32 1.067-.653 1.76-1l-.38-.46c-.16-.2-.333-.407-.52-.62a7.25 7.25 0 0 1-.52-.72 4.494 4.494 0 0 1-.4-.8 2.772 2.772 0 0 1-.14-.88v-.36c0-.32.074-.64.22-.96.147-.333.367-.627.66-.88.294-.267.654-.48 1.08-.64.44-.173.94-.26 1.5-.26.534 0 1.014.087 1.44.26.427.16.787.373 1.08.64.307.253.54.547.7.88.16.32.24.64.24.96v.38c0 .32-.053.633-.16.94-.093.307-.26.62-.5.94-.24.307-.56.62-.96.94-.386.32-.873.647-1.46.98l3.56 4.2c.307-.507.54-1.093.7-1.76.16-.667.24-1.393.24-2.18h1.3zm-6.72 6.48c.76 0 1.454-.133 2.08-.4a4.668 4.668 0 0 0 1.66-1.16l-3.9-4.58a23.26 23.26 0 0 0-1.42.82c-.4.253-.733.513-1 .78a2.666 2.666 0 0 0-.6.82c-.12.28-.18.607-.18.98v.34c0 .32.08.627.24.92.174.293.407.553.7.78.307.213.667.387 1.08.52.414.12.86.18 1.34.18zm-1.62-10.62c0 .24.054.487.16.74.12.253.267.507.44.76.174.253.36.507.56.76.214.253.414.493.6.72.547-.293.987-.573 1.32-.84.347-.267.607-.52.78-.76.187-.253.307-.493.36-.72.067-.227.1-.447.1-.66v-.22c0-.24-.06-.46-.18-.66-.106-.2-.26-.373-.46-.52a2.27 2.27 0 0 0-.7-.34 2.536 2.536 0 0 0-1.66 0c-.253.08-.48.193-.68.34-.2.147-.36.32-.48.52-.106.2-.16.42-.16.66v.22z" fill="#D6D6D6"/>
    <path d="M892.499 277.06h.5v-.5h-.5v.5zm-.36 2.72.48.142.001-.003-.481-.139zm-1.04 2.2-.41-.285-.22.316.249.293.381-.324zm2.16 2.54v.5h1.082l-.701-.824-.381.324zm-1.6 0-.381.324.15.176h.231v-.5zm-1.36-1.6.381-.324-.362-.427-.383.409.364.342zm-2.1 1.38-.165-.472-.009.004.174.468zm-4.24.2-.137.481.137-.481zm-1.48-.68-.292.406.009.006.283-.412zm-1.02-1.12.434-.249-.434.249zm-.18-3.22.471.168-.471-.168zm.64-1.04.369.338.007-.008-.376-.33zm1.14-.98-.277-.416-.005.004.282.412zm1.76-1 .224.447.562-.281-.4-.484-.386.318zm-.38-.46-.39.312.005.006.385-.318zm-.52-.62-.386.318.005.006.005.005.376-.329zm-.52-.72-.422.267.422-.267zm-.4-.8-.474.158.003.01.004.01.467-.178zm.08-2.2.455.208.003-.007-.458-.201zm.66-.88.327.379.01-.009-.337-.37zm1.08-.64.176.468.008-.003-.184-.465zm2.94 0-.188.463.013.005.175-.468zm1.08.64-.336.37.009.008.009.007.318-.385zm.7.88-.45.216.003.008.447-.224zm.08 2.28-.472-.164-.003.009-.003.009.478.146zm-.5.94.394.308.006-.008-.4-.3zm-.96.94-.312-.39-.006.005.318.385zm-1.46.98-.247-.435-.524.298.39.46.381-.323zm3.56 4.2-.381.323.449.53.36-.594-.428-.259zm.7-1.76.487.117-.487-.117zm.24-2.18v-.5h-.5v.5h.5zm-3.34 6.08-.192-.462-.003.002.195.46zm1.66-1.16.368.339.3-.326-.287-.337-.381.324zm-3.9-4.58.381-.324-.262-.307-.355.19.236.441zm-1.42.82.268.422-.268-.422zm-1 .78.345.363.009-.009-.354-.354zm-.6.82-.455-.207-.004.01.459.197zm.06 2.24-.439.239.005.008.004.007.43-.254zm.7.78-.305.396.01.007.01.007.285-.41zm1.08.52-.153.476.007.002.007.002.139-.48zm-.12-9.7-.46.194.004.01.005.01.451-.214zm.44.76.413-.282-.413.282zm.56.76-.392.31.005.006.005.006.382-.322zm.6.72-.386.318.261.317.362-.194-.237-.441zm1.32-.84-.305-.396-.007.006.312.39zm.78-.76-.402-.297-.003.004.405.293zm.36-.72-.479-.141-.004.013-.003.013.486.115zm-.08-1.54-.441.235.006.011.007.011.428-.257zm-.46-.52-.295.403.295-.403zm-.7-.34-.172.469.014.005.015.005.143-.479zm-1.66 0 .151.477.007-.003.008-.002-.166-.472zm-.68.34.296.403-.296-.403zm-.48.52-.428-.257-.007.011-.006.011.441.235zm7.68 5.02c0 .946-.115 1.805-.34 2.581l.961.278c.254-.878.379-1.832.379-2.859h-1zm-.339 2.578a7.105 7.105 0 0 1-.971 2.057l.821.57c.486-.7.855-1.482 1.109-2.343l-.959-.284zm-.942 2.666 2.16 2.54.762-.648-2.16-2.54-.762.648zm2.541 1.716h-1.6v1h1.6v-1zm-1.219.176-1.36-1.6-.762.648 1.36 1.6.762-.648zm-2.105-1.618a4.705 4.705 0 0 1-1.901 1.25l.331.944a5.705 5.705 0 0 0 2.299-1.51l-.729-.684zm-1.91 1.254a6.282 6.282 0 0 1-2.206.408v1c.863 0 1.715-.158 2.555-.472l-.349-.936zm-2.206.408h-.12v1h.12v-1zm-.12 0a5.792 5.792 0 0 1-1.602-.221l-.275.962a6.805 6.805 0 0 0 1.877.259v-1zm-1.602-.221a4.528 4.528 0 0 1-1.334-.611l-.567.824a5.52 5.52 0 0 0 1.626.749l.275-.962zm-1.326-.605a3.046 3.046 0 0 1-.878-.963l-.867.498c.29.504.679.93 1.162 1.277l.583-.812zm-.878-.963a2.448 2.448 0 0 1-.314-1.251h-1c0 .638.146 1.226.447 1.749l.867-.498zm-.314-1.251v-.48h-1v.48h1zm0-.48c0-.404.06-.76.171-1.072l-.941-.336c-.156.434-.23.905-.23 1.408h1zm.171-1.072c.109-.305.285-.595.538-.87l-.737-.676a3.549 3.549 0 0 0-.742 1.21l.941.336zm.545-.878a5.629 5.629 0 0 1 1.047-.898l-.565-.824c-.492.337-.906.69-1.233 1.062l.751.66zm1.042-.894a16.185 16.185 0 0 1 1.706-.969l-.447-.894c-.706.353-1.312.696-1.814 1.031l.555.832zm1.868-1.734-.38-.46-.771.636.38.46.771-.636zm-.375-.454a17.905 17.905 0 0 0-.534-.637l-.753.658c.182.209.351.41.506.603l.781-.624zm-.525-.626a6.55 6.55 0 0 1-.483-.669l-.845.534c.171.271.356.528.556.771l.772-.636zm-.483-.669a3.933 3.933 0 0 1-.355-.711l-.935.356c.119.311.267.608.445.889l.845-.534zm-.348-.691a2.257 2.257 0 0 1-.115-.722h-1c0 .358.055.705.166 1.038l.949-.316zm-.115-.722v-.36h-1v.36h1zm0-.36c0-.241.055-.49.175-.752l-.909-.416a2.776 2.776 0 0 0-.266 1.168h1zm.178-.759a1.97 1.97 0 0 1 .529-.703l-.653-.756a2.953 2.953 0 0 0-.791 1.057l.915.402zm.539-.711a2.82 2.82 0 0 1 .919-.542l-.351-.936a3.823 3.823 0 0 0-1.241.738l.673.74zm.927-.545a3.58 3.58 0 0 1 1.316-.225v-1c-.611 0-1.175.095-1.683.295l.367.93zm1.316-.225c.479 0 .894.078 1.252.223l.377-.926a4.304 4.304 0 0 0-1.629-.297v1zm1.265.228c.376.141.679.324.919.542l.673-.74a3.823 3.823 0 0 0-1.241-.738l-.351.936zm.937.557c.255.211.441.448.568.711l.901-.432a3.082 3.082 0 0 0-.832-1.049l-.637.77zm.571.719c.13.258.187.502.187.736h1c0-.406-.102-.802-.292-1.184l-.895.448zm.187.736v.38h1v-.38h-1zm0 .38c0 .263-.043.521-.132.776l.945.328c.124-.358.187-.727.187-1.104h-1zm-.138.794c-.073.24-.208.501-.422.786l.8.6c.267-.355.465-.72.579-1.094l-.957-.292zm-.415.778c-.21.268-.5.555-.879.858l.625.78a6.366 6.366 0 0 0 1.041-1.022l-.787-.616zm-.885.863a9.698 9.698 0 0 1-1.389.93l.494.87a10.665 10.665 0 0 0 1.532-1.03l-.637-.77zm-1.523 1.688 3.56 4.2.763-.646-3.56-4.2-.763.646zm4.369 4.136a6.674 6.674 0 0 0 .759-1.902l-.973-.234a5.649 5.649 0 0 1-.641 1.618l.855.518zm.759-1.902c.17-.71.253-1.477.253-2.297h-1a8.81 8.81 0 0 1-.226 2.063l.973.234zm-.247-1.797h1.3v-1h-1.3v1zm-5.42 6.48c.82 0 1.581-.144 2.276-.44l-.391-.92a4.77 4.77 0 0 1-1.885.36v1zm2.273-.438a5.186 5.186 0 0 0 1.835-1.283l-.735-.678a4.18 4.18 0 0 1-1.485 1.037l.385.924zm1.848-1.946-3.9-4.58-.761.648 3.9 4.58.761-.648zm-4.517-4.697c-.554.298-1.038.577-1.451.839l.535.844c.387-.245.85-.512 1.389-.801l-.473-.882zm-1.451.839a6.26 6.26 0 0 0-1.086.848l.707.708c.235-.235.538-.473.914-.712l-.535-.844zm-1.077.839a3.163 3.163 0 0 0-.711.976l.911.414c.103-.227.262-.449.489-.664l-.689-.726zm-.715.986a2.97 2.97 0 0 0-.221 1.177h1c0-.32.052-.578.14-.783l-.919-.394zm-.221 1.177v.34h1v-.34h-1zm0 .34c0 .407.103.796.301 1.159l.878-.478a1.407 1.407 0 0 1-.179-.681h-1zm.31 1.174c.208.353.486.66.825.922l.611-.792a2.243 2.243 0 0 1-.575-.638l-.861.508zm.845.936c.353.246.759.44 1.212.586l.307-.952a3.542 3.542 0 0 1-.948-.454l-.571.82zm1.226.59c.463.135.958.2 1.479.2v-1c-.438 0-.837-.055-1.2-.16l-.279.96zm-.641-10.92c0 .316.071.628.2.934l.921-.388a1.415 1.415 0 0 1-.121-.546h-1zm.209.954c.132.279.292.555.479.828l.825-.564a5.143 5.143 0 0 1-.401-.692l-.903.428zm.479.828c.18.264.373.526.58.788l.785-.62a13.976 13.976 0 0 1-.54-.732l-.825.564zm.59.8c.212.252.411.491.596.716l.772-.636c-.188-.228-.389-.47-.603-.724l-.765.644zm1.219.839a9.333 9.333 0 0 0 1.396-.891l-.625-.78a8.293 8.293 0 0 1-1.244.789l.473.882zm1.388-.885c.369-.283.669-.57.881-.863l-.811-.586c-.135.187-.355.407-.679.657l.609.792zm.878-.859a2.52 2.52 0 0 0 .444-.902l-.973-.23c-.034.143-.116.321-.276.538l.805.594zm.437-.876c.079-.268.12-.535.12-.801h-1c0 .161-.025.333-.079.519l.959.282zm.12-.801v-.22h-1v.22h1zm0-.22c0-.328-.083-.637-.251-.917l-.857.514a.76.76 0 0 1 .108.403h1zm-.238-.895a2.047 2.047 0 0 0-.606-.688l-.591.806c.145.107.246.225.314.352l.883-.47zm-.606-.688a2.77 2.77 0 0 0-.852-.416l-.287.958c.218.066.399.155.548.264l.591-.806zm-.823-.406a2.836 2.836 0 0 0-.993-.171v1c.24 0 .454.038.648.109l.345-.938zm-.993-.171c-.347 0-.683.055-1.005.168l.331.944a2.02 2.02 0 0 1 .674-.112v-1zm-.99.163a2.816 2.816 0 0 0-.825.414l.591.806c.153-.112.33-.201.535-.266l-.301-.954zm-.825.414c-.25.183-.457.405-.613.666l.857.514c.084-.139.197-.264.347-.374l-.591-.806zm-.626.688a1.884 1.884 0 0 0-.219.895h1c0-.163.036-.301.102-.425l-.883-.47zm-.219.895v.22h1v-.22h-1z" fill="#D6D6D6"/>
    <rect x="237" y="302" width="100" height="100" rx="12" fill="#F9F9F9"/>
    <path d="M305.695 324.5H262v56.011h43.695V324.5z" stroke="#696969" stroke-width="2" stroke-miterlimit="10" stroke-linecap="round" stroke-linejoin="round"/>
    <path d="m277.377 335.211-4.581 4.648-2.701-2.74M283.544 337.531h14.057M277.378 346.332l-4.581 4.648-2.701-2.74M283.544 348.654h14.057" stroke="#696969" stroke-width="2" stroke-miterlimit="10" stroke-linecap="round" stroke-linejoin="round"/>
    <path d="m308.797 345.609.367-.395 1.475-1.542c.982-1.023 2.61-1.08 3.63-.103l3.163 3.036c1.005.95 1.032 2.591.05 3.614l-1.845 1.923-19.812 20.603-7.361 1.213.529-7.747 19.79-20.598" fill="#F3F3F3"/>
    <path d="m308.797 345.609.367-.395 1.475-1.542c.982-1.023 2.61-1.08 3.63-.103l3.163 3.036c1.005.95 1.032 2.591.05 3.614l-1.845 1.923-19.812 20.603-7.361 1.213.529-7.747 19.79-20.598" stroke="#5CBBBB" stroke-width="2" stroke-miterlimit="10" stroke-linecap="round" stroke-linejoin="round"/>
    <path d="m308.609 345.605.002.008.014-.004 3.186 3.032.256.248 3.42 3.287" fill="#F3F3F3"/>
    <path d="m308.609 345.605.002.008.014-.004 3.186 3.032.256.248 3.42 3.287" stroke="#5CBBBB" stroke-width="2" stroke-miterlimit="10" stroke-linecap="round" stroke-linejoin="round"/>
    <path d="M234.351 432.52c1.066-.467 1.98-.88 2.74-1.24.76-.373 1.393-.713 1.9-1.02.52-.32.926-.62 1.22-.9.306-.293.54-.593.7-.9.16-.307.26-.633.3-.98.053-.36.08-.76.08-1.2v-1.4h-6.32v-1.24h7.7v2.72c0 .413-.02.787-.06 1.12h4.74v-5.04h1.4v13.08h-1.4v-6.8h-5.02a4.15 4.15 0 0 1-.76 1.2c-.334.36-.794.733-1.38 1.12-.574.387-1.294.793-2.16 1.22-.854.427-1.887.9-3.1 1.42l-.58-1.16zm4.62 6.74h10.24v1.24h-11.66v-5.96h1.42v4.72zm20.803-5.66c.746 0 1.446.08 2.1.24a6.26 6.26 0 0 1 1.74.68c.493.293.88.653 1.16 1.08.293.427.44.9.44 1.42v.76c0 .52-.147.993-.44 1.42-.28.427-.667.787-1.16 1.08a6.26 6.26 0 0 1-1.74.68c-.654.16-1.354.24-2.1.24-.747 0-1.454-.08-2.12-.24a6.26 6.26 0 0 1-1.72-.68 3.678 3.678 0 0 1-1.18-1.08c-.28-.427-.42-.9-.42-1.42v-.76c0-.533.14-1.013.42-1.44a3.678 3.678 0 0 1 1.18-1.08 5.86 5.86 0 0 1 1.72-.66 9.054 9.054 0 0 1 2.12-.24zm0 6.4c.533 0 1.046-.053 1.54-.16a4.99 4.99 0 0 0 1.3-.46c.373-.187.673-.42.9-.7.226-.28.34-.6.34-.96v-.64c0-.36-.114-.68-.34-.96a2.685 2.685 0 0 0-.9-.7 4.99 4.99 0 0 0-1.3-.46 7.254 7.254 0 0 0-1.54-.16 7.24 7.24 0 0 0-1.54.16c-.494.107-.927.26-1.3.46-.374.187-.674.42-.9.7-.227.28-.34.6-.34.96v.64c0 .36.113.68.34.96.226.28.526.513.9.7.373.2.806.353 1.3.46a7.24 7.24 0 0 0 1.54.16zm-8.48-7.98a77.04 77.04 0 0 0 2.7-1.18c.76-.36 1.393-.693 1.9-1 .52-.307.926-.6 1.22-.88.306-.293.54-.593.7-.9.16-.307.26-.633.3-.98.053-.36.08-.767.08-1.22v-1.02h-6.28v-1.24h7.66v2.38c0 .84-.087 1.553-.26 2.14-.174.587-.534 1.133-1.08 1.64-.547.507-1.327 1.02-2.34 1.54-1.014.52-2.354 1.14-4.02 1.86l-.58-1.14zm13.82-5.22h2.8v1.24h-2.8v5.16h-1.4v-10.76h1.4v4.36zm18.003 5.8v4.68h-9.8v2.3h10.28v1.2h-11.66v-4.68h9.8v-2.28h-9.9v-1.22h11.28zm-9.54-4.86c-.107.333-.6.88-1.48 1.64-.347.307-.787.68-1.32 1.12-.533.427-1.14.887-1.82 1.38l-.86-1.02c.64-.44 1.233-.873 1.78-1.3a33.34 33.34 0 0 0 1.44-1.22c.293-.267.533-.513.72-.74.187-.227.333-.46.44-.7.12-.253.2-.52.24-.8.053-.28.08-.6.08-.96v-2.24h1.44v2.18c0 .36.013.673.04.94.04.253.107.487.2.7.107.213.253.427.44.64.187.2.44.433.76.7.373.307.82.66 1.34 1.06.52.387 1.04.753 1.56 1.1l-.8 1.02a82.668 82.668 0 0 1-1.32-.96l-1.06-.82a33.255 33.255 0 0 1-1.2-1c-.333-.307-.533-.547-.6-.72h-.02zm8.14-1.78v-3.52h1.4v9.08h-1.4v-4.32h-4.1v-1.24h4.1zm17.763-2.72v6.44h-11.76v-6.44h11.76zm-10.38 5.22h9v-4.02h-9v4.02zm12.9 3.3v1.2h-7.5v3.86h-1.4v-3.86h-7.9v-1.2H302zm-12.9 7.5h10.8v1.24h-12.22v-5.44h1.42v4.2zm22.943-10.52c-.04.147-.207.373-.5.68-.28.307-.633.647-1.06 1.02-.173.16-.387.34-.64.54-.24.2-.5.407-.78.62-.267.213-.54.427-.82.64a15.8 15.8 0 0 1-.74.56l-.86-1c.6-.427 1.2-.873 1.8-1.34.6-.48 1.147-.96 1.64-1.44.24-.24.44-.467.6-.68.16-.213.28-.427.36-.64.093-.213.153-.433.18-.66.04-.24.06-.493.06-.76v-1.52h-4.12v-1.22h9.48v1.22h-3.94v1.46c0 .293.013.553.04.78.027.227.087.447.18.66.107.213.253.433.44.66.2.213.46.46.78.74.32.267.74.593 1.26.98s1.067.773 1.64 1.16l-.82.98c-.413-.28-.833-.58-1.26-.9-.427-.32-.793-.6-1.1-.84a50.267 50.267 0 0 1-1.22-1.04c-.347-.307-.54-.527-.58-.66h-.02zm-2.74 5.36h11.46v6.76h-1.4v-5.52h-10.06v-1.24zm11.46-7.1h2.8v1.24h-2.8v4.78h-1.4v-10.58h1.4V427zm12.523 6.64c.747 0 1.454.08 2.12.24.68.147 1.274.367 1.78.66a3.62 3.62 0 0 1 1.2 1.08c.294.413.44.88.44 1.4v.78c0 .52-.146.987-.44 1.4a3.62 3.62 0 0 1-1.2 1.08c-.506.293-1.1.52-1.78.68-.666.16-1.373.24-2.12.24a9.32 9.32 0 0 1-2.14-.24 6.567 6.567 0 0 1-1.76-.68 3.64 3.64 0 0 1-1.2-1.08 2.362 2.362 0 0 1-.44-1.4v-.78c0-.533.147-1.007.44-1.42a3.64 3.64 0 0 1 1.2-1.08 6.144 6.144 0 0 1 1.76-.66 10.11 10.11 0 0 1 2.14-.22zm0 6.36a7.24 7.24 0 0 0 1.54-.16c.507-.093.954-.24 1.34-.44.4-.187.714-.42.94-.7.24-.267.36-.58.36-.94v-.68c0-.36-.12-.673-.36-.94-.226-.28-.54-.513-.94-.7a4.774 4.774 0 0 0-1.34-.44 7.24 7.24 0 0 0-1.54-.16c-.533 0-1.053.053-1.56.16-.493.093-.94.24-1.34.44-.386.187-.7.42-.94.7a1.41 1.41 0 0 0-.34.94v.68c0 .36.114.673.34.94.24.28.554.513.94.7.4.2.847.347 1.34.44.507.107 1.027.16 1.56.16zm-4.1-11.48c-.026.173-.186.413-.48.72-.28.293-.64.653-1.08 1.08-.346.333-.793.733-1.34 1.2-.533.453-1.08.9-1.64 1.34l-.88-1.02c.547-.4 1.107-.84 1.68-1.32a24.431 24.431 0 0 0 1.56-1.42c.32-.32.567-.6.74-.84a3.01 3.01 0 0 0 .42-.7c.107-.24.174-.493.2-.76.027-.28.04-.607.04-.98v-2.56h1.44v2.52c0 .373.014.693.04.96.027.253.087.493.18.72.107.227.254.46.44.7.2.227.467.487.8.78.494.427.994.847 1.5 1.26.507.4.98.76 1.42 1.08l-.84.98a77.41 77.41 0 0 1-1.46-1.12l-1.16-.98c-.946-.8-1.466-1.347-1.56-1.64h-.02zm8.14-1.96v-4.12h1.4v10.78h-1.4v-5.42h-4.12v-1.24h4.12zM630.369 231.92v1.26h-6.92v4.08h6.52v1.26h-6.52v4.24h2.56c.933 0 1.907-.027 2.92-.08 1.013-.067 2.06-.18 3.14-.34l.16 1.26a33.5 33.5 0 0 1-3.3.36c-1.12.053-2.213.08-3.28.08h-3.62v-12.12h8.34zm4.82 5.38h3.04v1.26h-3.04v10.16h-1.42v-18.28h1.42v6.86zm7.203 2.5a4.35 4.35 0 0 1-1.7-.32 4.005 4.005 0 0 1-1.26-.84 3.891 3.891 0 0 1-.8-1.22 3.894 3.894 0 0 1-.26-1.4v-1.04c0-.48.087-.947.26-1.4.187-.453.454-.853.8-1.2.347-.36.767-.647 1.26-.86a4.35 4.35 0 0 1 1.7-.32c.627 0 1.187.107 1.68.32.507.213.934.5 1.28.86.347.347.607.747.78 1.2.187.453.28.92.28 1.4v1.04c0 .48-.093.947-.28 1.4a3.59 3.59 0 0 1-.78 1.22 3.934 3.934 0 0 1-1.28.84c-.493.213-1.053.32-1.68.32zm7.24-4.92h2.64v-4.44h1.38v10.64h-1.38v-4.94h-2.64v4.9h-1.38v-10.36h1.38v4.2zm-7.24-2.4c-.4 0-.766.067-1.1.2a2.36 2.36 0 0 0-.82.56c-.226.24-.406.52-.54.84-.12.32-.18.667-.18 1.04v.76c0 .373.06.72.18 1.04.134.32.314.6.54.84.227.24.5.427.82.56.334.133.7.2 1.1.2.4 0 .76-.067 1.08-.2.334-.133.614-.32.84-.56.227-.24.4-.52.52-.84.134-.32.2-.667.2-1.04v-.76c0-.373-.066-.72-.2-1.04a2.47 2.47 0 0 0-.52-.84 2.308 2.308 0 0 0-.84-.56 2.79 2.79 0 0 0-1.08-.2zm-.62 9.68h11.88v6.7h-1.4v-5.46h-10.48v-1.24zm29.363-4.9h2.62v-6.82h1.4v18.28h-1.4v-10.2h-2.62v9.3h-1.4v-17h1.4v6.44zm-11.38-3.94h3.56v-2.5h1.4v2.5h3.38v1.24h-3.38v1.8c0 .467.014.867.04 1.2.04.333.1.64.18.92.094.28.22.553.38.82.16.253.367.54.62.86.334.413.734.88 1.2 1.4.467.507.98 1.04 1.54 1.6l-.92.9c-.226-.213-.46-.447-.7-.7-.226-.267-.46-.527-.7-.78l-.66-.74c-.2-.24-.386-.453-.56-.64a11.8 11.8 0 0 1-.74-.92c-.186-.293-.3-.493-.34-.6h-.02c-.026.107-.126.293-.3.56-.16.267-.393.58-.7.94-.373.427-.793.9-1.26 1.42a46.097 46.097 0 0 1-1.66 1.7l-.94-.94c.294-.28.587-.567.88-.86.294-.293.567-.58.82-.86.267-.28.507-.54.72-.78a8.92 8.92 0 0 0 .56-.68 6.44 6.44 0 0 0 .58-.86c.16-.267.28-.547.36-.84.08-.293.134-.607.16-.94.04-.347.06-.74.06-1.18v-1.8h-3.56v-1.24zm23.163 2.92c-.066.133-.213.3-.44.5-.226.2-.506.413-.84.64-.253.173-.533.36-.84.56-.293.187-.593.373-.9.56-.306.173-.606.347-.9.52-.293.173-.56.327-.8.46l-.76-1.06c.814-.453 1.547-.88 2.2-1.28a20.512 20.512 0 0 0 1.5-1.02 4.02 4.02 0 0 0 .54-.48c.134-.16.234-.32.3-.48.08-.173.134-.36.16-.56.027-.2.04-.433.04-.7v-.42h-4.14v-1.22h4.14v-1.98h1.4v1.98h4.14v1.22h-4.14v.38c0 .267.007.5.02.7.027.2.08.387.16.56.08.16.187.32.32.48.147.147.34.313.58.5.32.24.78.54 1.38.9.614.36 1.26.733 1.94 1.12l-.7 1.04c-.533-.307-1.06-.613-1.58-.92-.52-.307-.993-.6-1.42-.88-.306-.2-.593-.4-.86-.6-.253-.2-.413-.373-.48-.52h-.02zm8.98 12.48h-1.42v-18.28h1.42v18.28zm-2.7-7.2c-.906.093-1.813.167-2.72.22-.906.053-1.906.1-3 .14v6.26h-1.44v-6.2c-.72.013-1.493.027-2.32.04h-2.74v-1.24c1.44 0 2.754-.007 3.94-.02 1.2-.027 2.287-.053 3.26-.08a105.3 105.3 0 0 0 2.68-.14c.814-.053 1.554-.12 2.22-.2l.12 1.22zm17.004-.76c-.827 0-1.58-.067-2.26-.2-.68-.133-1.26-.32-1.74-.56-.48-.253-.854-.56-1.12-.92-.267-.36-.4-.773-.4-1.24v-.56c0-.453.133-.86.4-1.22.266-.373.64-.68 1.12-.92.48-.253 1.06-.447 1.74-.58.68-.133 1.433-.2 2.26-.2.826 0 1.58.067 2.26.2.68.133 1.26.327 1.74.58.48.24.853.547 1.12.92.266.36.4.767.4 1.22v.56c0 .467-.134.88-.4 1.24-.267.36-.64.667-1.12.92-.48.24-1.06.427-1.74.56-.68.133-1.434.2-2.26.2zm8.4 1.34v1.22h-7.68v5.4h-1.42v-5.4h-7.7v-1.22h16.8zm-8.4-6.56c-.6 0-1.16.047-1.68.14-.507.093-.947.22-1.32.38-.36.16-.647.353-.86.58-.2.227-.3.473-.3.74v.36c0 .267.1.513.3.74.213.227.5.42.86.58.373.16.813.287 1.32.38.52.093 1.08.14 1.68.14.6 0 1.153-.047 1.66-.14.52-.093.96-.22 1.32-.38.373-.16.66-.353.86-.58.213-.227.32-.473.32-.74v-.36c0-.267-.107-.513-.32-.74-.2-.227-.487-.42-.86-.58-.36-.16-.8-.287-1.32-.38a9.211 9.211 0 0 0-1.66-.14zm.72-3.4h5.96v1.2h-13.36v-1.2h5.98v-2.08h1.42v2.08zm21.283 8.32h-8.24v-9.1h1.36v3.36h5.52v-3.36h1.36v9.1zm5.18-4.62h2.8v1.24h-2.8v6.44h-1.4v-13.08h1.4v5.4zm-9.52 11.42h10.08v1.24h-11.5v-5.88h1.42v4.64zm-2.54-8.02h5.52v-3.3h-5.52v3.3zm23.283 2.88c.746 0 1.46.067 2.14.2.693.133 1.3.34 1.82.62.52.267.933.6 1.24 1 .32.4.48.86.48 1.38v.68c0 .52-.16.98-.48 1.38-.307.4-.72.733-1.24 1-.52.28-1.127.487-1.82.62-.68.133-1.394.2-2.14.2-.747 0-1.467-.067-2.16-.2a6.348 6.348 0 0 1-1.8-.62c-.52-.267-.94-.6-1.26-1-.307-.4-.46-.86-.46-1.38v-.68c0-.533.153-1 .46-1.4.32-.4.74-.733 1.26-1a6.773 6.773 0 0 1 1.8-.6c.693-.133 1.413-.2 2.16-.2zm0 5.88a8.96 8.96 0 0 0 1.58-.14c.52-.093.98-.227 1.38-.4.413-.173.74-.393.98-.66a1.21 1.21 0 0 0 .38-.88v-.52a1.21 1.21 0 0 0-.38-.88c-.24-.267-.567-.487-.98-.66-.4-.173-.86-.307-1.38-.4a9.068 9.068 0 0 0-3.18 0 6.691 6.691 0 0 0-1.38.4c-.4.173-.727.393-.98.66a1.24 1.24 0 0 0-.36.88v.52c0 .333.12.627.36.88.253.267.58.487.98.66.413.173.873.307 1.38.4.52.093 1.053.14 1.6.14zm.7-8.52h7.7v1.2h-16.8v-1.2h7.7v-2.62h1.4v2.62zm5.86-1.76a46.17 46.17 0 0 1-2.16-.88c-.72-.32-1.334-.6-1.84-.84-.854-.4-1.474-.733-1.86-1-.387-.267-.614-.493-.68-.68h-.02c-.067.2-.294.433-.68.7-.387.267-1.007.6-1.86 1-.507.24-1.12.52-1.84.84-.72.32-1.434.613-2.14.88l-.58-1.14c.906-.347 1.72-.673 2.44-.98.72-.307 1.32-.58 1.8-.82.453-.213.82-.413 1.1-.6.28-.2.5-.4.66-.6.16-.213.266-.44.32-.68a4.44 4.44 0 0 0 .08-.9v-1.34h1.42v1.34c0 .347.026.647.08.9.053.24.153.467.3.68.16.2.38.4.66.6.28.187.646.387 1.1.6.48.24 1.08.513 1.8.82.733.307 1.546.633 2.44.98l-.54 1.12z" fill="#000"/>
    <rect x="37" y="110" width="100" height="100" rx="12" fill="#F9F9F9"/>
    <path d="M87.678 159.575a8.824 8.824 0 1 0 0-17.648 8.824 8.824 0 0 0 0 17.648zM68.926 181.632v-9.537c0-3.881 3.121-7.007 6.972-7.007H98.35c3.85 0 6.972 3.142 6.972 7.007v9.537" stroke="#5CBBBB" stroke-width="2" stroke-miterlimit="10"/>
    <path d="M87.125 188.25c15.533 0 28.125-12.592 28.125-28.125S102.658 132 87.125 132 59 144.592 59 160.125s12.592 28.125 28.125 28.125z" stroke="#696969" stroke-width="2" stroke-miterlimit="10"/>
    <rect x="237" y="110" width="100" height="100" rx="12" fill="#F9F9F9"/>
    <path d="M302.406 126.406s-8.859 7.762-3.011 21.412c4.246 9.906 1.697 17.333-3.241 22.017 0 0-7.762 8.859-21.412 3.011-9.906-4.245-17.334-1.696-22.017 3.242" stroke="#696969" stroke-width="2" stroke-miterlimit="10" stroke-linecap="round"/>
    <path d="M320.992 144.992s-7.762 8.859-21.412 3.011c-9.906-4.246-17.33-1.693-22.014 3.245 0 0-8.859 7.762-3.011 21.412 4.246 9.906 1.697 17.333-3.241 22.017M317.587 146.719l-8.623-8.623M301.139 160.865l-14.657-14.657M287.884 174.117l-14.657-14.657M296.021 169.865l-18.537-18.538" stroke="#5CBBBB" stroke-width="2" stroke-miterlimit="10" stroke-linecap="round"/>
    <path d="m301.139 160.865-7.272-7.271M287.884 174.117l-7.347-7.346M296.021 169.865l-9.399-9.399" stroke="#696969" stroke-width="2" stroke-miterlimit="10" stroke-linecap="round"/>
    <path d="m312.693 149.49-7.741-7.741" stroke="#5CBBBB" stroke-width="2" stroke-miterlimit="10" stroke-linecap="round"/>
    <path d="m254.969 174.031 9.306 9.307M260.167 171.569l7.806 7.806" stroke="#696969" stroke-width="2" stroke-miterlimit="10" stroke-linecap="round"/>
    <rect x="437" y="110" width="100" height="100" rx="12" fill="#F9F9F9"/>
    <path d="M475.119 138.629v7.845M482.962 138.629v7.845M491.682 138.629v7.845M499.529 138.629v7.845" stroke="#5CBBBB" stroke-width="2" stroke-miterlimit="10" stroke-linecap="round" stroke-linejoin="round"/>
    <path d="M505.325 157.814h-27.028v15.445h27.028v-15.445z" stroke="#5CBBBB" stroke-width="2" stroke-miterlimit="10" stroke-linejoin="round"/>
    <path d="M509.647 132H465v15.067h44.647V132zM505.324 147.068h-36.008v41.78h36.008v-41.78z" stroke="#696969" stroke-width="2" stroke-miterlimit="10" stroke-linejoin="round"/>
    <rect x="637" y="110" width="100" height="100" rx="12" fill="#F9F9F9"/>
    <path d="M670.528 137.652v7.578M678.106 137.652v7.578M686.527 137.652v7.578M694.105 137.652v7.578" stroke="#5CBBBB" stroke-width="2" stroke-miterlimit="10" stroke-linecap="round" stroke-linejoin="round"/>
    <path d="M699.702 156.184h-26.107v14.918h26.107v-14.918z" stroke="#5CBBBB" stroke-width="2" stroke-miterlimit="10" stroke-linejoin="round"/>
    <path d="M703.878 131.25h-43.126v14.554h43.126V131.25zM699.701 145.805h-34.78v40.356h34.78v-40.356z" stroke="#696969" stroke-width="2" stroke-miterlimit="10" stroke-linejoin="round"/>
    <path d="M699.253 188.749c7.089 0 12.836-5.747 12.836-12.835 0-7.089-5.747-12.836-12.836-12.836-7.088 0-12.835 5.747-12.835 12.836 0 7.088 5.747 12.835 12.835 12.835z" fill="#F9F9F9" stroke="#696969" stroke-width="2" stroke-miterlimit="10"/>
    <path d="M694.275 177.698c-.784 2.917 1.964 5.463 4.981 5.463s5.764-2.546 4.98-5.463c-.709-2.636-4.98-9.024-4.98-9.024s-4.272 6.383-4.981 9.024z" stroke="#5CBBBB" stroke-width="2" stroke-miterlimit="10"/>
    <rect x="837" y="110" width="100" height="100" rx="12" fill="#F9F9F9"/>
    <path d="m898.291 181.691 3.748 10.996h-25.252l3.748-10.996" stroke="#696969" stroke-width="2" stroke-miterlimit="10" stroke-linecap="round" stroke-linejoin="round"/>
    <path d="m910.744 131.995-5.745-5.745-3.626 3.626 5.745 5.745 3.626-3.626zM873.09 175.418c9.064 9.064 23.772 9.064 32.836 0 9.063-9.064 9.063-23.772 0-32.836" stroke="#5CBBBB" stroke-width="2" stroke-miterlimit="10" stroke-linecap="round" stroke-linejoin="round"/>
    <path d="M902.19 146.312c6.999 7.009 6.999 18.359 0 25.358-5.764 5.764-14.479 6.784-21.282 3.06" stroke="#5CBBBB" stroke-width="2" stroke-miterlimit="10" stroke-linecap="round" stroke-linejoin="round"/>
    <path d="m909.464 137.962-10.431-10.431-19.648 19.649 10.43 10.43 19.649-19.648zM885.021 168.793h-23.746v5.936h23.746v-5.936z" stroke="#696969" stroke-width="2" stroke-miterlimit="10" stroke-linecap="round" stroke-linejoin="round"/>
    <path d="m891.645 159.442-14.102-14.102-3.751 3.75 14.102 14.102 3.751-3.75z" stroke="#5CBBBB" stroke-width="2" stroke-miterlimit="10" stroke-linecap="round" stroke-linejoin="round"/>
    <path d="M846.572 234.64c0-.6.174-1.133.52-1.6.347-.467.807-.86 1.38-1.18a7.178 7.178 0 0 1 1.92-.72 10.115 10.115 0 0 1 4.38 0c.72.16 1.367.4 1.94.72.574.32 1.034.713 1.38 1.18.347.467.52 1 .52 1.6v.92c0 .6-.173 1.133-.52 1.6-.346.467-.806.86-1.38 1.18-.573.32-1.22.56-1.94.72a10.115 10.115 0 0 1-4.38 0 7.178 7.178 0 0 1-1.92-.72c-.573-.32-1.033-.713-1.38-1.18-.346-.467-.52-1-.52-1.6v-.92zm10.64.12c0-.4-.126-.76-.38-1.08-.24-.32-.573-.587-1-.8a5.66 5.66 0 0 0-1.48-.52 8.376 8.376 0 0 0-1.76-.18c-.626 0-1.22.06-1.78.18a5.708 5.708 0 0 0-1.46.52c-.426.213-.766.48-1.02.8-.24.32-.36.68-.36 1.08v.68c0 .4.12.76.36 1.08.254.32.594.593 1.02.82.427.213.914.38 1.46.5.56.12 1.154.18 1.78.18.614 0 1.2-.06 1.76-.18a6.221 6.221 0 0 0 1.48-.5c.427-.227.76-.5 1-.82.254-.32.38-.68.38-1.08v-.68zm3.78 6.42v1.22h-4.48v6.3h-1.42v-6.3h-5v6.3h-1.42v-6.3h-4.48v-1.22h16.8zm6.283-3.8c-.04.147-.206.373-.5.68-.28.307-.633.647-1.06 1.02-.173.16-.386.34-.64.54-.24.2-.5.407-.78.62-.266.213-.54.427-.82.64-.266.213-.513.4-.74.56l-.86-1c.6-.427 1.2-.873 1.8-1.34.6-.48 1.147-.96 1.64-1.44.24-.24.44-.467.6-.68.16-.213.28-.427.36-.64.094-.213.154-.433.18-.66.04-.24.06-.493.06-.76v-2.06h-4.12v-1.22h9.46v1.22h-3.92v2c0 .293.014.553.04.78.027.227.087.447.18.66.107.213.254.433.44.66.2.213.46.46.78.74.32.267.74.593 1.26.98s1.067.773 1.64 1.16l-.82.98c-.413-.28-.833-.58-1.26-.9-.426-.32-.793-.6-1.1-.84a52.268 52.268 0 0 1-1.22-1.04c-.346-.307-.54-.527-.58-.66h-.02zm7.92-2.08v-4.86h1.4v13.06h-1.4v-6.96h-3.82v-1.24h3.82zm-8.38 11.96h10.24v1.24h-11.66v-6.06h1.42v4.82zm22.083-13.88h-4.14v2.86c0 .387.014.72.04 1 .027.28.08.547.16.8s.194.507.34.76c.16.24.374.513.64.82.387.453.867.967 1.44 1.54a62.887 62.887 0 0 0 2 1.86l-.92.94a63.593 63.593 0 0 1-1.8-1.72c-.493-.507-.94-.973-1.34-1.4-.293-.307-.56-.6-.8-.88s-.386-.487-.44-.62h-.02a1.245 1.245 0 0 1-.2.36 4.334 4.334 0 0 1-.36.48c-.133.173-.28.353-.44.54l-.46.5c-.133.147-.313.34-.54.58l-.76.76c-.266.267-.56.553-.88.86a22.99 22.99 0 0 1-.9.82l-.94-.94c.64-.56 1.234-1.113 1.78-1.66.56-.547 1.074-1.08 1.54-1.6.32-.36.574-.68.76-.96.187-.293.327-.58.42-.86a3.19 3.19 0 0 0 .2-.86c.04-.293.06-.633.06-1.02v-2.96h-4.2v-1.24h9.76v1.24zm3.88 4.04h3.04v1.26h-3.04v10.04h-1.42v-18.28h1.42v6.98zm17.324.5h-11.8v-6.96h1.38v2.28h9.04v-2.28h1.38v6.96zm2.5 2.12v1.2h-7.5v3.68h-1.4v-3.68h-7.9v-1.2h16.8zm-12.9 7.22h10.8v1.24h-12.22v-5.2h1.42v3.96zm-.02-10.56h9.04v-2.28h-9.04v2.28zm18.903-.26c-.027.173-.187.413-.48.72-.28.293-.64.653-1.08 1.08-.347.333-.794.733-1.34 1.2-.534.453-1.08.9-1.64 1.34l-.88-1.02c.546-.4 1.106-.84 1.68-1.32a24.987 24.987 0 0 0 1.56-1.42c.32-.32.566-.6.74-.84.186-.24.326-.473.42-.7.106-.24.173-.493.2-.76.026-.28.04-.607.04-.98v-2.54h1.44v2.5c0 .373.013.693.04.96.026.253.086.493.18.72.106.227.253.46.44.7.2.227.466.487.8.78.493.427.993.847 1.5 1.26.506.4.98.76 1.42 1.08l-.84.98c-.534-.4-1.02-.773-1.46-1.12l-1.16-.98c-.947-.8-1.467-1.347-1.56-1.64h-.02zm-2.22 5.68h11.76v6.74h-1.4v-5.5h-10.36v-1.24zm10.36-7.62v-4.06h1.4v10.6h-1.4v-5.3h-4.12v-1.24h4.12z" fill="#000"/>
    <rect x="837" y="302" width="100" height="100" rx="12" fill="#F9F9F9"/>
    <path d="M918.859 341.476v-8.226h-43.852v8.226h43.852zM902.895 357.2v-8.225h-27.89v8.225h27.89zM913.007 372.927v-8.226h-38.002v8.226h38.002z" stroke="#696969" stroke-width="2" stroke-miterlimit="10" stroke-linecap="round" stroke-linejoin="round"/>
    <path d="m854.5 336.514 3.643 3.718 5.611-5.728M854.5 352.225l3.643 3.732 5.611-5.742M854.5 367.965l3.643 3.718 5.611-5.728" stroke="#5CBBBB" stroke-width="2" stroke-miterlimit="10" stroke-linecap="round" stroke-linejoin="round"/>
    <path d="M834.351 432.52c1.066-.467 1.98-.88 2.74-1.24.76-.373 1.393-.713 1.9-1.02.52-.32.926-.62 1.22-.9.306-.293.54-.593.7-.9.16-.307.26-.633.3-.98.053-.36.08-.76.08-1.2v-1.4h-6.32v-1.24h7.7v2.72c0 .413-.02.787-.06 1.12h4.74v-5.04h1.4v13.08h-1.4v-6.8h-5.02a4.15 4.15 0 0 1-.76 1.2c-.334.36-.794.733-1.38 1.12-.574.387-1.294.793-2.16 1.22-.854.427-1.887.9-3.1 1.42l-.58-1.16zm4.62 6.74h10.24v1.24h-11.66v-5.96h1.42v4.72zm20.803-5.66c.746 0 1.446.08 2.1.24a6.26 6.26 0 0 1 1.74.68c.493.293.88.653 1.16 1.08.293.427.44.9.44 1.42v.76c0 .52-.147.993-.44 1.42-.28.427-.667.787-1.16 1.08a6.26 6.26 0 0 1-1.74.68c-.654.16-1.354.24-2.1.24-.747 0-1.454-.08-2.12-.24a6.26 6.26 0 0 1-1.72-.68 3.678 3.678 0 0 1-1.18-1.08c-.28-.427-.42-.9-.42-1.42v-.76c0-.533.14-1.013.42-1.44a3.678 3.678 0 0 1 1.18-1.08 5.86 5.86 0 0 1 1.72-.66 9.054 9.054 0 0 1 2.12-.24zm0 6.4c.533 0 1.046-.053 1.54-.16a4.99 4.99 0 0 0 1.3-.46c.373-.187.673-.42.9-.7.226-.28.34-.6.34-.96v-.64c0-.36-.114-.68-.34-.96a2.685 2.685 0 0 0-.9-.7 4.99 4.99 0 0 0-1.3-.46 7.254 7.254 0 0 0-1.54-.16 7.24 7.24 0 0 0-1.54.16c-.494.107-.927.26-1.3.46-.374.187-.674.42-.9.7-.227.28-.34.6-.34.96v.64c0 .36.113.68.34.96.226.28.526.513.9.7.373.2.806.353 1.3.46a7.24 7.24 0 0 0 1.54.16zm-8.48-7.98a77.04 77.04 0 0 0 2.7-1.18c.76-.36 1.393-.693 1.9-1 .52-.307.926-.6 1.22-.88.306-.293.54-.593.7-.9.16-.307.26-.633.3-.98.053-.36.08-.767.08-1.22v-1.02h-6.28v-1.24h7.66v2.38c0 .84-.087 1.553-.26 2.14-.174.587-.534 1.133-1.08 1.64-.547.507-1.327 1.02-2.34 1.54-1.014.52-2.354 1.14-4.02 1.86l-.58-1.14zm13.82-5.22h2.8v1.24h-2.8v5.16h-1.4v-10.76h1.4v4.36zm18.003 5.8v4.68h-9.8v2.3h10.28v1.2h-11.66v-4.68h9.8v-2.28h-9.9v-1.22h11.28zm-9.54-4.86c-.107.333-.6.88-1.48 1.64-.347.307-.787.68-1.32 1.12-.533.427-1.14.887-1.82 1.38l-.86-1.02c.64-.44 1.233-.873 1.78-1.3a33.34 33.34 0 0 0 1.44-1.22c.293-.267.533-.513.72-.74.187-.227.333-.46.44-.7.12-.253.2-.52.24-.8.053-.28.08-.6.08-.96v-2.24h1.44v2.18c0 .36.013.673.04.94.04.253.107.487.2.7.107.213.253.427.44.64.187.2.44.433.76.7.373.307.82.66 1.34 1.06.52.387 1.04.753 1.56 1.1l-.8 1.02a82.668 82.668 0 0 1-1.32-.96l-1.06-.82a33.255 33.255 0 0 1-1.2-1c-.333-.307-.533-.547-.6-.72h-.02zm8.14-1.78v-3.52h1.4v9.08h-1.4v-4.32h-4.1v-1.24h4.1zm17.763-2.72v6.44h-11.76v-6.44h11.76zm-10.38 5.22h9v-4.02h-9v4.02zm12.9 3.3v1.2h-7.5v3.86h-1.4v-3.86h-7.9v-1.2H902zm-12.9 7.5h10.8v1.24h-12.22v-5.44h1.42v4.2zm31.603-9.34h-11.8v-6.96h1.38v2.28h9.04v-2.28h1.38v6.96zm2.5 2.12v1.2h-7.5v3.68h-1.4v-3.68h-7.9v-1.2h16.8zm-12.9 7.22h10.8v1.24h-12.22v-5.2h1.42v3.96zm-.02-10.56h9.04v-2.28h-9.04v2.28zm18.903-.26c-.026.173-.186.413-.48.72-.28.293-.64.653-1.08 1.08-.346.333-.793.733-1.34 1.2-.533.453-1.08.9-1.64 1.34l-.88-1.02c.547-.4 1.107-.84 1.68-1.32a24.431 24.431 0 0 0 1.56-1.42c.32-.32.567-.6.74-.84a3.01 3.01 0 0 0 .42-.7c.107-.24.174-.493.2-.76.027-.28.04-.607.04-.98v-2.54h1.44v2.5c0 .373.014.693.04.96.027.253.087.493.18.72.107.227.254.46.44.7.2.227.467.487.8.78.494.427.994.847 1.5 1.26.507.4.98.76 1.42 1.08l-.84.98a77.41 77.41 0 0 1-1.46-1.12l-1.16-.98c-.946-.8-1.466-1.347-1.56-1.64h-.02zm-2.22 5.68h11.76v6.74h-1.4v-5.5h-10.36v-1.24zm10.36-7.62v-4.06h1.4v10.6h-1.4v-5.3h-4.12v-1.24h4.12z" fill="#000"/>
    <rect x="837" y="486" width="100" height="100" rx="12" fill="#F9F9F9"/>
    <path d="m881.351 533.268-22.181 20.433M915.75 553.701l-22.181-20.433" stroke="#5CBBBB" stroke-width="2" stroke-miterlimit="10" stroke-linecap="round" stroke-linejoin="round"/>
    <path d="m859.17 517.029 28.29 20.712 28.29-20.712" stroke="#696969" stroke-width="2" stroke-miterlimit="10" stroke-linecap="round" stroke-linejoin="round"/>
    <path d="M915.75 517.029h-56.58v37.703h56.58v-37.703z" stroke="#696969" stroke-width="2" stroke-miterlimit="10" stroke-linecap="round" stroke-linejoin="round"/>
    <path d="M816.915 624.72h-1.42v-18.28h1.42v18.28zm-5.04-9.8c0 1.68-.4 2.987-1.2 3.92-.787.933-1.894 1.4-3.32 1.4-1.427 0-2.54-.467-3.34-1.4-.787-.933-1.18-2.24-1.18-3.92v-1.9c0-1.68.393-2.98 1.18-3.9.8-.933 1.913-1.4 3.34-1.4 1.426 0 2.533.467 3.32 1.4.8.933 1.2 2.24 1.2 3.92v1.88zm-1.38-1.64c0-.76-.08-1.407-.24-1.94-.147-.533-.36-.967-.64-1.3a2.364 2.364 0 0 0-.98-.76 3.32 3.32 0 0 0-1.28-.24c-.467 0-.894.08-1.28.24-.387.16-.72.413-1 .76-.267.333-.48.767-.64 1.3-.147.533-.22 1.18-.22 1.94v1.4c0 .76.073 1.413.22 1.96.16.533.373.973.64 1.32.28.333.613.58 1 .74.386.16.813.24 1.28.24.466 0 .893-.08 1.28-.24.386-.16.713-.407.98-.74.28-.347.493-.787.64-1.32.16-.547.24-1.2.24-1.96v-1.4zm16.643-5.08v4.92h2.72v-6.3h1.4v17h-1.4v-9.44h-2.72v5.4h-7.18V608.2h7.18zm-1.38 1.26h-4.42v9.06h4.42v-9.06zm9.06 15.26h-1.4v-18.28h1.4v18.28zm16.523-8.2v4.72h-9.8v2.34h10.28v1.2h-11.66v-4.72h9.8v-2.32h-9.9v-1.22h11.28zm0-1.08h-1.4v-9h1.4v9zm-9.78-.46c-.653 0-1.253-.1-1.8-.3a4.74 4.74 0 0 1-1.42-.8 3.844 3.844 0 0 1-.92-1.16 3.13 3.13 0 0 1-.32-1.38v-.88c0-.48.107-.94.32-1.38.227-.44.533-.827.92-1.16.4-.333.873-.6 1.42-.8.547-.2 1.147-.3 1.8-.3s1.253.1 1.8.3a4.48 4.48 0 0 1 1.4.8c.4.333.707.72.92 1.16.227.44.34.9.34 1.38v.88c0 .48-.113.94-.34 1.38a3.47 3.47 0 0 1-.92 1.16 4.48 4.48 0 0 1-1.4.8c-.547.2-1.147.3-1.8.3zm0-6.9c-.453 0-.873.067-1.26.2-.373.133-.7.313-.98.54-.267.227-.48.493-.64.8-.147.307-.22.627-.22.96v.64c0 .347.073.673.22.98.16.293.373.553.64.78.28.227.607.407.98.54.387.133.807.2 1.26.2.453 0 .867-.067 1.24-.2.387-.133.713-.313.98-.54.28-.227.493-.487.64-.78.16-.307.24-.633.24-.98v-.64c0-.333-.08-.653-.24-.96a2.303 2.303 0 0 0-.64-.8 2.997 2.997 0 0 0-.98-.54 3.674 3.674 0 0 0-1.24-.2zM854.524 621h1.76l-1.44 4.5h-1.16l.84-4.5zm21.102-13.76v6.44h-11.76v-6.44h11.76zm-10.38 5.22h9v-4.02h-9v4.02zm12.9 3.3v1.2h-7.5v3.86h-1.4v-3.86h-7.9v-1.2h16.8zm-12.9 7.5h10.8v1.24h-12.22v-5.44h1.42v4.2zm23.604-13.88h-4.14v2.86c0 .387.013.72.04 1 .026.28.08.547.16.8s.193.507.34.76c.16.24.373.513.64.82.386.453.866.967 1.44 1.54a60.786 60.786 0 0 0 2 1.86l-.92.94a60.985 60.985 0 0 1-1.8-1.72c-.494-.507-.94-.973-1.34-1.4-.294-.307-.56-.6-.8-.88s-.387-.487-.44-.62h-.02a1.296 1.296 0 0 1-.2.36 4.6 4.6 0 0 1-.36.48c-.134.173-.28.353-.44.54l-.46.5c-.134.147-.314.34-.54.58l-.76.76c-.267.267-.56.553-.88.86-.307.293-.607.567-.9.82l-.94-.94c.64-.56 1.233-1.113 1.78-1.66a34.03 34.03 0 0 0 1.54-1.6c.32-.36.573-.68.76-.96.186-.293.326-.58.42-.86.106-.28.173-.567.2-.86.04-.293.06-.633.06-1.02v-2.96h-4.2v-1.24h9.76v1.24zm3.88 4.04h3.04v1.26h-3.04v10.04h-1.42v-18.28h1.42v6.98zm22.183 3.26v4.64h-9.8v2.26h10.28v1.2h-11.66v-4.64h9.8v-2.24h-9.9v-1.22h11.28zm-14.4-1.76c1.586-.613 2.833-1.133 3.74-1.56.92-.427 1.613-.84 2.08-1.24.466-.413.76-.847.88-1.3.12-.467.18-1.04.18-1.72v-.6h-6.28v-1.24h7.66v1.92c0 .573-.04 1.08-.12 1.52-.067.44-.207.847-.42 1.22-.2.373-.48.72-.84 1.04-.36.32-.827.64-1.4.96-.574.32-1.267.653-2.08 1-.814.347-1.774.733-2.88 1.16l-.52-1.16zm13.02-2.74v-2.26h-3.64v-1.22h3.64v-2.26h1.38v9.16h-1.38v-2.2h-3.94v-1.22h3.94zm18.003 1.22h2.9v1.26h-2.9v10.06h-1.42v-18.28h1.42v6.96zm-2.7 6.62c-.827.08-1.62.153-2.38.22a89.601 89.601 0 0 1-5.48.22c-1.107.013-2.427.02-3.96.02v-1.24h2.04c.64 0 1.247-.007 1.82-.02v-5.82h1.42v5.8a64.84 64.84 0 0 0 1.8-.06c.573-.027 1.12-.053 1.64-.08.52-.027 1.02-.06 1.5-.1l1.48-.16.12 1.22zm-1.78-11.82v2.22c0 .48-.013 1-.04 1.56-.013.56-.04 1.12-.08 1.68-.04.547-.093 1.067-.16 1.56-.053.48-.12.88-.2 1.2l-1.42-.18c.093-.4.167-.833.22-1.3a26.08 26.08 0 0 0 .24-2.88c.013-.48.02-.933.02-1.36v-1.24h-7.7v-1.26h9.12zm23.003 9.36c-.627.08-1.313.147-2.06.2-.733.053-1.573.1-2.52.14-.947.04-2.02.073-3.22.1-1.2.013-2.56.02-4.08.02v-1.24h2.72c.813 0 1.573-.007 2.28-.02v-1.4c-1.16-.08-2.027-.353-2.6-.82-.56-.467-.84-1.013-.84-1.64v-.48c0-.693.34-1.28 1.02-1.76.68-.48 1.713-.72 3.1-.72s2.42.247 3.1.74c.68.48 1.02 1.06 1.02 1.74v.48c0 .64-.28 1.187-.84 1.64-.56.453-1.413.727-2.56.82v1.36a76.879 76.879 0 0 0 2.96-.12c.84-.067 1.64-.14 2.4-.22l.12 1.18zm-9.4 1.94h11.98v5.4h-1.38v-4.16h-10.6v-1.24zm11.98-7.2h2.74v1.26h-2.74v4.86h-1.4v-11.98h1.4v5.86zm-9.48-4.36v-1.74h1.4v1.74h4.3v1.2h-10v-1.2h4.3zm.7 3.16c-.947 0-1.647.14-2.1.42-.453.28-.68.6-.68.96v.36c0 .36.227.68.68.96.453.28 1.153.42 2.1.42.947 0 1.647-.14 2.1-.42.453-.28.68-.6.68-.96v-.36c0-.36-.227-.68-.68-.96-.453-.28-1.153-.42-2.1-.42zm16.843 12.16h10.22v1.24h-11.64v-5.98h1.42v4.74zm9.76-3.74h-1.4v-13.08h1.4v13.08zm-9.76-3.04c-.68 0-1.3-.113-1.86-.34a4.673 4.673 0 0 1-1.42-.92 4.288 4.288 0 0 1-.9-1.3 3.57 3.57 0 0 1-.32-1.46v-1.2c0-.493.107-.98.32-1.46.213-.48.513-.907.9-1.28a4.22 4.22 0 0 1 1.42-.92c.56-.24 1.18-.36 1.86-.36.68 0 1.3.12 1.86.36a4.22 4.22 0 0 1 1.42.92c.387.373.687.8.9 1.28.213.48.32.967.32 1.46v1.2c0 .493-.107.98-.32 1.46-.213.48-.513.913-.9 1.3-.387.373-.86.68-1.42.92-.56.227-1.18.34-1.86.34zm0-7.98c-.467 0-.893.08-1.28.24-.387.16-.72.373-1 .64a3.16 3.16 0 0 0-.64.92c-.147.347-.22.707-.22 1.08v.96c0 .373.073.733.22 1.08.16.347.373.653.64.92.28.267.613.48 1 .64.387.16.813.24 1.28.24.467 0 .893-.08 1.28-.24a2.97 2.97 0 0 0 .98-.64c.28-.267.493-.573.64-.92.16-.347.24-.707.24-1.08v-.96c0-.373-.08-.733-.24-1.08a2.732 2.732 0 0 0-.64-.92 2.97 2.97 0 0 0-.98-.64 3.316 3.316 0 0 0-1.28-.24z" fill="#000"/>
    <rect x="637" y="486" width="100" height="100" rx="12" fill="#F9F9F9"/>
    <path d="M698.571 560.991h-22.327l3.848-11.12h14.617l3.862 11.12z" stroke="#5CBBBB" stroke-width="2" stroke-miterlimit="10" stroke-linecap="round" stroke-linejoin="round"/>
    <path d="M716.808 511H658v38.87h58.808V511zM658 539.379h58.808" stroke="#696969" stroke-width="2" stroke-miterlimit="10" stroke-linecap="round" stroke-linejoin="round"/>
    <path d="M671.75 560.992h31.314M668.309 521.367h21.372M668.309 528.76h28.94" stroke="#5CBBBB" stroke-width="2" stroke-miterlimit="10" stroke-linecap="round" stroke-linejoin="round"/>
    <path d="M656.352 613.26h3.06v1.26h-3.06v10.2h-1.42v-18.28h1.42v6.82zm-10.96 2.62c.32-.36.574-.687.76-.98.187-.293.334-.58.44-.86.107-.293.174-.593.2-.9.04-.307.06-.66.06-1.06v-4.3h1.46v4.2c0 .387.014.727.04 1.02.027.28.08.553.16.82.08.253.2.507.36.76.16.253.374.533.64.84.4.467.887.993 1.46 1.58.587.587 1.26 1.22 2.02 1.9l-.92.96c-.64-.6-1.233-1.167-1.78-1.7-.533-.547-1-1.033-1.4-1.46-.306-.32-.586-.627-.84-.92-.24-.293-.386-.507-.44-.64h-.02c-.013.067-.066.173-.16.32a6.323 6.323 0 0 1-.36.46c-.133.173-.28.36-.44.56-.16.187-.313.36-.46.52-.173.187-.386.407-.64.66a52.7 52.7 0 0 1-1.66 1.66 22.99 22.99 0 0 1-.9.82l-.94-.98a48.176 48.176 0 0 0 1.82-1.68 24.273 24.273 0 0 0 1.54-1.6zm29.083 8.84h-1.42v-18.28h1.42v18.28zm-5.04-9.8c0 1.68-.4 2.987-1.2 3.92-.786.933-1.893 1.4-3.32 1.4-1.426 0-2.54-.467-3.34-1.4-.786-.933-1.18-2.24-1.18-3.92v-1.9c0-1.68.394-2.98 1.18-3.9.8-.933 1.914-1.4 3.34-1.4 1.427 0 2.534.467 3.32 1.4.8.933 1.2 2.24 1.2 3.92v1.88zm-1.38-1.64c0-.76-.08-1.407-.24-1.94-.146-.533-.36-.967-.64-1.3a2.351 2.351 0 0 0-.98-.76 3.313 3.313 0 0 0-1.28-.24c-.466 0-.893.08-1.28.24-.386.16-.72.413-1 .76-.266.333-.48.767-.64 1.3-.146.533-.22 1.18-.22 1.94v1.4c0 .76.074 1.413.22 1.96.16.533.374.973.64 1.32.28.333.614.58 1 .74.387.16.814.24 1.28.24.467 0 .894-.08 1.28-.24.387-.16.714-.407.98-.74.28-.347.494-.787.64-1.32.16-.547.24-1.2.24-1.96v-1.4zm23.103 4.14h-12.1v-9.48h11.94v1.2h-10.56v2.94h10.46v1.2h-10.46v2.94h10.72v1.2zm2.24 3.5v1.22h-16.8v-1.22h16.8zm13.424-3.2c.746 0 1.446.08 2.1.24.666.147 1.246.367 1.74.66.493.28.88.633 1.16 1.06.293.413.44.88.44 1.4v.76c0 .52-.147.987-.44 1.4-.28.427-.667.78-1.16 1.06-.494.293-1.074.513-1.74.66-.654.16-1.354.24-2.1.24-.747 0-1.454-.08-2.12-.24a5.86 5.86 0 0 1-1.72-.66 3.485 3.485 0 0 1-1.18-1.06c-.28-.413-.42-.88-.42-1.4v-.76c0-.533.14-1.007.42-1.42.293-.427.686-.78 1.18-1.06a5.86 5.86 0 0 1 1.72-.66 9.82 9.82 0 0 1 2.12-.22zm.16-1.76h-8.24v-8.64h1.36v3.18h5.52v-3.18h1.36v8.64zm-.16 8.04c.533 0 1.046-.053 1.54-.16a4.95 4.95 0 0 0 1.3-.42c.373-.187.673-.42.9-.7.226-.267.34-.58.34-.94v-.64c0-.36-.114-.673-.34-.94a2.685 2.685 0 0 0-.9-.7 4.95 4.95 0 0 0-1.3-.42 7.254 7.254 0 0 0-1.54-.16 7.24 7.24 0 0 0-1.54.16 4.925 4.925 0 0 0-1.3.42c-.374.187-.674.42-.9.7-.227.267-.34.58-.34.94v.64c0 .36.113.673.34.94.226.28.526.513.9.7.373.187.806.327 1.3.42a7.24 7.24 0 0 0 1.54.16zm5.34-13.12h2.8v1.24h-2.8v5.2h-1.4v-10.88h1.4v4.44zm-12.06 3.86h5.52v-3.02h-5.52v3.02zm29.183-7.5v6.44h-11.76v-6.44h11.76zm-10.38 5.22h9v-4.02h-9v4.02zm12.9 3.3v1.2h-7.5v3.86h-1.4v-3.86h-7.9v-1.2h16.8zm-12.9 7.5h10.8v1.24h-12.22v-5.44h1.42v4.2z" fill="#000"/>
    <rect x="437" y="486" width="100" height="100" rx="12" fill="#F9F9F9"/>
    <path d="M503.107 562.181c7.788 0 14.102-6.314 14.102-14.102 0-7.789-6.314-14.102-14.102-14.102s-14.102 6.313-14.102 14.102c0 7.788 6.314 14.102 14.102 14.102z" stroke="#696969" stroke-width="2" stroke-miterlimit="10" stroke-linecap="round" stroke-linejoin="round"/>
    <path d="M495.455 548.078h15.293M484.32 539.571l-15.588-15.589-9.757 9.757c-4.3 4.3-4.3 11.289 0 15.589 4.3 4.299 11.288 4.299 15.588 0l9.757-9.757z" stroke="#5CBBBB" stroke-width="2" stroke-miterlimit="10" stroke-linecap="round" stroke-linejoin="round"/>
    <path d="m484.32 539.57-15.589-15.588 9.757-9.757c4.3-4.3 11.289-4.3 15.589 0 4.299 4.3 4.299 11.288 0 15.588l-9.757 9.757z" stroke="#696969" stroke-width="2" stroke-miterlimit="10" stroke-linecap="round" stroke-linejoin="round"/>
    <path d="M451.334 608.24h7.98v1.24h-3.22v2.72c0 .467.013.867.04 1.2.04.333.1.64.18.92.093.28.22.553.38.82.16.253.366.54.62.86.333.413.733.88 1.2 1.4.466.507.98 1.04 1.54 1.6l-.92.9a17.1 17.1 0 0 1-.7-.7c-.227-.267-.46-.527-.7-.78-.227-.253-.447-.5-.66-.74-.2-.24-.387-.453-.56-.64a11.57 11.57 0 0 1-.74-.92c-.187-.293-.3-.493-.34-.6h-.02c-.027.107-.127.293-.3.56a7.37 7.37 0 0 1-.7.94c-.374.427-.794.9-1.26 1.42a46.924 46.924 0 0 1-1.66 1.7l-.94-.94c.293-.28.586-.567.88-.86.293-.293.566-.58.82-.86.266-.28.506-.54.72-.78.226-.253.413-.48.56-.68.24-.307.433-.593.58-.86.16-.267.28-.547.36-.84.08-.293.133-.607.16-.94.04-.347.06-.74.06-1.18v-2.72h-3.36v-1.24zm10.24 4.38v-5.8h1.4v17h-1.4v-9.92h-3.24v-1.28h3.24zm4.96 12.1h-1.4v-18.28h1.4v18.28zm3.923-6.08h5.24v-2.4h-7.7v-1.2h16.8v1.2h-7.7v2.4h5.24v6.04h-11.88v-6.04zm12.36-11.46v1.16h-2.62v3.84h2.7v1.16h-13v-1.16h2.7v-3.84h-2.62v-1.16h12.84zm-11 16.24h9.16v-3.54h-9.16v3.54zm2.18-11.24h4.8v-3.84h-4.8v3.84zm27.323 3.84c.2-.907.353-1.867.46-2.88.107-1.027.16-1.98.16-2.86v-1.42H491.4v-1.22h11.98v2.18c0 1.067-.053 2.14-.16 3.22a30.048 30.048 0 0 1-.44 2.98H506v1.22h-7.7v7.48h-1.42v-7.48h-7.68v-1.22h12.12zm13.143-7.82v11.58h-7.18V608.2h7.18zm3.62 4.94h2.66v-6.7h1.4v18.28h-1.4V614.4h-2.66v9.42h-1.4v-17h1.4v6.32zm-5-3.68h-4.42v9.06h4.42v-9.06z" fill="#000"/>
    <rect x="237" y="486" width="100" height="100" rx="12" fill="#F9F9F9"/>
    <path d="M319.18 514.75h-40.019v35.836h40.019V514.75z" stroke="#696969" stroke-width="2" stroke-miterlimit="10" stroke-linecap="round" stroke-linejoin="round"/>
    <path d="M299.178 557.638a7.051 7.051 0 1 0 0-14.103 7.051 7.051 0 0 0 0 14.103z" fill="#F3F3F3" stroke="#5CBBBB" stroke-width="2" stroke-miterlimit="10" stroke-linecap="round" stroke-linejoin="round"/>
    <path d="M271.913 535.655H254.5l6.613-9.796h10.8v9.796z" stroke="#5CBBBB" stroke-width="2" stroke-miterlimit="10" stroke-linecap="round" stroke-linejoin="round"/>
    <path d="M279.165 550.585H254.5V535.69l10.587-15.723h14.078v30.618z" stroke="#696969" stroke-width="2" stroke-miterlimit="10" stroke-linecap="round" stroke-linejoin="round"/>
    <path d="M266.826 557.638a7.05 7.05 0 0 0 7.05-7.052 7.05 7.05 0 1 0-14.101 0 7.051 7.051 0 0 0 7.051 7.052z" fill="#F3F3F3" stroke="#5CBBBB" stroke-width="2" stroke-miterlimit="10" stroke-linecap="round" stroke-linejoin="round"/>
    <path d="M260.554 617.64c.746 0 1.453.08 2.12.24.68.147 1.273.367 1.78.66a3.64 3.64 0 0 1 1.2 1.08c.293.413.44.88.44 1.4v.78c0 .52-.147.987-.44 1.4a3.64 3.64 0 0 1-1.2 1.08 6.53 6.53 0 0 1-1.78.68c-.667.16-1.374.24-2.12.24-.747 0-1.46-.08-2.14-.24a6.54 6.54 0 0 1-1.76-.68 3.62 3.62 0 0 1-1.2-1.08 2.355 2.355 0 0 1-.44-1.4v-.78c0-.533.146-1.007.44-1.42a3.62 3.62 0 0 1 1.2-1.08 6.122 6.122 0 0 1 1.76-.66c.68-.147 1.393-.22 2.14-.22zm0 6.36c.533 0 1.046-.053 1.54-.16.506-.093.953-.24 1.34-.44.4-.187.713-.42.94-.7.24-.267.36-.58.36-.94v-.68c0-.36-.12-.673-.36-.94-.227-.28-.54-.513-.94-.7a4.795 4.795 0 0 0-1.34-.44 7.254 7.254 0 0 0-1.54-.16 7.52 7.52 0 0 0-1.56.16c-.494.093-.94.24-1.34.44-.387.187-.7.42-.94.7-.227.267-.34.58-.34.94v.68c0 .36.113.673.34.94.24.28.553.513.94.7.4.2.846.347 1.34.44a7.52 7.52 0 0 0 1.56.16zm-3.88-11.08c-.04.147-.207.373-.5.68-.28.307-.634.647-1.06 1.02-.174.16-.387.34-.64.54-.24.2-.5.407-.78.62-.267.213-.54.427-.82.64-.267.213-.514.4-.74.56l-.86-1c.6-.427 1.2-.873 1.8-1.34.6-.48 1.146-.96 1.64-1.44.24-.24.44-.467.6-.68.16-.213.28-.427.36-.64.093-.213.153-.433.18-.66.04-.24.06-.493.06-.76v-1.64h-4.12v-1.22h9.46v1.22h-3.92v1.58c0 .293.013.553.04.78.026.227.086.447.18.66.106.213.253.433.44.66.2.213.46.46.78.74.32.267.74.593 1.26.98s1.066.773 1.64 1.16l-.82 1c-.4-.28-.82-.58-1.26-.9l-1.1-.86a48.414 48.414 0 0 1-1.22-1.04c-.347-.307-.54-.527-.58-.66h-.02zm9.32 4.3h-1.4v-4.86h-3.82v-1.24h3.82v-4.68h1.4v10.78zm17.043 7.5h-1.42v-18.28h1.42v18.28zm-14.1-5.3c1.533-.88 2.753-1.633 3.66-2.26.907-.64 1.593-1.233 2.06-1.78.467-.56.767-1.12.9-1.68.147-.56.22-1.213.22-1.96v-2.3h-6.64v-1.28h8.02v3.6c0 .613-.033 1.167-.1 1.66-.067.493-.2.96-.4 1.4-.187.44-.453.867-.8 1.28-.347.413-.8.847-1.36 1.3-.547.453-1.22.94-2.02 1.46a71.915 71.915 0 0 1-2.8 1.7l-.74-1.14zm22.543-11.36v4.56h4.38v-4.56h1.38v11.76h-7.14v-11.76h1.38zm9.4 5.26h2.66v-6.88h1.4v18.28h-1.4v-10.14h-2.66v9.24h-1.4v-17h1.4v6.5zm-5.02 5.24v-4.68h-4.38v4.68h4.38zm18.943-.44c.747 0 1.46.067 2.14.2.693.133 1.3.34 1.82.62.52.267.933.6 1.24 1 .32.4.48.86.48 1.38v.68c0 .52-.16.98-.48 1.38-.307.4-.72.733-1.24 1-.52.28-1.127.487-1.82.62-.68.133-1.393.2-2.14.2-.747 0-1.467-.067-2.16-.2a6.348 6.348 0 0 1-1.8-.62c-.52-.267-.94-.6-1.26-1-.307-.4-.46-.86-.46-1.38v-.68c0-.533.153-1 .46-1.4.32-.4.74-.733 1.26-1a6.773 6.773 0 0 1 1.8-.6c.693-.133 1.413-.2 2.16-.2zm0 5.88a8.96 8.96 0 0 0 1.58-.14c.52-.093.98-.227 1.38-.4.413-.173.74-.393.98-.66a1.21 1.21 0 0 0 .38-.88v-.52a1.21 1.21 0 0 0-.38-.88c-.24-.267-.567-.487-.98-.66-.4-.173-.86-.307-1.38-.4a9.068 9.068 0 0 0-3.18 0 6.691 6.691 0 0 0-1.38.4c-.4.173-.727.393-.98.66a1.24 1.24 0 0 0-.36.88v.52c0 .333.12.627.36.88.253.267.58.487.98.66.413.173.873.307 1.38.4.52.093 1.053.14 1.6.14zm.7-8.52h7.7v1.2h-16.8v-1.2h7.7v-2.62h1.4v2.62zm5.86-1.76a46.17 46.17 0 0 1-2.16-.88c-.72-.32-1.333-.6-1.84-.84-.853-.4-1.473-.733-1.86-1s-.613-.493-.68-.68h-.02c-.067.2-.293.433-.68.7-.387.267-1.007.6-1.86 1-.507.24-1.12.52-1.84.84-.72.32-1.433.613-2.14.88l-.58-1.14c.907-.347 1.72-.673 2.44-.98.72-.307 1.32-.58 1.8-.82.453-.213.82-.413 1.1-.6.28-.2.5-.4.66-.6.16-.213.267-.44.32-.68a4.44 4.44 0 0 0 .08-.9v-1.34h1.42v1.34c0 .347.027.647.08.9.053.24.153.467.3.68.16.2.38.4.66.6.28.187.647.387 1.1.6.48.24 1.08.513 1.8.82.733.307 1.547.633 2.44.98l-.54 1.12z" fill="#000"/>
    <rect x="1103" y="170" width="100" height="100" rx="12" fill="#F9F9F9"/>
    <path d="M1174.78 255.254s-1.52-8.674-.41-15.976c2.17-14.321 7.63-11.022 8.2-27.362.49-14.861-12.15-26.916-27.13-26.916-14.98 0-27.12 12.044-27.12 26.904l1.62 7.525-6.94 12.677h7.98l.42 10.142s-.22 6.48 16.16 4.132v8.264" stroke="#696969" stroke-width="2" stroke-miterlimit="10" stroke-linecap="round" stroke-linejoin="round"/>
    <path d="M1155.07 215.813c2.63 0 4.77-2.118 4.77-4.731 0-2.612-2.14-4.73-4.77-4.73-2.63 0-4.77 2.118-4.77 4.73 0 2.613 2.14 4.731 4.77 4.731zM1159.79 197.173c1.49 0 2.7-1.198 2.7-2.676 0-1.478-1.21-2.677-2.7-2.677-1.49 0-2.7 1.199-2.7 2.677s1.21 2.676 2.7 2.676zM1173.32 210.612c1.49 0 2.7-1.198 2.7-2.676 0-1.478-1.21-2.676-2.7-2.676a2.68 2.68 0 0 0-2.69 2.676 2.68 2.68 0 0 0 2.69 2.676zM1140.28 204.321c1.49 0 2.7-1.198 2.7-2.676 0-1.478-1.21-2.676-2.7-2.676-1.49 0-2.7 1.198-2.7 2.676 0 1.478 1.21 2.676 2.7 2.676zM1164.51 225.286c1.49 0 2.7-1.198 2.7-2.676 0-1.478-1.21-2.676-2.7-2.676-1.49 0-2.7 1.198-2.7 2.676 0 1.478 1.21 2.676 2.7 2.676zM1143.26 219.616c1.49 0 2.7-1.198 2.7-2.676 0-1.478-1.21-2.676-2.7-2.676-1.49 0-2.7 1.198-2.7 2.676 0 1.478 1.21 2.676 2.7 2.676zM1156.48 206.082l2.35-8.135M1150.88 208.184l-8.07-4.813M1160.32 210.401l10.2-1.725M1158.11 214.803l4.57 5.704M1150.5 213.662l-4.94 1.902" stroke="#5CBBBB" stroke-width="2" stroke-miterlimit="10" stroke-linecap="round" stroke-linejoin="round"/>
    <path d="M1120.87 308.52h-1.5l-1.6-4.48h-6.1l-1.64 4.48h-1.44l5.36-14.42h1.58l5.34 14.42zm-8.76-5.7h5.22l-1.4-3.9c-.09-.24-.18-.473-.26-.7-.08-.227-.17-.473-.26-.74-.09-.28-.19-.587-.3-.92-.11-.347-.23-.753-.38-1.22-.13.467-.25.873-.36 1.22-.11.333-.21.64-.3.92-.09.267-.18.513-.26.74-.08.227-.17.46-.26.7l-1.44 3.9zm9.86-8.72h1.4v14.42h-1.4V294.1zm11.77 6.88c-.65 0-1.25-.1-1.8-.3a4.48 4.48 0 0 1-1.4-.8c-.39-.333-.69-.72-.92-1.16-.21-.44-.32-.9-.32-1.38v-.88c0-.48.11-.94.32-1.38.23-.44.53-.827.92-1.16.39-.333.85-.6 1.4-.8.55-.2 1.15-.3 1.8-.3.65 0 1.25.1 1.8.3.55.2 1.01.467 1.4.8.39.333.69.72.9 1.16.23.44.34.9.34 1.38v.88c0 .48-.11.94-.34 1.38-.21.44-.51.827-.9 1.16-.39.333-.85.6-1.4.8-.55.2-1.15.3-1.8.3zm9.36 1.58v4.7h-9.64v2.32h10.12v1.2h-11.5v-4.7h9.64v-2.3h-9.74v-1.22h11.12zm-9.36-8.48c-.45 0-.87.067-1.24.2s-.7.313-.98.54a2.6 2.6 0 0 0-.64.8c-.15.307-.22.627-.22.96v.64c0 .347.07.673.22.98.16.293.37.553.64.78.27.227.59.407.96.54.39.133.81.2 1.26.2.45 0 .87-.067 1.24-.2.39-.133.71-.313.98-.54.27-.227.47-.487.62-.78.16-.307.24-.633.24-.98v-.64c0-.333-.08-.653-.24-.96a2.338 2.338 0 0 0-.64-.8 3.11 3.11 0 0 0-.96-.54c-.37-.133-.79-.2-1.24-.2zm9.36 2.1h2.8v1.24h-2.8v4.06h-1.4v-9.04h1.4v3.74zm9.22 10.74v-7.02h1.44v7.02h8.98v1.22h-16.8v-1.22h6.38zm5.72-2.52c.12-.613.22-1.213.3-1.8.1-.6.17-1.193.22-1.78.07-.6.12-1.207.14-1.82.04-.627.06-1.273.06-1.94v-1.66h-10.7v-1.24h12.16v2.16c0 .84-.01 1.627-.04 2.36-.02.72-.07 1.413-.14 2.08a23.66 23.66 0 0 1-.22 1.92c-.08.627-.18 1.26-.3 1.9l-1.48-.18zm20.19 6.32h-1.42v-18.28h1.42v18.28zm-12.28-5.8h2.74c1.01 0 2.04-.027 3.08-.08 1.05-.067 2.04-.173 2.98-.32l.16 1.22c-1.07.173-2.16.293-3.28.36-1.11.053-2.21.08-3.3.08h-3.78v-7h6.62v-4.02h-6.62v-1.24h8.02v6.5h-6.62v4.5zm16.86-.44h11.88v6.2h-11.88v-6.2zm5.92-7.54c-.11.227-.37.46-.8.7-.43.24-.95.493-1.58.76-.57.24-1.19.487-1.84.74-.64.24-1.37.493-2.2.76l-.56-1.1c1.81-.6 3.21-1.113 4.18-1.54.41-.173.75-.34 1.02-.5.27-.173.48-.347.64-.52.16-.187.27-.38.34-.58.07-.213.1-.453.1-.72v-.52h-5.48v-1.2h12.4v1.2h-5.5v.52c0 .267.03.507.08.72.07.2.18.393.34.58.16.173.37.347.64.52.27.16.61.327 1.02.5.49.213 1.1.453 1.82.72.73.267 1.52.533 2.36.8l-.52 1.1a53.26 53.26 0 0 1-2.26-.78c-.68-.253-1.28-.493-1.8-.72-.63-.253-1.15-.5-1.58-.74-.43-.253-.69-.487-.8-.7h-.02zm-4.56 12.48h9.16v-3.68h-9.16v3.68zm12.98-8.26v1.22h-16.8v-1.22h16.8zm-96.4 26.44c.75 0 1.45.08 2.12.24.68.16 1.27.387 1.78.68.51.293.91.653 1.2 1.08.29.413.44.88.44 1.4v.78c0 .52-.15.993-.44 1.42-.29.427-.69.787-1.2 1.08-.51.293-1.1.52-1.78.68-.67.16-1.37.24-2.12.24s-1.46-.08-2.14-.24a6.554 6.554 0 0 1-1.76-.68c-.51-.293-.91-.653-1.2-1.08-.29-.427-.44-.9-.44-1.42V331c0-.533.15-1.013.44-1.44.29-.427.69-.78 1.2-1.06a6.133 6.133 0 0 1 1.76-.66c.68-.16 1.39-.24 2.14-.24zm-4.64-1.54c-.71 0-1.34-.113-1.9-.34-.55-.24-1.01-.54-1.4-.9a4.13 4.13 0 0 1-.86-1.24c-.2-.467-.3-.927-.3-1.38v-1.16c0-.453.1-.907.3-1.36.2-.467.49-.88.86-1.24.39-.373.85-.673 1.4-.9.56-.24 1.19-.36 1.9-.36s1.33.12 1.88.36c.56.227 1.03.527 1.4.9.39.36.68.773.88 1.24.2.453.3.907.3 1.36v1.16c0 .453-.1.913-.3 1.38-.2.453-.49.867-.88 1.24-.37.36-.84.66-1.4.9-.55.227-1.17.34-1.88.34zm4.64 7.94c.53 0 1.05-.053 1.54-.16.51-.093.95-.24 1.34-.44.4-.187.71-.42.94-.7.24-.28.36-.6.36-.96v-.68c0-.36-.12-.68-.36-.96-.23-.28-.54-.513-.94-.7-.39-.2-.83-.347-1.34-.44a7.577 7.577 0 0 0-3.1 0c-.49.093-.94.24-1.34.44-.39.187-.7.42-.94.7-.23.28-.34.6-.34.96v.68c0 .36.11.68.34.96.24.28.55.513.94.7.4.2.85.347 1.34.44.51.107 1.03.16 1.56.16zm-4.64-15.56c-.45 0-.87.073-1.26.22-.37.133-.7.32-.98.56-.27.24-.48.527-.64.86-.15.333-.22.693-.22 1.08v.92c0 .387.07.747.22 1.08.16.333.37.62.64.86.28.24.61.433.98.58.39.133.81.2 1.26.2.45 0 .87-.067 1.24-.2.39-.147.71-.34.98-.58.28-.24.49-.527.64-.86.16-.333.24-.693.24-1.08v-.92c0-.387-.08-.747-.24-1.08-.15-.333-.36-.62-.64-.86-.27-.24-.59-.427-.98-.56-.37-.147-.79-.22-1.24-.22zm8.7.5v-2.5h1.38v10.76h-1.38v-2.88h-3.28v-1.22h3.28v-2.94h-3.28v-1.22h3.28zm12.16 8.66c.75 0 1.45.08 2.1.24.67.16 1.25.387 1.74.68.5.293.88.653 1.16 1.08.3.427.44.9.44 1.42v.76c0 .52-.14.993-.44 1.42a3.42 3.42 0 0 1-1.16 1.08c-.49.293-1.07.52-1.74.68-.65.16-1.35.24-2.1.24-.74 0-1.45-.08-2.12-.24a6.401 6.401 0 0 1-1.72-.68 3.796 3.796 0 0 1-1.18-1.08c-.28-.427-.42-.9-.42-1.42v-.76c0-.533.14-1.013.42-1.44.3-.427.69-.787 1.18-1.08.5-.293 1.07-.513 1.72-.66.67-.16 1.38-.24 2.12-.24zm-4.02-1.54c-.7 0-1.33-.113-1.88-.34-.54-.24-1.01-.54-1.4-.9a4.13 4.13 0 0 1-.86-1.24c-.2-.467-.3-.927-.3-1.38v-1.16c0-.453.1-.907.3-1.36.2-.467.49-.88.86-1.24.39-.373.86-.673 1.4-.9.55-.24 1.18-.36 1.88-.36.71 0 1.34.12 1.88.36.55.227 1.01.527 1.38.9.39.36.68.773.88 1.24.2.453.3.907.3 1.36v1.16c0 .453-.1.913-.3 1.38-.2.453-.49.867-.88 1.24-.37.36-.83.66-1.38.9-.54.227-1.17.34-1.88.34zm4.02 7.94c.54 0 1.05-.053 1.54-.16.5-.107.93-.26 1.3-.46.38-.187.68-.42.9-.7.23-.28.34-.6.34-.96v-.64c0-.36-.11-.68-.34-.96-.22-.28-.52-.513-.9-.7-.37-.2-.8-.353-1.3-.46-.49-.107-1-.16-1.54-.16-.53 0-1.04.053-1.54.16-.49.107-.92.26-1.3.46-.37.187-.67.42-.9.7-.22.28-.34.6-.34.96v.64c0 .36.12.68.34.96.23.28.53.513.9.7.38.2.81.353 1.3.46.5.107 1.01.16 1.54.16zm-4.02-15.56c-.45 0-.86.073-1.24.22-.37.133-.7.32-.98.56-.26.24-.48.527-.64.86-.14.333-.22.693-.22 1.08v.92c0 .387.08.747.22 1.08.16.333.38.62.64.86.28.24.61.433.98.58.38.133.79.2 1.24.2.46 0 .87-.067 1.24-.2.38-.147.7-.34.96-.58.28-.24.5-.527.64-.86.16-.333.24-.693.24-1.08v-.92c0-.387-.08-.747-.24-1.08-.14-.333-.36-.62-.64-.86-.26-.24-.58-.427-.96-.56a3.32 3.32 0 0 0-1.24-.22zm9.36.76h2.8v1.24h-2.8v2.46h2.8v1.24h-2.8v3.06h-1.38v-10.76h1.38v2.76zm11.49 3.48c-.08.2-.32.473-.7.82-.38.333-.92.74-1.64 1.22-.6.4-1.29.833-2.06 1.3-.76.453-1.5.873-2.22 1.26l-.76-1.12c.88-.453 1.68-.893 2.42-1.32.73-.44 1.33-.82 1.8-1.14.49-.333.9-.633 1.22-.9.32-.267.56-.547.74-.84.18-.307.31-.64.38-1 .06-.373.1-.833.1-1.38v-1.94h1.46v1.94c0 .547.03 1.007.1 1.38.06.36.18.693.36 1 .18.293.43.573.74.84.32.267.72.567 1.22.9.46.32 1.06.693 1.78 1.12.73.427 1.53.867 2.4 1.32l-.74 1.1c-.72-.387-1.46-.807-2.22-1.26-.75-.453-1.42-.88-2.02-1.28-.72-.48-1.27-.887-1.64-1.22-.38-.333-.61-.6-.7-.8h-.02zm-.74 8.24v-4.22h1.46v4.22h7.68v1.22h-16.8v-1.22h7.66zm22.6-5.74h-8.16v-7.7h8.16v7.7zm-.12 6.26c-.15.28-.43.567-.84.86-.4.293-.92.593-1.56.9-.59.28-1.17.547-1.76.8-.57.267-1.16.52-1.76.76l-.52-1.08c.64-.24 1.26-.5 1.86-.78a60.2 60.2 0 0 0 1.76-.8c.77-.373 1.32-.753 1.64-1.14.32-.387.48-.84.48-1.36v-.78h-5.18v-1.22h11.68v1.22h-5.12v.78c0 .52.15.973.46 1.36.32.387.87.767 1.66 1.14.56.267 1.14.533 1.74.8.61.28 1.24.54 1.88.78l-.52 1.08c-.6-.24-1.19-.493-1.78-.76-.57-.253-1.15-.52-1.74-.8-1.25-.613-2.05-1.2-2.38-1.76zm-1.24-12.72h-5.44v5.22h5.44v-5.22zm6.66 1.9h2.8v1.24h-2.8v4.66h-1.4v-10.08h1.4v4.18zm5.3 8.06h5.24v-2.32h-7.7v-1.2h16.8v1.2h-7.7v2.32h5.24v6.02h-11.88v-6.02zm5.92-7.22c-.11.187-.31.38-.62.58-.31.2-.83.44-1.56.72-.48.187-1.07.393-1.78.62-.69.227-1.54.493-2.54.8l-.5-1.14c.92-.267 1.75-.513 2.5-.74.75-.24 1.35-.453 1.82-.64.41-.16.75-.313 1-.46.27-.16.47-.32.62-.48.15-.173.24-.353.28-.54.05-.2.08-.427.08-.68v-.22h-5.54v-1.2h5.54v-1.9h1.42v1.9h5.56v1.2h-5.56v.22c0 .253.02.48.06.68.04.187.13.36.26.52.15.16.34.32.58.48.25.147.59.3 1.02.46.47.187 1.07.4 1.8.64.73.227 1.59.473 2.56.74l-.5 1.12c-1.03-.307-1.89-.567-2.58-.78-.68-.227-1.25-.433-1.72-.62-.39-.147-.71-.28-.96-.4-.24-.12-.44-.227-.6-.32-.16-.107-.29-.2-.38-.28a2.986 2.986 0 0 1-.24-.28h-.02zm-4.56 11.98h9.16v-3.52h-9.16v3.52zm27.68-9.52h-11.8v-6.96h1.38v2.28h9.04v-2.28h1.38v6.96zm2.5 2.12v1.2h-7.5v3.68h-1.4v-3.68h-7.9v-1.2h16.8zm-12.9 7.22h10.8v1.24h-12.22v-5.2h1.42v3.96zm-.02-10.56h9.04v-2.28h-9.04v2.28zm18.91-.26c-.03.173-.19.413-.48.72-.28.293-.64.653-1.08 1.08-.35.333-.8.733-1.34 1.2-.54.453-1.08.9-1.64 1.34l-.88-1.02c.54-.4 1.1-.84 1.68-1.32.58-.493 1.1-.967 1.56-1.42.32-.32.56-.6.74-.84.18-.24.32-.473.42-.7.1-.24.17-.493.2-.76.02-.28.04-.607.04-.98v-2.54h1.44v2.5c0 .373.01.693.04.96.02.253.08.493.18.72.1.227.25.46.44.7.2.227.46.487.8.78.49.427.99.847 1.5 1.26.5.4.98.76 1.42 1.08l-.84.98c-.54-.4-1.02-.773-1.46-1.12-.43-.36-.82-.687-1.16-.98-.95-.8-1.47-1.347-1.56-1.64h-.02zm-2.22 5.68h11.76v6.74h-1.4v-5.5h-10.36v-1.24zm10.36-7.62v-4.06h1.4v10.6h-1.4v-5.3h-4.12v-1.24h4.12z" fill="#000"/>
</svg>
