<svg width="100%" height="100%" viewBox="0 0 162 30" fill="none" xmlns="http://www.w3.org/2000/svg">
<path d="M10.8009 20.1522L11.5757 18.2926C12.6739 15.6531 13.6835 12.9757 14.8889 10.3822C16.2797 7.38287 18.8492 5.8152 22.1377 5.39929C23.6666 5.19933 25.2284 5.23533 26.7779 5.24132C28.1337 5.24132 29.2505 6.46307 29.2505 7.82478C29.254 8.47935 28.9976 9.11008 28.5345 9.58597C28.0713 10.0619 27.4371 10.3463 26.7635 10.3802C25.5272 10.4242 24.2744 10.4062 23.0361 10.5042C21.3259 10.6422 20.1514 11.49 19.5023 13.0877C17.4418 18.1746 15.3319 23.2475 13.2343 28.3204C13.042 28.8143 12.6992 29.2396 12.2516 29.5397C11.804 29.8399 11.2729 30.0006 10.7288 30.0006C10.1848 30.0006 9.6536 29.8399 9.20602 29.5397C8.75844 29.2396 8.41565 28.8143 8.22326 28.3204C6.33311 23.7467 4.44983 19.1724 2.57342 14.5973C1.78906 12.6977 1.00676 10.7988 0.226528 8.90055C-0.360709 7.48085 0.226528 5.97917 1.60911 5.43129C3.05145 4.84941 4.59475 5.48327 5.19847 6.94696C6.93889 11.1621 8.67244 15.3805 10.3991 19.6023C10.4754 19.7862 10.5681 19.9662 10.6526 20.1482L10.8009 20.1522Z" fill="#ffffff"/>
<path d="M35.6837 16.6325C35.6837 14.7569 35.6713 12.8833 35.6837 11.0097C35.6837 10.5438 35.5662 10.3258 35.0449 10.3738C34.6333 10.4025 34.2202 10.4025 33.8086 10.3738C33.1349 10.3327 32.5025 10.0446 32.0396 9.56787C31.5766 9.09113 31.3178 8.46142 31.3154 7.80636C31.3154 6.46664 32.5023 5.2589 33.8663 5.22491C34.3175 5.21291 34.7709 5.20491 35.22 5.22491C35.5827 5.2449 35.694 5.10093 35.6857 4.765C35.6692 4.08315 35.6857 3.39929 35.6857 2.71744C35.7001 1.15377 36.8355 0.00400964 38.3643 1.04911e-05C39.8932 -0.00398866 41.043 1.13577 41.043 2.70544C41.043 3.3713 41.0656 4.03716 41.043 4.70501C41.0224 5.13292 41.1893 5.2349 41.6055 5.2329C43.872 5.21491 46.155 5.21891 48.4277 5.2329C49.7403 5.2329 50.7849 6.14671 51.0281 7.46843C51.1116 8.04523 50.9899 8.63243 50.6831 9.13304C50.3763 9.63366 49.9027 10.0177 49.3405 10.2218C48.9988 10.3307 48.641 10.384 48.2814 10.3798C46.0994 10.3938 43.9153 10.4038 41.7312 10.3798C41.1666 10.3798 41.0368 10.5558 41.0409 11.0717C41.0615 14.5569 41.0409 18.0422 41.0512 21.5275C41.0512 23.427 41.8754 24.2789 43.8205 24.4308C44.4827 24.4896 45.097 24.7912 45.538 25.2742C45.9791 25.7572 46.2137 26.3852 46.1942 27.0303C46.1854 27.6774 45.9264 28.2977 45.4684 28.7681C45.0104 29.2385 44.3869 29.5247 43.7216 29.5698C39.9674 29.7997 36.2688 26.8283 35.799 23.2011C35.7499 22.9433 35.7168 22.6829 35.7001 22.4213C35.7001 20.4937 35.7001 18.5681 35.7001 16.6425L35.6837 16.6325Z" fill="#ffffff"/>
<path d="M28.82 20.897C28.82 22.8966 28.82 24.8962 28.82 26.8957C28.82 28.2695 27.9505 29.2952 26.6071 29.5492C25.9771 29.659 25.3274 29.5446 24.7774 29.2268C24.2274 28.9091 23.814 28.4094 23.6132 27.8195C23.51 27.5036 23.462 27.1731 23.471 26.8418C23.4628 22.9013 23.4628 18.9601 23.471 15.0183C23.471 13.5506 24.3612 12.5728 25.8406 12.3528C27.0769 12.1689 28.3132 12.9527 28.7253 14.2324C28.7948 14.4846 28.8253 14.7454 28.8159 15.0063C28.8242 16.9678 28.82 18.9294 28.82 20.897Z" fill="#ffffff"/>
<path d="M111.05 12.1518C110.704 9.31641 108.302 6.64498 105.396 6.15308C103.781 5.88314 102.1 5.97712 100.451 5.95312C100.18 5.9853 99.9257 6.09532 99.7198 6.26906C99.4533 6.46894 99.2579 6.74474 99.1611 7.05779C99.0643 7.37084 99.0709 7.70544 99.1799 8.01469C99.386 8.65055 99.9485 9.06047 100.748 9.08246C101.704 9.11046 102.664 9.08246 103.633 9.09446C105.473 9.11646 107.212 10.2662 107.634 11.9639C107.902 13.0496 107.852 14.2114 107.945 15.3391H107.795C107.78 15.3391 107.76 15.3591 107.749 15.3551C107.613 15.2891 107.475 15.2252 107.337 15.1552C106.291 14.5677 105.114 14.2332 103.906 14.18C102.698 14.1269 101.495 14.3565 100.398 14.8496C99.3007 15.3427 98.342 16.0847 97.6026 17.013C96.8632 17.9414 96.3649 19.0288 96.1496 20.1833C95.9344 21.3379 96.0087 22.5258 96.3661 23.6467C96.7235 24.7676 97.3536 25.7885 98.2032 26.6234C99.0528 27.4582 100.097 28.0823 101.247 28.4431C102.398 28.8039 103.621 28.8908 104.813 28.6963C108.685 28.0644 111.147 25.0811 111.147 21.2579C111.147 18.7004 111.147 16.141 111.147 13.5835C111.144 13.1048 111.112 12.6267 111.05 12.1518ZM103.427 25.631C101.123 25.553 99.2294 23.6314 99.3056 21.4318C99.3196 20.8794 99.4468 20.3352 99.6799 19.8311C99.9129 19.3269 100.247 18.8728 100.663 18.4953C101.079 18.1178 101.568 17.8245 102.102 17.6324C102.636 17.4404 103.204 17.3534 103.773 17.3767C106.12 17.4607 107.92 19.4323 107.832 21.8198C107.764 23.9253 105.699 25.7069 103.435 25.631H103.427Z" fill="#5B585B"/>
<path d="M103.53 29.1052C102.336 29.0927 101.16 28.8149 100.092 28.2932C99.0252 27.7715 98.0953 27.0197 97.3737 26.0954C96.6522 25.1711 96.1582 24.0987 95.9297 22.9605C95.7012 21.8223 95.7441 20.6485 96.0552 19.5289C96.3663 18.4093 96.9374 17.3736 97.7246 16.5013C98.5119 15.6289 99.4944 14.943 100.597 14.496C101.7 14.049 102.893 13.8529 104.086 13.9226C105.279 13.9923 106.439 14.3261 107.478 14.8982L107.596 14.9602C107.581 14.7363 107.573 14.5143 107.563 14.2963C107.557 13.536 107.476 12.7779 107.32 12.0328C106.945 10.5231 105.387 9.41338 103.611 9.39339C103.221 9.39339 102.83 9.39339 102.44 9.39339C101.88 9.39339 101.301 9.39339 100.73 9.38139C99.8236 9.35539 99.1293 8.87749 98.8758 8.10366C98.747 7.73476 98.7406 7.33598 98.8573 6.96334C98.9741 6.5907 99.2083 6.26293 99.5269 6.0261C99.7822 5.81506 100.098 5.68462 100.431 5.65218H100.448C100.872 5.65218 101.299 5.65218 101.723 5.65218C102.969 5.61583 104.215 5.68273 105.449 5.85214C108.443 6.35403 110.983 9.05146 111.356 12.1088C111.418 12.5971 111.449 13.0886 111.451 13.5805C111.451 15.5141 111.451 17.4457 111.451 19.3793V21.2549C111.451 25.3 108.863 28.3354 104.857 28.9892C104.419 29.0639 103.975 29.1027 103.53 29.1052ZM103.627 14.4923C103.143 14.4926 102.66 14.5395 102.185 14.6323C101.253 14.7965 100.364 15.1373 99.5674 15.6351C98.7712 16.1329 98.0839 16.7781 97.5446 17.5337C97.0053 18.2893 96.6247 19.1406 96.4244 20.039C96.2242 20.9374 96.2082 21.8652 96.3775 22.7696C96.7193 24.596 97.7948 26.2158 99.3673 27.2727C100.146 27.7961 101.023 28.1655 101.949 28.3598C102.875 28.5541 103.831 28.5696 104.763 28.4054C108.455 27.8055 110.839 25.0061 110.839 21.2629V19.3873C110.839 17.4537 110.839 15.5221 110.839 13.5885C110.837 13.1206 110.807 12.6532 110.748 12.1888C110.41 9.42338 108.039 6.90391 105.35 6.45401C104.151 6.28498 102.94 6.21807 101.73 6.25405C101.301 6.25405 100.87 6.25405 100.442 6.25405C100.24 6.28549 100.051 6.37062 99.8958 6.5C99.6816 6.6635 99.5254 6.88779 99.449 7.14158C99.3725 7.39538 99.3796 7.666 99.4692 7.9157C99.6423 8.44159 100.108 8.75552 100.751 8.77352C101.311 8.78951 101.886 8.78751 102.438 8.78551C102.832 8.78551 103.228 8.78551 103.619 8.78551C105.68 8.80951 107.478 10.1132 107.917 11.8849C108.084 12.6678 108.172 13.4648 108.179 14.2644C108.193 14.6083 108.21 14.9622 108.237 15.3061L108.261 15.6101L107.849 15.6341C107.809 15.6508 107.765 15.6594 107.721 15.6594C107.678 15.6594 107.634 15.6508 107.594 15.6341L107.538 15.6061C107.414 15.5481 107.291 15.4901 107.171 15.4241C106.092 14.8241 104.871 14.5051 103.627 14.4983V14.4923ZM103.578 25.9319H103.425C100.953 25.8479 98.9253 23.7863 99.0077 21.4288C99.0227 20.8368 99.1592 20.2535 99.409 19.7132C99.6589 19.1728 100.017 18.6862 100.463 18.2817C100.909 17.8772 101.433 17.563 102.005 17.3573C102.578 17.1516 103.187 17.0586 103.796 17.0838C106.335 17.1737 108.247 19.2633 108.152 21.8388C108.07 24.0523 105.952 25.9319 103.578 25.9319ZM103.448 25.332C105.552 25.412 107.464 23.7603 107.534 21.8168C107.618 19.5772 105.966 17.7616 103.774 17.6836C103.245 17.662 102.718 17.7426 102.222 17.9209C101.726 18.0992 101.272 18.3716 100.886 18.7221C100.5 19.0726 100.19 19.4943 99.9732 19.9624C99.7569 20.4306 99.6388 20.9359 99.6258 21.4488C99.5537 23.4804 101.305 25.26 103.448 25.332Z" fill="#5B585B"/>
<path d="M140.758 19.9611C145.497 19.6272 148.732 14.9922 147.296 10.6151C146.723 8.83634 145.47 7.33832 143.793 6.42928C142.117 5.52024 140.145 5.26932 138.284 5.72814C135.31 6.42 132.865 8.99545 132.731 11.9388C132.584 15.2041 132.601 18.4854 132.731 21.7528C132.844 24.7721 135.523 27.5915 138.613 28.0214C140.111 28.2314 141.652 28.1414 143.175 28.1554C143.427 28.1317 143.667 28.0364 143.863 27.8815C144.142 27.6885 144.349 27.4131 144.452 27.0966C144.556 26.78 144.551 26.4394 144.438 26.1258C144.331 25.8201 144.129 25.5539 143.86 25.3635C143.592 25.1732 143.269 25.0679 142.936 25.0621C142.003 25.0441 141.069 25.0741 140.138 25.0521C138.49 25.0121 137.253 24.2902 136.429 22.9185C135.656 21.6428 135.951 20.2471 135.895 18.7834C136.147 18.9014 136.285 18.9573 136.415 19.0293C137.733 19.7568 139.247 20.0815 140.758 19.9611ZM140.113 8.66152C142.425 8.66152 144.401 10.5411 144.389 12.7547C144.364 13.8322 143.906 14.8576 143.112 15.6113C142.318 16.365 141.252 16.787 140.141 16.787C139.03 16.787 137.964 16.365 137.17 15.6113C136.376 14.8576 135.918 13.8322 135.893 12.7547C135.908 11.6733 136.358 10.6403 137.146 9.87571C137.934 9.11116 138.999 8.6755 140.113 8.66152Z" fill="#5B585B"/>
<path d="M141.196 28.4639C140.317 28.476 139.438 28.4279 138.567 28.32C135.294 27.864 132.538 24.9207 132.418 21.7633C132.284 18.2181 132.286 14.9988 132.418 11.9254C132.556 8.92606 134.99 6.18664 138.208 5.4368C140.145 4.96374 142.195 5.22698 143.939 6.17262C145.682 7.11826 146.987 8.67481 147.587 10.5237C147.929 11.6033 148.017 12.7435 147.844 13.8604C147.671 14.9772 147.242 16.0421 146.588 16.9765C145.935 17.9109 145.073 18.691 144.068 19.2593C143.062 19.8275 141.937 20.1694 140.777 20.2597C139.207 20.3847 137.635 20.0497 136.263 19.2979L136.213 19.2719C136.213 19.4718 136.213 19.6718 136.203 19.8717C136.18 20.9075 136.16 21.8873 136.698 22.7751C137.483 24.0749 138.61 24.7247 140.143 24.7607C140.625 24.7727 141.117 24.7707 141.595 24.7607C142.034 24.7607 142.49 24.7607 142.939 24.7607C143.341 24.7658 143.732 24.8937 144.055 25.1263C144.378 25.3588 144.618 25.6843 144.74 26.0565C144.862 26.4287 144.86 26.8287 144.735 27.1998C144.609 27.5709 144.367 27.8943 144.041 28.124C143.795 28.3174 143.494 28.4326 143.178 28.4539C142.791 28.4539 142.403 28.4539 142.014 28.4539L141.196 28.4639ZM140.124 5.81472C139.53 5.81383 138.937 5.88095 138.358 6.01467C135.451 6.69453 133.166 9.24399 133.042 11.9494C132.904 15.0048 132.902 18.2081 133.042 21.7473C133.15 24.5827 135.721 27.3222 138.659 27.7321C139.77 27.8568 140.888 27.9016 142.005 27.8661C142.399 27.8661 142.791 27.8661 143.182 27.8661C143.367 27.839 143.541 27.7637 143.685 27.6481C143.91 27.4914 144.077 27.2677 144.16 27.0108C144.243 26.754 144.237 26.4779 144.144 26.2244C144.056 25.9791 143.892 25.7659 143.675 25.6136C143.458 25.4614 143.198 25.3772 142.931 25.3726C142.49 25.3726 142.038 25.3726 141.602 25.3726C141.122 25.3726 140.623 25.3726 140.13 25.3726C138.393 25.3306 137.06 24.5627 136.168 23.0911C135.55 22.0573 135.566 20.9455 135.589 19.8697C135.589 19.5258 135.606 19.1679 135.589 18.814L135.571 18.3141L136.034 18.534L136.261 18.638C136.387 18.696 136.479 18.74 136.57 18.788C137.834 19.49 139.289 19.8017 140.74 19.6818C141.81 19.5992 142.847 19.284 143.775 18.7595C144.702 18.2351 145.496 17.5149 146.098 16.6522C146.699 15.7896 147.093 14.8066 147.25 13.7762C147.407 12.7458 147.323 11.6943 147.004 10.6997C146.545 9.27939 145.629 8.039 144.391 7.16002C143.153 6.28105 141.658 5.80962 140.124 5.81472ZM140.124 17.1483H140.104C138.91 17.1252 137.772 16.6539 136.929 15.8336C136.086 15.0132 135.604 13.9077 135.583 12.7492C135.583 10.3837 137.643 8.37417 140.116 8.36218H140.137C141.351 8.37275 142.512 8.84769 143.367 9.6839C143.79 10.0841 144.125 10.5621 144.355 11.0899C144.584 11.6176 144.702 12.1845 144.703 12.7572C144.678 13.9225 144.186 15.0325 143.332 15.8521C142.478 16.6717 141.329 17.1366 140.128 17.1483H140.124ZM140.112 8.96205C139.113 9.01658 138.174 9.43998 137.487 10.1454C136.8 10.8507 136.417 11.7846 136.417 12.7552C136.417 13.7259 136.8 14.6598 137.487 15.3651C138.174 16.0705 139.113 16.4939 140.112 16.5484H140.13C141.169 16.5383 142.163 16.1359 142.901 15.4266C143.639 14.7174 144.064 13.7571 144.084 12.7492C144.084 12.2559 143.981 11.7678 143.783 11.3135C143.585 10.8592 143.295 10.4479 142.931 10.1038C142.191 9.37995 141.187 8.96826 140.137 8.95805L140.112 8.96205Z" fill="#5B585B"/>
<path d="M64.9607 14.9608H64.9318C64.9318 14.3309 64.8968 13.701 64.8535 13.0732C64.5445 8.61811 60.6089 5.20083 56.0058 5.22682C55.313 5.2172 54.6446 5.47482 54.1474 5.94309C53.6502 6.41136 53.3648 7.05199 53.354 7.72429C53.3231 9.22198 54.3554 10.2718 55.8719 10.3977C56.4974 10.4463 57.1099 10.5978 57.6831 10.8456C58.5443 11.2296 59.0904 11.9334 59.4262 12.9432C59.1707 12.8712 59.0677 12.8452 58.9667 12.8132C57.1119 12.1875 55.0969 12.1693 53.2303 12.7612C48.8395 14.1449 46.2247 18.52 47.3126 22.8451C48.2605 26.5903 50.8155 28.8198 54.7551 29.4697C58.4928 30.0876 62.5396 27.962 64.0994 24.6067C64.7125 23.2394 65.0006 21.7557 64.9421 20.2656C64.9421 20.1657 64.9421 20.0657 64.9421 19.9677H64.9648L64.9607 14.9608ZM58.5093 23.375C58.2685 23.6112 57.9945 23.8132 57.6954 23.9748C57.3916 24.1393 57.0646 24.2598 56.7249 24.3328C56.4919 24.3812 56.2545 24.4073 56.0161 24.4108C55.5513 24.414 55.0911 24.3206 54.6665 24.1368C54.4536 24.0465 54.2501 23.9367 54.0587 23.8089C53.9625 23.7449 53.8698 23.6782 53.7805 23.6089C53.5999 23.465 53.4337 23.305 53.2839 23.131C52.8295 22.6117 52.5429 21.9739 52.4597 21.2974C52.4473 21.1845 52.4411 21.071 52.4412 20.9575C52.444 20.1615 52.7359 19.3919 53.2654 18.7839C53.6326 18.3574 54.1005 18.0234 54.6294 17.8102C54.8448 17.7229 55.0684 17.6559 55.297 17.6102C55.5339 17.5651 55.7747 17.5424 56.0161 17.5422C56.2589 17.5413 56.5012 17.564 56.7393 17.6102C56.9693 17.6558 57.1943 17.7228 57.4111 17.8102C57.6219 17.8934 57.8235 17.9973 58.0127 18.1201C58.1077 18.182 58.1992 18.2487 58.2868 18.32C58.6899 18.6372 59.0141 19.0386 59.2353 19.4942C59.4564 19.9498 59.5689 20.4479 59.5643 20.9515C59.5555 21.8627 59.1763 22.7336 58.5093 23.375Z" fill="#ffffff"/>
<path d="M93.2576 13.5349C93.2576 10.9315 92.5942 9.05585 91.2672 7.90809C89.9763 6.77455 88.2894 6.1598 86.5487 6.18846C85.4845 6.20112 84.446 6.50768 83.5548 7.07227C82.5782 7.66148 81.8989 8.34333 81.517 9.11784C81.0678 8.27437 80.3886 7.56679 79.5534 7.07227C78.6438 6.48869 77.5757 6.18102 76.4853 6.18846C74.4743 6.18846 72.8451 6.78833 71.5979 7.98808C70.3506 9.18782 69.7276 11.0401 69.729 13.5449V21.2973C69.7297 21.4059 69.7401 21.5143 69.7599 21.6212H69.729V26.6961C69.7234 26.9134 69.7655 27.1294 69.8525 27.3297C69.9396 27.53 70.0696 27.7101 70.2338 27.8579C70.4109 28.0159 70.6183 28.1384 70.8443 28.2183C71.0702 28.2983 71.3102 28.3341 71.5505 28.3238C71.7724 28.3293 71.9931 28.2909 72.1993 28.2111C72.4054 28.1313 72.5927 28.0116 72.7498 27.8594C72.9068 27.7072 73.0303 27.5255 73.1129 27.3256C73.1954 27.1256 73.2351 26.9115 73.2298 26.6961V21.6252H73.2009C73.2201 21.5182 73.2297 21.4098 73.2298 21.3013V13.7669C73.2201 12.7534 73.4499 11.7513 73.9015 10.8375C74.3466 9.94566 75.2085 9.49976 76.4874 9.49976C77.6371 9.49976 78.4758 9.94899 79.0032 10.8475C79.5307 11.7459 79.7945 12.9397 79.7945 14.4287V21.4032C79.7959 21.4809 79.8028 21.5584 79.8151 21.6352H79.7945V26.8001C79.7843 27.0068 79.8196 27.2132 79.8981 27.4056C79.9767 27.598 80.0966 27.772 80.2498 27.9159C80.584 28.2069 81.0232 28.3579 81.4717 28.3358C81.9488 28.3572 82.4174 28.2078 82.7883 27.9159C82.9533 27.7786 83.0843 27.607 83.1713 27.4138C83.2584 27.2206 83.2993 27.0108 83.2911 26.8001V21.6252H83.2705C83.2827 21.5484 83.2896 21.4709 83.2911 21.3932V14.4187C83.2911 12.931 83.5232 11.7373 83.9875 10.8375C84.4518 9.93766 85.3063 9.49176 86.5508 9.49976C87.6676 9.49976 88.4979 9.89501 89.0419 10.6855C89.5859 11.476 89.8572 12.5065 89.8558 13.7769V21.4032C89.8583 21.4809 89.8652 21.5583 89.8764 21.6352H89.8558V26.8001C89.8461 27.0067 89.8817 27.213 89.9602 27.4053C90.0387 27.5977 90.1583 27.7717 90.3112 27.9159C90.6161 28.1958 91.0557 28.3358 91.6299 28.3358C92.063 28.3511 92.485 28.2002 92.8043 27.9159C92.9572 27.7717 93.0768 27.5977 93.1553 27.4053C93.2338 27.213 93.2694 27.0067 93.2597 26.8001V21.6252H93.2391C93.2503 21.5483 93.2572 21.4709 93.2597 21.3932L93.2576 13.5349Z" fill="#5B585B"/>
<path d="M91.6309 28.6268C90.9757 28.6268 90.4606 28.4588 90.1 28.1249C89.9164 27.9528 89.7723 27.7451 89.6772 27.5152C89.582 27.2854 89.5379 27.0387 89.5478 26.7912V13.7679C89.5478 12.5682 89.2923 11.5804 88.7854 10.8425C88.2991 10.1347 87.5677 9.79077 86.5519 9.79077C85.4227 9.79077 84.6748 10.1787 84.2647 10.9725C83.8258 11.8263 83.6033 12.9861 83.6033 14.4198V26.7912C83.6117 27.0459 83.5604 27.2992 83.4533 27.5319C83.3462 27.7647 83.1862 27.9708 82.9852 28.1349C82.5575 28.4727 82.0176 28.6475 81.4666 28.6268C81.204 28.6393 80.9414 28.6014 80.6939 28.5153C80.4464 28.4292 80.2188 28.2965 80.0242 28.1249C79.8402 27.9531 79.6959 27.7454 79.6007 27.5155C79.5055 27.2856 79.4616 27.0387 79.472 26.7912V14.4198C79.472 12.9921 79.2207 11.8383 78.722 10.9865C78.2502 10.1867 77.5146 9.78677 76.474 9.78677C75.316 9.78677 74.5598 10.1727 74.1663 10.9645C73.7368 11.8385 73.5177 12.7957 73.5255 13.7639V21.3223V26.6972C73.5308 26.9517 73.4831 27.2047 73.3851 27.4409C73.2872 27.6771 73.1411 27.8917 72.9556 28.0717C72.7701 28.2518 72.549 28.3935 72.3056 28.4886C72.0622 28.5836 71.8015 28.63 71.5392 28.6248C70.9743 28.6459 70.4238 28.4489 70.0082 28.0769C69.8139 27.9008 69.66 27.6869 69.5567 27.4491C69.4534 27.2114 69.4029 26.9552 69.4086 26.6972V13.536C69.4086 10.9545 70.068 9.01294 71.3702 7.7672C72.6724 6.52146 74.3888 5.8896 76.474 5.8896C77.6242 5.88325 78.7505 6.20748 79.7111 6.8214C80.4258 7.25353 81.0399 7.8256 81.514 8.50104C82.0905 7.72066 82.8436 7.07881 83.7155 6.62474C84.5873 6.17068 85.5548 5.91646 86.5436 5.8816C88.3605 5.85595 90.12 6.49894 91.4682 7.68122C92.8569 8.88096 93.5616 10.8525 93.5616 13.532V21.3903C93.5616 21.4383 93.5616 21.4823 93.5616 21.5243V21.6223V26.7872C93.5714 27.0347 93.5272 27.2814 93.4321 27.5112C93.3369 27.741 93.1929 27.9487 93.0094 28.1209C92.6364 28.459 92.1411 28.6408 91.6309 28.6268ZM90.168 21.9262V26.7912C90.1583 26.957 90.1853 27.1229 90.2471 27.2777C90.3089 27.4326 90.4042 27.5728 90.5265 27.689C90.837 27.9353 91.2331 28.0563 91.633 28.0269C91.808 28.0352 91.9829 28.0098 92.1477 27.9521C92.3125 27.8945 92.4639 27.8057 92.5932 27.691C92.716 27.5747 92.8118 27.4342 92.874 27.279C92.9362 27.1238 92.9634 26.9574 92.9538 26.7912V21.9262H92.9146L92.9394 21.5643C92.9474 21.5079 92.9522 21.4512 92.9538 21.3943V13.536C92.9538 11.0345 92.3191 9.21689 91.0684 8.13712C89.8314 7.05576 88.2186 6.46858 86.5539 6.49347C85.5476 6.50757 84.566 6.79806 83.7228 7.33129C82.8038 7.88717 82.1568 8.53104 81.8004 9.25288L81.514 9.81077L81.2358 9.24888C80.8111 8.45432 80.1696 7.78823 79.3814 7.32329C78.522 6.77322 77.5138 6.48303 76.4843 6.48947C74.566 6.48947 72.9959 7.06335 71.8153 8.19311C70.6346 9.32287 70.0371 11.1205 70.0371 13.536V21.2983C70.0377 21.3889 70.0467 21.4792 70.0639 21.5683L70.1298 21.9222H70.0371V26.6972C70.0321 26.874 70.0663 27.0497 70.1374 27.2126C70.2085 27.3754 70.3148 27.5215 70.4492 27.641C70.5978 27.7729 70.772 27.8747 70.9616 27.9406C71.1513 28.0065 71.3525 28.0352 71.5536 28.0249C71.7347 28.0302 71.9151 27.9994 72.0835 27.9346C72.252 27.8697 72.405 27.7721 72.5331 27.6477C72.6612 27.5234 72.7618 27.3749 72.8287 27.2114C72.8955 27.048 72.9272 26.873 72.9218 26.6972V21.9262H72.8332L72.897 21.5743C72.9136 21.4845 72.9219 21.3935 72.9218 21.3023V13.7679C72.9138 12.7096 73.1541 11.6634 73.6244 10.7086C74.1251 9.70879 75.0894 9.1909 76.4885 9.1909C77.7536 9.1909 78.6891 9.69479 79.2742 10.6906C79.8244 11.6324 80.0984 12.8901 80.0984 14.4198V21.3943C80.1 21.4532 80.1048 21.5119 80.1128 21.5703L80.1582 21.9262H80.0984V26.7912C80.0883 26.9587 80.1157 27.1265 80.1786 27.2828C80.2416 27.4392 80.3386 27.5805 80.4631 27.697C80.6 27.8153 80.7598 27.906 80.9331 27.9641C81.1064 28.0221 81.2898 28.0461 81.4728 28.0349C81.8761 28.0563 82.2735 27.9332 82.5895 27.689C82.7209 27.5796 82.8248 27.4427 82.8934 27.2885C82.9619 27.1343 82.9933 26.9669 82.9852 26.7992V21.9262H82.9192L82.9687 21.5603C82.9778 21.5053 82.9833 21.4499 82.9852 21.3943V14.4198C82.9852 12.8921 83.2283 11.6424 83.7104 10.7046C84.2297 9.70479 85.1837 9.1909 86.5519 9.1909C87.7737 9.1909 88.6989 9.6348 89.3005 10.5106C89.8754 11.3484 90.1659 12.4442 90.1659 13.7679V21.3943C90.1675 21.4512 90.1723 21.5079 90.1804 21.5643L90.2257 21.9262H90.168Z" fill="#5B585B"/>
<path d="M129.951 26.1095C129.843 25.8008 129.639 25.532 129.368 25.3399C129.096 25.1477 128.771 25.0415 128.435 25.0358C127.493 25.0178 126.551 25.0478 125.612 25.0258C124.932 25.0304 124.262 24.874 123.659 24.5701C123.056 24.2663 122.539 23.8241 122.152 23.2821C121.937 22.8885 121.829 22.4479 121.839 22.0024V14.604H128.043C128.451 14.6025 128.841 14.4443 129.129 14.1641C129.295 13.9971 129.423 13.7985 129.505 13.581C129.587 13.3634 129.622 13.1316 129.607 12.9003C129.603 12.4651 129.433 12.0468 129.129 11.7266C129.001 11.5636 128.837 11.4305 128.649 11.3371C128.461 11.2437 128.254 11.1923 128.043 11.1867H121.839V5.20797C121.841 5.00344 121.797 4.80094 121.71 4.61474C121.623 4.42853 121.494 4.26314 121.334 4.13019C120.987 3.83374 120.536 3.6765 120.073 3.69029C119.591 3.68224 119.123 3.84829 118.761 4.15619C118.593 4.27996 118.456 4.43875 118.36 4.62081C118.264 4.80287 118.212 5.00354 118.206 5.20797V11.1807H115.835C115.622 11.1792 115.413 11.2274 115.224 11.3214C115.035 11.4154 114.872 11.5524 114.749 11.7206C114.472 12.0529 114.321 12.4671 114.32 12.8943C114.32 13.4502 114.463 13.8748 114.749 14.1681C114.887 14.312 115.056 14.4256 115.243 14.5014C115.43 14.5773 115.632 14.6136 115.835 14.608H118.206V22.0064C118.206 22.1624 118.206 22.3123 118.225 22.4623C118.604 24.5839 120.182 26.5055 122.2 27.4613C122.79 27.7425 123.422 27.9346 124.073 28.0311C125.583 28.2411 127.141 28.1511 128.676 28.1651C128.93 28.1404 129.172 28.0445 129.372 27.8892C129.654 27.6934 129.863 27.4141 129.968 27.0931C130.072 26.7722 130.066 26.427 129.951 26.1095Z" fill="#5B585B"/>
<path d="M126.679 28.4641C125.793 28.4765 124.907 28.4277 124.027 28.3182C123.344 28.2189 122.682 28.0165 122.064 27.7183C119.931 26.7185 118.305 24.6689 117.918 22.5074V22.4074C117.918 22.2734 117.904 22.1375 117.904 22.0075V14.899H115.843C115.598 14.9048 115.355 14.8603 115.129 14.7683C114.903 14.6762 114.7 14.5388 114.533 14.3651C114.193 14.0152 114.02 13.5173 114.02 12.8854C114.021 12.3916 114.196 11.9129 114.514 11.5277C114.665 11.3231 114.865 11.1567 115.096 11.0425C115.327 10.9284 115.584 10.8699 115.843 10.8718H117.904V5.20705C117.909 4.95941 117.971 4.71601 118.085 4.49461C118.2 4.27321 118.363 4.07939 118.565 3.92732C118.985 3.57391 119.524 3.38248 120.079 3.38943C120.615 3.37531 121.136 3.55816 121.538 3.90132C121.733 4.06076 121.89 4.25983 121.996 4.48443C122.103 4.70904 122.158 4.95368 122.156 5.20105V10.8798H128.051C128.307 10.885 128.557 10.9452 128.785 11.0563C129.014 11.1673 129.213 11.3263 129.37 11.5217C129.72 11.9004 129.914 12.3909 129.914 12.8994C129.931 13.1732 129.888 13.4473 129.789 13.7042C129.69 13.961 129.537 14.195 129.339 14.3911C128.994 14.7236 128.528 14.911 128.041 14.913H122.146V22.0075C122.136 22.3968 122.228 22.7822 122.414 23.1273C123.195 24.173 124.242 24.6969 125.616 24.7269C126.102 24.7389 126.601 24.7269 127.081 24.7269C127.526 24.7269 127.985 24.7269 128.439 24.7269C128.84 24.7328 129.229 24.8595 129.552 25.0895C129.876 25.3195 130.117 25.6414 130.244 26.0106C130.375 26.3876 130.378 26.7953 130.253 27.1741C130.128 27.553 129.882 27.8831 129.549 28.1162C129.301 28.3104 128.998 28.4262 128.68 28.4481C128.288 28.4481 127.897 28.4481 127.503 28.4481L126.679 28.4641ZM118.53 22.4234C118.891 24.397 120.384 26.2626 122.334 27.1824C122.894 27.4515 123.495 27.6343 124.114 27.7243C125.235 27.8507 126.363 27.8961 127.491 27.8603C127.887 27.8603 128.282 27.8603 128.678 27.8603C128.865 27.8337 129.041 27.7576 129.187 27.6403C129.415 27.4817 129.583 27.2556 129.667 26.9959C129.751 26.7362 129.746 26.4571 129.652 26.2006C129.563 25.951 129.396 25.7344 129.175 25.5802C128.953 25.426 128.688 25.3417 128.416 25.3388C127.971 25.3388 127.516 25.3388 127.075 25.3388C126.591 25.3388 126.088 25.3388 125.591 25.3388C124.863 25.3439 124.145 25.1765 123.498 24.851C122.852 24.5256 122.297 24.0519 121.882 23.4712L121.862 23.4412C121.621 23.0029 121.499 22.5121 121.509 22.0155V14.2991H128.023C128.185 14.2982 128.346 14.2661 128.496 14.2047C128.646 14.1433 128.782 14.0537 128.896 13.9412C129.154 13.7052 129.277 13.3593 129.277 12.8854C129.271 12.521 129.124 12.1721 128.865 11.9076C128.766 11.7778 128.638 11.6712 128.491 11.5958C128.344 11.5203 128.181 11.4779 128.014 11.4717H121.528V5.20705C121.529 5.04391 121.493 4.88257 121.422 4.73483C121.35 4.5871 121.246 4.45671 121.116 4.35323C120.826 4.10518 120.449 3.97487 120.063 3.98931C119.654 3.98272 119.258 4.12546 118.952 4.38922C118.819 4.48568 118.71 4.60994 118.632 4.75286C118.555 4.89577 118.511 5.05371 118.505 5.21505V11.4797H115.827C115.662 11.4785 115.499 11.5163 115.353 11.5899C115.206 11.6634 115.08 11.7704 114.986 11.9016C114.749 12.1841 114.62 12.5373 114.621 12.9014C114.591 13.287 114.714 13.6692 114.965 13.9692C115.075 14.0835 115.208 14.1736 115.357 14.2333C115.506 14.293 115.666 14.3209 115.827 14.3151H118.505V22.0095C118.505 22.1375 118.505 22.2594 118.52 22.3814L118.53 22.4234Z" fill="#5B585B"/>
<path d="M154.619 7.71306C154.846 7.49274 155.135 7.34276 155.45 7.28209C155.765 7.22142 156.092 7.25279 156.389 7.37223C156.685 7.49167 156.939 7.69382 157.117 7.95309C157.295 8.21237 157.39 8.51713 157.39 8.82882V12.806H156.09V11.5442H155.443V12.806H154.143V8.82882C154.139 8.62113 154.18 8.41494 154.262 8.22302C154.343 8.0311 154.465 7.85753 154.619 7.71306ZM156.09 10.2845V8.82882C156.09 8.74556 156.056 8.66571 155.995 8.60683C155.935 8.54796 155.852 8.51489 155.766 8.51489C155.681 8.51489 155.598 8.54796 155.538 8.60683C155.477 8.66571 155.443 8.74556 155.443 8.82882V10.2845H156.09Z" fill="#5B585B"/>
<path d="M159.126 12.8117H157.826V7.38281H159.126V12.8117Z" fill="#5B585B"/>
<path d="M156.681 15.3648C155.63 15.3648 154.601 15.0621 153.727 14.495C152.852 13.9279 152.171 13.1219 151.768 12.1789C151.366 11.2358 151.26 10.1982 151.465 9.19704C151.671 8.19592 152.177 7.27633 152.921 6.55457C153.665 5.8328 154.612 5.34127 155.644 5.14214C156.675 4.943 157.745 5.0452 158.717 5.43582C159.688 5.82644 160.519 6.48793 161.103 7.33663C161.688 8.18534 162 9.18315 162 10.2039C161.998 11.5721 161.437 12.8839 160.44 13.8514C159.443 14.819 158.091 15.3632 156.681 15.3648ZM156.681 5.44289C155.711 5.44289 154.763 5.72211 153.956 6.24526C153.149 6.7684 152.52 7.51197 152.149 8.38193C151.778 9.25188 151.68 10.2092 151.87 11.1327C152.059 12.0562 152.526 12.9046 153.212 13.5704C153.898 14.2362 154.773 14.6897 155.724 14.8734C156.676 15.0571 157.662 14.9628 158.559 14.6025C159.455 14.2421 160.222 13.6319 160.761 12.8489C161.3 12.066 161.587 11.1455 161.587 10.2039C161.586 8.94167 161.068 7.73162 160.149 6.8391C159.229 5.94659 157.982 5.44447 156.681 5.44289Z" fill="#5B585B"/>
</svg>
