<svg width="152" height="135" viewBox="0 0 152 135" fill="none" xmlns="http://www.w3.org/2000/svg">
<path d="M38.6094 110.621H105.313" stroke="#4F4F4F" stroke-width="2" stroke-linecap="round" stroke-linejoin="round"/>
<path d="M130.554 18.3223H13.3691V100.608H130.554V18.3223Z" fill="white" stroke="#4F4F4F" stroke-width="2" stroke-linecap="round" stroke-linejoin="round"/>
<path d="M14.0107 82.8545H129.175" stroke="#4F4F4F" stroke-width="2" stroke-linecap="round" stroke-linejoin="round"/>
<path d="M86.498 100.622H57.4248V110.621H86.498V100.622Z" stroke="#4F4F4F" stroke-width="2" stroke-linecap="round" stroke-linejoin="round"/>
<path d="M61.6897 52.5991C61.6897 55.9697 60.6712 59.2647 58.7631 62.0673C56.8549 64.8699 54.1427 67.0543 50.9695 68.3442C47.7963 69.6341 44.3046 69.9716 40.936 69.314C37.5673 68.6564 34.473 67.0333 32.0444 64.6499C29.6157 62.2664 27.9618 59.2298 27.2917 55.9239C26.6216 52.618 26.9655 49.1913 28.2799 46.0772C29.5943 42.9631 31.8201 40.3014 34.6759 38.4288C37.5317 36.5562 40.8892 35.5566 44.3239 35.5566V52.5991H61.6897Z" stroke="#4F4F4F" stroke-width="2" stroke-linecap="round" stroke-linejoin="round"/>
<path d="M65.7321 48.2908C65.7321 43.7707 63.9025 39.4359 60.6457 36.2397C57.389 33.0436 52.9719 31.248 48.3662 31.248V48.3181H65.6345L65.7321 48.2908Z" fill="#5CBBBB" stroke="#4F4F4F" stroke-width="2" stroke-linecap="round" stroke-linejoin="round"/>
<path d="M151 52.9736H81.8506V133.646H151V52.9736Z" fill="#5CBBBB" stroke="#4F4F4F" stroke-width="2" stroke-linecap="round" stroke-linejoin="round"/>
<path d="M104.287 102.036H94.2197V122.115H104.287V102.036Z" fill="white" stroke="#4F4F4F" stroke-width="2" stroke-linecap="round" stroke-linejoin="round"/>
<path d="M121.459 93.4736H111.392V122.102H121.459V93.4736Z" fill="white" stroke="#4F4F4F" stroke-width="2" stroke-linecap="round" stroke-linejoin="round"/>
<path d="M138.617 84.0771H128.55V122.102H138.617V84.0771Z" fill="white" stroke="#4F4F4F" stroke-width="2" stroke-linecap="round" stroke-linejoin="round"/>
<path d="M94.9873 70.0981L99.2075 74.1193L104.579 66.7607" stroke="#4F4F4F" stroke-width="2" stroke-linecap="round" stroke-linejoin="round"/>
<path d="M112.106 70.4404H137.864" stroke="#4F4F4F" stroke-width="2" stroke-linecap="round" stroke-linejoin="round"/>
<path d="M3.5 14.6929C5.433 14.6929 7 13.1548 7 11.2576C7 9.3603 5.433 7.82227 3.5 7.82227C1.567 7.82227 0 9.3603 0 11.2576C0 13.1548 1.567 14.6929 3.5 14.6929Z" fill="#4F4F4F"/>
<path d="M26.4842 31.179C28.3778 31.179 29.9128 29.6725 29.9128 27.8141C29.9128 25.9557 28.3778 24.4492 26.4842 24.4492C24.5907 24.4492 23.0557 25.9557 23.0557 27.8141C23.0557 29.6725 24.5907 31.179 26.4842 31.179Z" fill="#4F4F4F"/>
<path d="M23.5 7.82214C25.433 7.82214 27 6.28402 27 4.38666C27 2.48929 25.433 0.951172 23.5 0.951172C21.567 0.951172 20 2.48929 20 4.38666C20 6.28402 21.567 7.82214 23.5 7.82214Z" fill="#4F4F4F"/>
<path d="M5.74609 11.1963L18.3454 11.1279L25.9551 26.3785" stroke="#4F4F4F" stroke-width="2" stroke-linecap="round" stroke-linejoin="round"/>
<path d="M18.3447 11.1277L22.7071 4.98633" stroke="#4F4F4F" stroke-width="2" stroke-linecap="round" stroke-linejoin="round"/>
</svg>
