<svg width="153" height="125" viewBox="0 0 153 125" fill="none" xmlns="http://www.w3.org/2000/svg">
<path d="M71.0553 24.7617H26.1952C20.9858 24.7617 16.7627 29.0041 16.7627 34.2374V87.4353C16.7627 92.6686 20.9858 96.911 26.1952 96.911H71.0553C76.2647 96.911 80.4878 92.6686 80.4878 87.4353V34.2374C80.4878 29.0041 76.2647 24.7617 71.0553 24.7617Z" fill="white" stroke="#4F4F4F" stroke-width="2" stroke-linecap="round" stroke-linejoin="round"/>
<path d="M80.5026 36.1621H16.7627V85.4952H80.5026V36.1621Z" fill="#5CBBBB" stroke="#4F4F4F" stroke-width="2" stroke-linecap="round" stroke-linejoin="round"/>
<path d="M103.737 1H96.5479L92.9531 7.26736L96.5479 13.5198H103.737L107.332 7.26736L103.737 1Z" fill="#5CBBBB" stroke="#4F4F4F" stroke-width="2" stroke-linecap="round" stroke-linejoin="round"/>
<path d="M119.231 10.0273H112.026L108.432 16.2798L112.026 22.5471H119.231L122.825 16.2798L119.231 10.0273Z" fill="#5CBBBB" stroke="#4F4F4F" stroke-width="2" stroke-linecap="round" stroke-linejoin="round"/>
<path d="M17.0382 103.462H9.84866L6.25391 109.714L9.84866 115.982H17.0382L20.6329 109.714L17.0382 103.462Z" fill="#5CBBBB" stroke="#4F4F4F" stroke-width="2" stroke-linecap="round" stroke-linejoin="round"/>
<path d="M103.737 18.7275H96.5479L92.9531 24.9949L96.5479 31.2473H103.737L107.332 24.9949L103.737 18.7275Z" fill="#5CBBBB" stroke="#4F4F4F" stroke-width="2" stroke-linecap="round" stroke-linejoin="round"/>
<path d="M71.8428 2.75098H25.4082V17.8822H71.8428V2.75098Z" fill="white" stroke="#4F4F4F" stroke-width="2" stroke-linecap="round" stroke-linejoin="round"/>
<path d="M68.8286 17.8818H28.4248V24.7909H68.8286V17.8818Z" fill="white" stroke="#4F4F4F" stroke-width="2" stroke-linecap="round" stroke-linejoin="round"/>
<path d="M37.6338 7.92871V12.7038" stroke="#4F4F4F" stroke-width="2" stroke-linecap="round" stroke-linejoin="round"/>
<path d="M48.626 7.92871V12.7038" stroke="#4F4F4F" stroke-width="2" stroke-linecap="round" stroke-linejoin="round"/>
<path d="M59.6182 7.92871V12.7038" stroke="#4F4F4F" stroke-width="2" stroke-linecap="round" stroke-linejoin="round"/>
<path d="M151.029 43.5205H59.6748V123.847H151.029V43.5205Z" fill="white" stroke="#4F4F4F" stroke-width="2" stroke-linecap="round" stroke-linejoin="round"/>
<path d="M85.6707 56.7964C82.5034 53.6146 77.3681 53.6146 74.2008 56.7964C71.0334 59.9782 71.0335 65.137 74.2008 68.3188L84.4523 78.6172C87.6196 81.799 92.7549 81.7991 95.9222 78.6172C99.0896 75.4354 99.0895 70.2767 95.9222 67.0948L85.6707 56.7964Z" fill="#5CBBBB" stroke="#4F4F4F" stroke-width="2" stroke-linecap="round" stroke-linejoin="round"/>
<path d="M91.3879 62.5472L85.669 56.8022C84.1481 55.2749 82.0856 54.417 79.9352 54.417C77.7848 54.417 75.7224 55.2749 74.2014 56.8022C72.6812 58.33 71.8271 60.4019 71.8271 62.5622C71.8271 64.7224 72.6812 66.7943 74.2014 68.3222L79.9352 74.0672L91.3879 62.5472Z" fill="white" stroke="#4F4F4F" stroke-width="2" stroke-linecap="round" stroke-linejoin="round"/>
<path d="M109.838 62.3535H140.096" stroke="#4F4F4F" stroke-width="2" stroke-linecap="round" stroke-linejoin="round"/>
<path d="M109.838 73.0527H140.096" stroke="#4F4F4F" stroke-width="2" stroke-linecap="round" stroke-linejoin="round"/>
<path d="M140.066 91.5703H71.7959V112.491H140.066V91.5703Z" fill="white" stroke="#4F4F4F" stroke-width="2" stroke-linecap="round" stroke-linejoin="round"/>
<path d="M25.5205 113.971H32.7694" stroke="#4F4F4F" stroke-width="2" stroke-linecap="round" stroke-linejoin="round"/>
<path d="M1 123.604H8.24892" stroke="#4F4F4F" stroke-width="2" stroke-linecap="round" stroke-linejoin="round"/>
<path d="M124.966 31.9863H132.2" stroke="#4F4F4F" stroke-width="2" stroke-linecap="round" stroke-linejoin="round"/>
</svg>
