<svg width="137" height="118" viewBox="0 0 137 118" fill="none" xmlns="http://www.w3.org/2000/svg">
<path d="M135.999 7.09668H43.6768V85.4834H135.999V7.09668Z" fill="white" stroke="#4F4F4F" stroke-width="2" stroke-linecap="round" stroke-linejoin="round"/>
<path d="M75.9023 34.9678V75.0321" stroke="#4F4F4F" stroke-width="2" stroke-linecap="round" stroke-linejoin="round"/>
<path d="M104.645 34.9678V75.0321" stroke="#4F4F4F" stroke-width="2" stroke-linecap="round" stroke-linejoin="round"/>
<path d="M129.902 55H50.6445" stroke="#4F4F4F" stroke-width="2" stroke-linecap="round" stroke-linejoin="round"/>
<path d="M84.6123 42.3917L89.5892 47.1608L95.9348 38.4512" stroke="#5CBBBB" stroke-width="2" stroke-linecap="round" stroke-linejoin="round"/>
<path d="M135.999 7.09668H43.6768V25.3869H135.999V7.09668Z" fill="#5CBBBB" stroke="#4F4F4F" stroke-width="2" stroke-linecap="round" stroke-linejoin="round"/>
<path d="M72.4186 4.85679C72.4186 2.72674 70.4689 1 68.0638 1C65.6587 1 63.709 2.72674 63.709 4.85679V10.2077C63.709 12.3377 65.6587 14.0644 68.0638 14.0644C70.4689 14.0644 72.4186 12.3377 72.4186 10.2077V4.85679Z" fill="white" stroke="#4F4F4F" stroke-width="2" stroke-linecap="round" stroke-linejoin="round"/>
<path d="M116.839 4.85679C116.839 2.72674 114.889 1 112.484 1C110.079 1 108.129 2.72674 108.129 4.85679V10.2077C108.129 12.3377 110.079 14.0644 112.484 14.0644C114.889 14.0644 116.839 12.3377 116.839 10.2077V4.85679Z" fill="white" stroke="#4F4F4F" stroke-width="2" stroke-linecap="round" stroke-linejoin="round"/>
<path d="M22.7658 49.6761C25.2965 49.6761 27.348 47.6246 27.348 45.0939C27.348 42.5632 25.2965 40.5117 22.7658 40.5117C20.2351 40.5117 18.1836 42.5632 18.1836 45.0939C18.1836 47.6246 20.2351 49.6761 22.7658 49.6761Z" fill="#5CBBBB" stroke="#4F4F4F" stroke-width="2" stroke-linecap="round" stroke-linejoin="round"/>
<path d="M108.038 111.255C110.846 111.255 113.122 109.01 113.122 106.241C113.122 103.472 110.846 101.228 108.038 101.228C105.23 101.228 102.954 103.472 102.954 106.241C102.954 109.01 105.23 111.255 108.038 111.255Z" fill="#5CBBBB" stroke="#4F4F4F" stroke-width="2" stroke-linecap="round" stroke-linejoin="round"/>
<path d="M80.0439 65.7139H30.7852V109.245H80.0439V65.7139Z" fill="#5CBBBB" stroke="#4F4F4F" stroke-width="2" stroke-miterlimit="10" stroke-linecap="round" stroke-linejoin="round"/>
<path d="M55.529 116.766C59.7508 116.766 63.1733 113.344 63.1733 109.122C63.1733 104.9 59.7508 101.478 55.529 101.478C51.3072 101.478 47.8848 104.9 47.8848 109.122C47.8848 113.344 51.3072 116.766 55.529 116.766Z" fill="white" stroke="#4F4F4F" stroke-width="2" stroke-miterlimit="10" stroke-linecap="round" stroke-linejoin="round"/>
<path d="M22.7655 90.9165H1L9.26557 78.3154H22.7655V90.9165Z" stroke="#4F4F4F" stroke-width="2" stroke-miterlimit="10" stroke-linecap="round" stroke-linejoin="round"/>
<path d="M30.7844 109.246H1V90.8553L13.7851 71.4424H30.7844V109.246Z" stroke="#4F4F4F" stroke-width="2" stroke-miterlimit="10" stroke-linecap="round" stroke-linejoin="round"/>
<path d="M15.779 116.766C20.0008 116.766 23.4233 113.344 23.4233 109.122C23.4233 104.9 20.0008 101.478 15.779 101.478C11.5572 101.478 8.13477 104.9 8.13477 109.122C8.13477 113.344 11.5572 116.766 15.779 116.766Z" fill="white" stroke="#4F4F4F" stroke-width="2" stroke-miterlimit="10" stroke-linecap="round" stroke-linejoin="round"/>
</svg>
