<svg xmlns="http://www.w3.org/2000/svg" width="100" height="100" fill="none" viewBox="0 0 100 100">
    <path stroke="#696969" stroke-linecap="round" stroke-linejoin="round" stroke-miterlimit="10" stroke-width="2" d="M82.181 28.75H42.163v35.836h40.02V28.75z"/>
    <path fill="#F3F3F3" stroke="#0FAD7C" stroke-linecap="round" stroke-linejoin="round" stroke-miterlimit="10" stroke-width="2" d="M62.18 71.637c3.893 0 7.05-3.157 7.05-7.052 0-3.894-3.157-7.05-7.05-7.05-3.895 0-7.051 3.156-7.051 7.05 0 3.895 3.157 7.052 7.05 7.052z"/>
    <path stroke="#0FAD7C" stroke-linecap="round" stroke-linejoin="round" stroke-miterlimit="10" stroke-width="2" d="M34.913 49.655H17.5l6.613-9.796h10.8v9.796z"/>
    <path stroke="#696969" stroke-linecap="round" stroke-linejoin="round" stroke-miterlimit="10" stroke-width="2" d="M42.165 64.585H17.5V49.69l10.587-15.723h14.078v30.618z"/>
    <path fill="#F3F3F3" stroke="#0FAD7C" stroke-linecap="round" stroke-linejoin="round" stroke-miterlimit="10" stroke-width="2" d="M29.826 71.637c3.894 0 7.05-3.157 7.05-7.052 0-3.894-3.156-7.05-7.05-7.05-3.894 0-7.05 3.156-7.05 7.05 0 3.895 3.156 7.052 7.05 7.052z"/>
</svg>
