<svg xmlns="http://www.w3.org/2000/svg" width="100" height="100" fill="none" viewBox="0 0 100 100">
    <path stroke="#696969" stroke-linecap="round" stroke-linejoin="round" stroke-miterlimit="10" stroke-width="2" d="M61.29 71.69l3.748 10.996h-25.25l3.747-10.996"/>
    <path stroke="#0FAD7C" stroke-linecap="round" stroke-linejoin="round" stroke-miterlimit="10" stroke-width="2" d="M73.745 21.995L68 16.25l-3.626 3.626 5.745 5.745 3.626-3.626zM36.09 65.418c9.064 9.064 23.772 9.064 32.835 0 9.065-9.064 9.065-23.772 0-32.836"/>
    <path stroke="#0FAD7C" stroke-linecap="round" stroke-linejoin="round" stroke-miterlimit="10" stroke-width="2" d="M65.19 36.313c7 7.008 7 18.358 0 25.357-5.764 5.764-14.479 6.784-21.282 3.06"/>
    <path stroke="#696969" stroke-linecap="round" stroke-linejoin="round" stroke-miterlimit="10" stroke-width="2" d="M72.464 27.962l-10.43-10.43-19.65 19.648 10.431 10.43 19.649-19.648zM48.02 58.793H24.276v5.936h23.746v-5.936z"/>
    <path stroke="#0FAD7C" stroke-linecap="round" stroke-linejoin="round" stroke-miterlimit="10" stroke-width="2" d="M54.645 49.442L40.543 35.34l-3.75 3.75 14.101 14.102 3.75-3.75z"/>
</svg>
