<svg xmlns="http://www.w3.org/2000/svg" width="100" height="100" fill="none" viewBox="0 0 100 100">
    <path stroke="#0FAD7C" stroke-miterlimit="10" stroke-width="2" d="M50.679 49.575c4.873 0 8.823-3.95 8.823-8.824 0-4.873-3.95-8.823-8.823-8.823s-8.824 3.95-8.824 8.823 3.95 8.824 8.824 8.824zM31.926 71.632v-9.537c0-3.88 3.121-7.007 6.972-7.007H61.35c3.85 0 6.972 3.142 6.972 7.007v9.537"/>
    <path stroke="#696969" stroke-miterlimit="10" stroke-width="2" d="M50.125 78.25c15.533 0 28.125-12.592 28.125-28.125S65.658 22 50.125 22 22 34.592 22 50.125 34.592 78.25 50.125 78.25z"/>
</svg>
