<svg xmlns="http://www.w3.org/2000/svg" width="100" height="100" fill="none" viewBox="0 0 100 100">
    <path stroke="#696969" stroke-linecap="round" stroke-miterlimit="10" stroke-width="2" d="M65.406 16.406s-8.859 7.762-3.01 21.412c4.245 9.906 1.696 17.333-3.242 22.017 0 0-7.762 8.86-21.412 3.011-9.906-4.245-17.333-1.696-22.017 3.242"/>
    <path stroke="#0FAD7C" stroke-linecap="round" stroke-miterlimit="10" stroke-width="2" d="M83.992 34.992s-7.762 8.859-21.412 3.011c-9.906-4.246-17.33-1.693-22.014 3.245 0 0-8.859 7.762-3.01 21.412 4.245 9.906 1.696 17.333-3.242 22.017M80.586 36.719l-8.623-8.623M64.139 50.866L49.482 36.21M50.885 64.117L36.228 49.46M59.022 59.866L40.484 41.328"/>
    <path stroke="#696969" stroke-linecap="round" stroke-miterlimit="10" stroke-width="2" d="M64.139 50.866l-7.272-7.272M50.885 64.117l-7.347-7.346M59.022 59.866l-9.4-9.4"/>
    <path stroke="#0FAD7C" stroke-linecap="round" stroke-miterlimit="10" stroke-width="2" d="M75.693 39.49l-7.74-7.742"/>
    <path stroke="#696969" stroke-linecap="round" stroke-miterlimit="10" stroke-width="2" d="M17.969 64.031l9.306 9.307M23.167 61.57l7.806 7.805"/>
</svg>
