<svg xmlns="http://www.w3.org/2000/svg" width="100" height="100" fill="none" viewBox="0 0 100 100">
    <path stroke="#696969" stroke-linecap="round" stroke-linejoin="round" stroke-miterlimit="10" stroke-width="2" d="M68.695 22.5H25v56.011h43.695V22.5z"/>
    <path stroke="#696969" stroke-linecap="round" stroke-linejoin="round" stroke-miterlimit="10" stroke-width="2" d="M40.378 33.21l-4.581 4.649-2.701-2.74M46.545 35.53h14.057M40.378 44.332l-4.581 4.648-2.701-2.74M46.545 46.653h14.057"/>
    <path fill="#F3F3F3" d="M71.798 43.608l.367-.395 1.475-1.542c.982-1.023 2.61-1.08 3.63-.103l3.163 3.036c1.005.95 1.032 2.59.05 3.614l-1.845 1.923-19.812 20.604-7.361 1.212.529-7.747 19.79-20.598"/>
    <path stroke="#0FAD7C" stroke-linecap="round" stroke-linejoin="round" stroke-miterlimit="10" stroke-width="2" d="M71.798 43.608l.367-.395 1.475-1.542c.982-1.023 2.61-1.08 3.63-.103l3.163 3.036c1.005.95 1.032 2.59.05 3.614l-1.845 1.923-19.812 20.604-7.361 1.212.529-7.747 19.79-20.598"/>
    <path fill="#F3F3F3" d="M71.61 43.605l.001.007.014-.004 3.186 3.032.256.248 3.42 3.287"/>
    <path stroke="#0FAD7C" stroke-linecap="round" stroke-linejoin="round" stroke-miterlimit="10" stroke-width="2" d="M71.61 43.605l.001.007.014-.004 3.186 3.032.256.248 3.42 3.287"/>
</svg>
