<?xml version="1.0" encoding="iso-8859-1"?>
<!-- Generator: Adobe Illustrator 19.0.0, SVG Export Plug-In . SVG Version: 6.00 Build 0)  -->
<svg version="1.1" id="Capa_1" xmlns="http://www.w3.org/2000/svg" xmlns:xlink="http://www.w3.org/1999/xlink" x="0px" y="0px"
	 viewBox="0 0 512 512" style="enable-background:new 0 0 512 512;" xml:space="preserve">
<g>
	<g>
		<path d="M343.531,78.635C306.265,51.07,261.992,36.5,215.5,36.5c-57.564,0-111.682,22.415-152.383,63.117
			C22.415,140.318,0,194.436,0,252c0,57.564,22.415,111.682,63.117,152.383C103.818,445.085,157.936,467.5,215.5,467.5
			c19.878,0,39.572-2.707,58.532-8.046l-4.065-14.439c-17.638,4.966-35.963,7.485-54.467,7.485C104.944,452.5,15,362.556,15,252
			S104.944,51.5,215.5,51.5c43.257,0,84.445,13.554,119.111,39.194c33.994,25.145,58.793,59.59,71.716,99.612l14.275-4.609
			C406.71,142.676,380.059,105.654,343.531,78.635z"/>
	</g>
</g>
<g>
	<g>
		<path d="M144,148.5c-12.958,0-23.5,10.542-23.5,23.5s10.542,23.5,23.5,23.5s23.5-10.542,23.5-23.5S156.958,148.5,144,148.5z
			 M144,180.5c-4.687,0-8.5-3.814-8.5-8.5c0-4.686,3.813-8.5,8.5-8.5s8.5,3.814,8.5,8.5C152.5,176.686,148.687,180.5,144,180.5z"/>
	</g>
</g>
<g>
	<g>
		<path d="M288,148.5c-3.258,0-6.363,0.667-9.186,1.871C276.285,140.123,267.018,132.5,256,132.5c-12.958,0-23.5,10.542-23.5,23.5
			s10.542,23.5,23.5,23.5c3.258,0,6.363-0.667,9.186-1.871C267.715,187.877,276.982,195.5,288,195.5c12.958,0,23.5-10.542,23.5-23.5
			S300.958,148.5,288,148.5z M256,164.5c-4.687,0-8.5-3.814-8.5-8.5c0-4.686,3.813-8.5,8.5-8.5s8.5,3.814,8.5,8.5
			C264.5,160.686,260.687,164.5,256,164.5z M288,180.5c-4.687,0-8.5-3.814-8.5-8.5c0-4.686,3.813-8.5,8.5-8.5s8.5,3.814,8.5,8.5
			C296.5,176.686,292.687,180.5,288,180.5z"/>
	</g>
</g>
<g>
	<g>
		<path d="M232,212.5c-17.369,0-31.5,14.131-31.5,31.5s14.131,31.5,31.5,31.5s31.5-14.131,31.5-31.5
			C263.5,226.631,249.369,212.5,232,212.5z M232,260.5c-9.098,0-16.5-7.402-16.5-16.5s7.402-16.5,16.5-16.5s16.5,7.402,16.5,16.5
			S241.098,260.5,232,260.5z"/>
	</g>
</g>
<g>
	<g>
		<path d="M215.5,316c0-12.958-10.542-23.5-23.5-23.5s-23.5,10.542-23.5,23.5c0,3.258,0.667,6.363,1.871,9.186
			C160.123,327.715,152.5,336.982,152.5,348c0,12.958,10.542,23.5,23.5,23.5s23.5-10.542,23.5-23.5c0-3.258-0.668-6.363-1.871-9.186
			C207.877,336.285,215.5,327.018,215.5,316z M176,356.5c-4.687,0-8.5-3.814-8.5-8.5c0-4.686,3.813-8.5,8.5-8.5s8.5,3.814,8.5,8.5
			C184.5,352.686,180.687,356.5,176,356.5z M192,324.5c-4.687,0-8.5-3.814-8.5-8.5c0-4.686,3.813-8.5,8.5-8.5s8.5,3.814,8.5,8.5
			C200.5,320.686,196.687,324.5,192,324.5z"/>
	</g>
</g>
<g>
	<g>
		<path d="M136,228.5c-17.369,0-31.5,14.131-31.5,31.5s14.131,31.5,31.5,31.5s31.5-14.131,31.5-31.5
			C167.5,242.631,153.369,228.5,136,228.5z M136,276.5c-9.098,0-16.5-7.402-16.5-16.5c0-9.098,7.402-16.5,16.5-16.5
			s16.5,7.402,16.5,16.5C152.5,269.098,145.098,276.5,136,276.5z"/>
	</g>
</g>
<g>
	<g>
		<path d="M376.5,204.5c-0.115,0-0.228,0.004-0.343,0.004C355.26,133.55,290.044,84.5,215.5,84.5C123.14,84.5,48,159.641,48,252
			s75.14,167.5,167.5,167.5c15.95,0,31.665-2.234,46.804-6.636c24.1,37.638,66.283,62.636,114.196,62.636
			c74.715,0,135.5-60.785,135.5-135.5S451.215,204.5,376.5,204.5z M215.5,404.5C131.411,404.5,63,336.089,63,252
			S131.411,99.5,215.5,99.5c66.699,0,125.195,43.124,145.251,105.92C293.429,213.249,241,270.612,241,340
			c0,21.296,4.945,41.457,13.737,59.405C242.005,402.788,228.845,404.5,215.5,404.5z M376.5,460.5
			C310.056,460.5,256,406.444,256,340s54.056-120.5,120.5-120.5S497,273.556,497,340S442.944,460.5,376.5,460.5z"/>
	</g>
</g>
<g>
	<g>
		<path d="M376.5,236.5C319.43,236.5,273,282.93,273,340s46.43,103.5,103.5,103.5S480,397.07,480,340S433.57,236.5,376.5,236.5z
			 M376.5,428.5c-48.799,0-88.5-39.701-88.5-88.5s39.701-88.5,88.5-88.5S465,291.201,465,340S425.299,428.5,376.5,428.5z"/>
	</g>
</g>
<g>
	<g>
		<path d="M422.09,373.001c-1.969-4.001-5.392-7.229-9.915-9.819l9.628-9.753l-10.606-10.67l-14.806,14.774
			c-1.425-0.25-2.893-0.481-4.391-0.64V348h-15v8.894c-1.499,0.158-2.966,0.359-4.391,0.608l-14.806-14.806l-10.606,10.607
			l9.628,9.878c-4.523,2.59-7.946,5.818-9.915,9.818H336v15h10.91c1.969,3,5.392,6.728,9.915,9.318l-9.628,9.503l10.606,10.545
			l14.806-14.837c1.425,0.25,2.893,0.419,4.391,0.577V412h15v-8.894c1.499-0.158,2.966-0.359,4.391-0.608l14.806,14.806
			l10.606-10.607l-9.628-9.378c4.523-2.59,7.946-6.318,9.915-9.318H432v-15H422.09z M384.5,388.5c-16.076,0-24.5-6.315-24.5-8.5
			s8.424-8.5,24.5-8.5s24.5,6.315,24.5,8.5S400.576,388.5,384.5,388.5z"/>
	</g>
</g>
<g>
	<g>
		<path d="M406.09,293.001c-1.969-4-5.392-7.228-9.915-9.818l9.628-9.753l-10.606-10.67l-14.806,14.774
			c-1.425-0.25-2.893-0.481-4.391-0.64V268h-15v8.894c-1.499,0.158-2.966,0.359-4.391,0.608l-14.806-14.806l-10.606,10.607
			l9.628,9.878c-4.523,2.59-7.946,5.818-9.915,9.818H320v15h10.91c1.969,3,5.392,6.728,9.915,9.318l-9.628,9.503l10.606,10.484
			l14.806-14.806c1.425,0.25,2.893,0.45,4.391,0.608V332h15v-8.894c1.499-0.158,2.966-0.359,4.391-0.608l14.806,14.806
			l10.606-10.607l-9.628-9.378c4.523-2.59,7.946-6.318,9.915-9.318H416v-15H406.09z M368.5,308.5c-16.076,0-24.5-6.315-24.5-8.5
			s8.424-8.5,24.5-8.5s24.5,6.315,24.5,8.5S384.576,308.5,368.5,308.5z"/>
	</g>
</g>
<g>
	<g>
		<rect x="304" y="357" width="16" height="15"/>
	</g>
</g>
<g>
	<g>
		<rect x="432" y="309" width="16" height="15"/>
	</g>
</g>
<g>
	<g>
		<rect x="432" y="341" width="16" height="15"/>
	</g>
</g>
<g>
</g>
<g>
</g>
<g>
</g>
<g>
</g>
<g>
</g>
<g>
</g>
<g>
</g>
<g>
</g>
<g>
</g>
<g>
</g>
<g>
</g>
<g>
</g>
<g>
</g>
<g>
</g>
<g>
</g>
</svg>
