<?xml version="1.0" encoding="iso-8859-1"?>
<!-- Generator: Adobe Illustrator 19.0.0, SVG Export Plug-In . SVG Version: 6.00 Build 0)  -->
<svg version="1.1" id="Capa_1" xmlns="http://www.w3.org/2000/svg" xmlns:xlink="http://www.w3.org/1999/xlink" x="0px" y="0px"
	 viewBox="0 0 512 512" style="enable-background:new 0 0 512 512;" xml:space="preserve">
<g>
	<g>
		<path d="M436.004,318.85l-7.51,12.984c4.567,2.642,8.837,5.672,12.794,9.02L316.625,465.519
			c-13.016-15.413-20.875-35.314-20.875-57.019c0-10.125,1.693-20.051,5.034-29.5l-14.142-5c-3.909,11.059-5.892,22.667-5.892,34.5
			c0,57.07,46.43,103.5,103.5,103.5s103.5-46.43,103.5-103.5C487.75,371.665,467.922,337.313,436.004,318.85z M384.25,497
			c-21.705,0-41.606-7.859-57.018-20.874L451.876,351.48c13.245,15.754,20.874,35.907,20.874,57.02
			C472.75,457.299,433.049,497,384.25,497z"/>
	</g>
</g>
<g>
	<g>
		<path d="M320.25,161c-57.07,0-103.5,46.43-103.5,103.5S263.18,368,320.25,368s103.5-46.43,103.5-103.5S377.32,161,320.25,161z
			 M312.25,352.679c-45-3.82-81-41.906-81-88.179s36-84.359,81-88.179V352.679z M327.25,352.679V176.321
			c46,3.82,81,41.906,81,88.179S373.25,348.859,327.25,352.679z"/>
	</g>
</g>
<g>
	<g>
		<rect x="272.25" y="305" width="16" height="15"/>
	</g>
</g>
<g>
	<g>
		<rect x="320.25" y="417" width="16" height="15"/>
	</g>
</g>
<g>
	<g>
		<path d="M111.75,0c-48.248,0-87.5,39.252-87.5,87.5v160c0,48.248,39.252,87.5,87.5,87.5s87.5-39.252,87.5-87.5v-160
			C199.25,39.252,159.998,0,111.75,0z M184.25,247.5c0,39.977-32.523,72.5-72.5,72.5s-72.5-32.523-72.5-72.5V175h145V247.5z
			 M184.25,160h-145V87.5c0-39.977,32.523-72.5,72.5-72.5s72.5,32.523,72.5,72.5V160z"/>
	</g>
</g>
<g>
	<g>
		<rect x="64.25" y="64" width="16" height="15"/>
	</g>
</g>
<g>
	<g>
		<rect x="64.25" y="112" width="16" height="15"/>
	</g>
</g>
<g>
	<g>
		<path d="M152.25,216v31.5c0,22.332-17.668,40.5-40,40.5v15c30.602,0,55-24.897,55-55.5V216H152.25z"/>
	</g>
</g>
<g>
</g>
<g>
</g>
<g>
</g>
<g>
</g>
<g>
</g>
<g>
</g>
<g>
</g>
<g>
</g>
<g>
</g>
<g>
</g>
<g>
</g>
<g>
</g>
<g>
</g>
<g>
</g>
<g>
</g>
</svg>
