<?xml version="1.0" encoding="iso-8859-1"?>
<!-- Generator: Adobe Illustrator 19.0.0, SVG Export Plug-In . SVG Version: 6.00 Build 0)  -->
<svg version="1.1" id="Capa_1" xmlns="http://www.w3.org/2000/svg" xmlns:xlink="http://www.w3.org/1999/xlink" x="0px" y="0px"
	 viewBox="0 0 512 512" style="enable-background:new 0 0 512 512;" xml:space="preserve">
<g>
	<g>
		<path d="M192.355,0c-12.958,0-23.5,10.542-23.5,23.5s10.542,23.5,23.5,23.5c12.958,0,23.5-10.542,23.5-23.5S205.313,0,192.355,0z
			 M192.355,32c-4.686,0-8.5-3.813-8.5-8.5s3.814-8.5,8.5-8.5c4.687,0,8.5,3.813,8.5,8.5S197.042,32,192.355,32z"/>
	</g>
</g>
<g>
	<g>
		<rect x="368.36" y="73" width="16" height="15"/>
	</g>
</g>
<g>
	<g>
		<rect x="240.351" y="25" width="16" height="15"/>
	</g>
</g>
<g>
	<g>
		<rect x="160.351" y="57" width="16" height="15"/>
	</g>
</g>
<g>
	<g>
		<path d="M425.706,360h29.65v-47h-31.669c-1.467-34-12.788-65.72-32.975-92.79c-19.849-26.616-47.692-47.196-78.853-58.166
			l-0.004-17.983l-15-0.028l0.006,28.815l5.251,1.642c30.293,9.516,57.488,29.098,76.575,54.692
			C396.927,253.641,407.214,282,408.669,313H176.355v15h264v17h-369v-17h73v-15h-40.313c1.456-31,11.742-59.365,29.982-83.824
			c19.088-25.595,46.034-45.056,76.328-54.571l5.003-1.774V136h128V89h-175v47h32v25.919c-31,10.969-58.755,31.674-78.605,58.29
			C101.563,247.279,90.49,279,89.024,313H56.355v47h30.651L57.034,494.623l14.643,3.129l26.939-121.289
			c10.109,28.188,27.506,53.446,50.844,72.736c27.979,23.126,62.895,36.498,98.895,38.13V512h15v-24.671
			c37-1.632,71.418-15.035,99.396-38.161c23.337-19.289,41.109-44.578,51.218-72.766l27.001,121.225l14.674-3.004L425.706,360z
			 M183.355,121v-17h145v17H183.355z M248.356,472.307L248.356,472.307c-32-1.62-64.043-13.543-89.34-34.451
			C143.498,425.031,131,409,121.662,392h51.875c-2.965,4-4.681,10.204-4.681,16.25c0,17.369,14.131,31.375,31.5,31.375
			c17.369,0,31.5-13.943,31.5-31.313c0-6.046-1.716-12.313-4.681-16.313h21.181V472.307z M183.855,408c0-9.098,7.402-16.5,16.5-16.5
			c9.098,0,16.5,7.402,16.5,16.5c0,9.098-7.402,16.5-16.5,16.5C191.258,424.5,183.855,417.098,183.855,408z M248.356,377
			L248.356,377H114.693c-2.218-6-4.114-12-5.665-17h139.328V377z M398.02,377H288.356v15h102.694
			c-9.337,17-22.337,33.031-37.853,45.855c-25.297,20.909-56.841,32.832-89.841,34.452V360h140.328
			C402.133,365,400.237,371,398.02,377z"/>
	</g>
</g>
<g>
	<g>
		<path d="M304.356,248.5c-12.958,0-23.5,10.542-23.5,23.5s10.542,23.5,23.5,23.5s23.5-10.542,23.5-23.5
			S317.314,248.5,304.356,248.5z M304.356,280.5c-4.687,0-8.5-3.813-8.5-8.5s3.813-8.5,8.5-8.5c4.686,0,8.5,3.813,8.5,8.5
			S309.042,280.5,304.356,280.5z"/>
	</g>
</g>
<g>
	<g>
		<path d="M240.355,168.5c-12.958,0-23.5,10.542-23.5,23.5s10.542,23.5,23.5,23.5c12.958,0,23.5-10.542,23.5-23.5
			S253.313,168.5,240.355,168.5z M240.355,200.5c-4.686,0-8.5-3.813-8.5-8.5s3.814-8.5,8.5-8.5c4.687,0,8.5,3.813,8.5,8.5
			S245.042,200.5,240.355,200.5z"/>
	</g>
</g>
<g>
	<g>
		<rect x="160.351" y="281" width="16" height="15"/>
	</g>
</g>
<g>
	<g>
		<rect x="336.36" y="233" width="16" height="15"/>
	</g>
</g>
<g>
	<g>
		<rect x="320.36" y="409" width="16" height="15"/>
	</g>
</g>
<g>
	<g>
		<path d="M320.356,24.5c-12.958,0-23.5,10.542-23.5,23.5s10.542,23.5,23.5,23.5s23.5-10.542,23.5-23.5S333.314,24.5,320.356,24.5z
			 M320.356,56.5c-4.687,0-8.5-3.813-8.5-8.5s3.813-8.5,8.5-8.5c4.686,0,8.5,3.813,8.5,8.5S325.042,56.5,320.356,56.5z"/>
	</g>
</g>
<g>
</g>
<g>
</g>
<g>
</g>
<g>
</g>
<g>
</g>
<g>
</g>
<g>
</g>
<g>
</g>
<g>
</g>
<g>
</g>
<g>
</g>
<g>
</g>
<g>
</g>
<g>
</g>
<g>
</g>
</svg>
