<?xml version="1.0" encoding="iso-8859-1"?>
<!-- Generator: Adobe Illustrator 19.0.0, SVG Export Plug-In . SVG Version: 6.00 Build 0)  -->
<svg version="1.1" id="Capa_1" xmlns="http://www.w3.org/2000/svg" xmlns:xlink="http://www.w3.org/1999/xlink" x="0px" y="0px"
	 viewBox="0 0 512 512" style="enable-background:new 0 0 512 512;" xml:space="preserve">
<g>
	<g>
		<rect x="440.5" y="88" width="15" height="64"/>
	</g>
</g>
<g>
	<g>
		<path d="M352.25,168.385l63.875,32l71.375-35.75v-89.27l-64-32V0h-15v43.365l-54.769,27.509l-28.052-28.177l-10.795,10.606
			L344.5,83.107v72.258l-17,8.5V120h9v-15h-312v79h32v328h271v-64h-15v49h-241v-69h201v-15h-201V268h209v8.635l32,16v120.258
			l-29.554,29.804l10.732,10.606l59.99-60.177l54.831,27.51V464h15v-43.365l64-32v-89.271l-64-32V224h-15v43.365l-56.5,28.25
			l-56.5-28.25v-70.729L352.25,168.385z M359.5,84.635l56.5-28.25l56.5,28.25v70.729l-56.5,28.25l-56.5-28.25V84.635z M295.5,120h17
			v49h-17V120z M56.5,169h-17v-49h17V169z M327.5,300.135l24.625,12.25l64.125-32l56.25,28.25v70.729l-56.5,28.25l-56.5-28.25V336
			h-15v44.893l-17,17V300.135z M263.5,120h17v49h-17V120z M231.5,120h17v49h-17V120z M199.5,120h17v49h-17V120z M167.5,120h17v49
			h-17V120z M135.5,120h17v49h-17V120z M103.5,120h17v49h-17V120z M71.5,120h17v49h-17V120z M280.5,187.365V253h-209v-69h217.229
			L280.5,187.365z"/>
	</g>
</g>
<g>
	<g>
		<rect x="384.5" y="137" width="16" height="15"/>
	</g>
</g>
<g>
	<g>
		<rect x="432.5" y="313" width="16" height="15"/>
	</g>
</g>
<g>
	<g>
		<rect x="96.5" y="309" width="176" height="15"/>
	</g>
</g>
<g>
	<g>
		<rect x="96.5" y="357" width="128" height="15"/>
	</g>
</g>
<g>
	<g>
		<rect x="376.5" y="312" width="15" height="64"/>
	</g>
</g>
<g>
</g>
<g>
</g>
<g>
</g>
<g>
</g>
<g>
</g>
<g>
</g>
<g>
</g>
<g>
</g>
<g>
</g>
<g>
</g>
<g>
</g>
<g>
</g>
<g>
</g>
<g>
</g>
<g>
</g>
</svg>
