<?xml version="1.0" encoding="iso-8859-1"?>
<!-- Generator: Adobe Illustrator 19.0.0, SVG Export Plug-In . SVG Version: 6.00 Build 0)  -->
<svg version="1.1" id="Capa_1" xmlns="http://www.w3.org/2000/svg" xmlns:xlink="http://www.w3.org/1999/xlink" x="0px" y="0px"
	 viewBox="0 0 512 512" style="enable-background:new 0 0 512 512;" xml:space="preserve">
<g>
	<g>
		<rect x="174.996" y="376.751" width="16" height="15"/>
	</g>
</g>
<g>
	<g>
		<rect x="222.994" y="376.751" width="16" height="15"/>
	</g>
</g>
<g>
	<g>
		<rect x="270.993" y="376.751" width="16" height="15"/>
	</g>
</g>
<g>
	<g>
		<path d="M143.996,152.252c-21.779,0-39.499,17.72-39.499,39.499c0,21.779,17.72,39.499,39.499,39.499
			c21.779,0,39.499-17.72,39.499-39.499C183.495,169.972,165.776,152.252,143.996,152.252z M143.995,167.752
			c10.895,0,20.146,7,23.321,17h-46.642C123.851,174.752,133.103,167.752,143.995,167.752z M143.996,216.751
			c-10.894,0-20.146-8-23.32-17h46.642C164.142,208.751,154.89,216.751,143.996,216.751z"/>
	</g>
</g>
<g>
	<g>
		<path d="M239.994,72.254c-21.779,0-39.499,17.72-39.499,39.499c0,21.779,17.72,39.499,39.499,39.499
			c21.779,0,39.499-17.72,39.499-39.499C279.493,89.974,261.773,72.254,239.994,72.254z M231.994,135.075
			c-9-3.176-17-12.427-17-23.32c0-10.894,8-20.145,17-23.321V135.075z M246.994,135.074V88.433c10,3.176,17,12.427,17,23.32
			C263.993,122.647,256.993,131.899,246.994,135.074z"/>
	</g>
</g>
<g>
	<g>
		<path d="M135.497,24.255c-17.369,0-31.499,14.131-31.499,31.499v31.999c0,17.369,14.131,31.499,31.499,31.499
			c17.369,0,31.499-14.131,31.499-31.499V55.755C166.996,38.386,152.865,24.255,135.497,24.255z M151.996,87.754
			c0,9.098-7.402,16.5-16.5,16.5s-16.5-7.402-16.5-16.5v-8h32.999V87.754z M151.996,64.754h-32.999v-9c0-9.098,7.402-16.5,16.5-16.5
			c9.098,0,16.5,7.402,16.5,16.5V64.754z"/>
	</g>
</g>
<g>
	<g>
		<path d="M424.05,232.314l11.098,10.092l66.991-73.663c10.276-11.559,12.723-27.505,6.387-41.614
			c-6.337-14.11-19.88-22.874-35.347-22.874c-8.329,0-16.585,3.002-23.248,8L268.267,248.751H23.499
			C10.542,248.751,0,259.293,0,272.25c0,12.958,10.542,23.499,23.499,23.499h8.655c2.971,78.998,53.184,146.996,123.478,176.995
			h-36.635v15h223.994v-15h-35.635c70.294-29.999,120.507-97.997,123.478-176.995h8.655c12.958,0,23.499-10.542,23.499-23.499
			c0-12.958-10.542-23.499-23.499-23.499H293.268L458.93,124.254c4.084-3.063,9.144-4.875,14.248-4.875
			c9.623,0,17.722,5.179,21.663,13.957s2.479,18.282-3.857,25.41L424.05,232.314z M231.494,472.744
			c-99.219,0-180.38-78.998-184.33-176.996h368.661C411.875,393.746,330.713,472.744,231.494,472.744z M439.489,263.749
			c4.687,0,8.5,3.814,8.5,8.5c0,4.686-3.813,8.5-8.5,8.5H23.499c-4.687,0-8.5-3.814-8.5-8.5c0-4.686,3.813-8.5,8.5-8.5H439.489z"/>
	</g>
</g>
<g>
</g>
<g>
</g>
<g>
</g>
<g>
</g>
<g>
</g>
<g>
</g>
<g>
</g>
<g>
</g>
<g>
</g>
<g>
</g>
<g>
</g>
<g>
</g>
<g>
</g>
<g>
</g>
<g>
</g>
</svg>
