<?xml version="1.0" encoding="iso-8859-1"?>
<!-- Generator: Adobe Illustrator 19.0.0, SVG Export Plug-In . SVG Version: 6.00 Build 0)  -->
<svg version="1.1" id="Capa_1" xmlns="http://www.w3.org/2000/svg" xmlns:xlink="http://www.w3.org/1999/xlink" x="0px" y="0px"
	 viewBox="0 0 512 512" style="enable-background:new 0 0 512 512;" xml:space="preserve">
<g>
	<g>
		<path d="M336.5,89h-25.734c-2.342-7-8.266-12.924-15.266-15.266V41h-16V0h-47v41h-16v144h-8v15h9.223
			c3.514,18,19.561,32,38.777,32s35.262-14,38.777-32h9.223v-15h-9v-41h-15v41h-49V56h49v17.734c-9,3.138-15.75,11.93-15.75,22.266
			c0,12.958,10.667,23.75,23.625,23.75c10.336,0,19.253-6.75,22.391-15.75H336.5c31.154,0,56,24.846,56,56v170.11
			c-10-10.826-24.036-17.11-40-17.11h-48v15h24v17h-145v-17h89v-15h-104v47h175v-32h9c22.332,0,40,17.668,40,40v41h-288v103h43.106
			l32-32h153.787l32,32H407.5V160C407.5,120.575,375.925,89,336.5,89z M279.821,200c-3.176,9-12.427,17-23.321,17
			c-10.894,0-20.145-8-23.321-17H279.821z M264.5,41h-17V15h17V41z M288.5,104.5c-4.686,0-8.5-3.813-8.5-8.5s3.814-8.5,8.5-8.5
			c4.686,0,8.5,3.813,8.5,8.5S293.186,104.5,288.5,104.5z M141.394,497H119.5v-17h38.894L141.394,497z M392.5,497h-20.894l-17-17
			H392.5V497z M392.5,465h-273v-41h273V465z"/>
	</g>
</g>
<g>
	<g>
		<rect x="200.5" y="437" width="16" height="15"/>
	</g>
</g>
<g>
	<g>
		<rect x="248.5" y="437" width="16" height="15"/>
	</g>
</g>
<g>
	<g>
		<rect x="296.5" y="437" width="16" height="15"/>
	</g>
</g>
<g>
</g>
<g>
</g>
<g>
</g>
<g>
</g>
<g>
</g>
<g>
</g>
<g>
</g>
<g>
</g>
<g>
</g>
<g>
</g>
<g>
</g>
<g>
</g>
<g>
</g>
<g>
</g>
<g>
</g>
</svg>
