<?xml version="1.0" encoding="iso-8859-1"?>
<!-- Generator: Adobe Illustrator 19.0.0, SVG Export Plug-In . SVG Version: 6.00 Build 0)  -->
<svg version="1.1" id="Capa_1" xmlns="http://www.w3.org/2000/svg" xmlns:xlink="http://www.w3.org/1999/xlink" x="0px" y="0px"
	 viewBox="0 0 512 512" style="enable-background:new 0 0 512 512;" xml:space="preserve">
<g>
	<g>
		<path d="M328.5,120.562c-2.719,0-5.329,0.438-7.76,1.291l-21.128-28.19c2.758-3.85,4.388-8.568,4.388-13.655
			c0-12.958-10.542-23.504-23.5-23.504S257,67.044,257,80.002c0,4.785,1.441,9.237,3.907,12.954l-21.445,28.597
			c-2.201-0.684-4.539-1.053-6.962-1.053c-12.958,0-23.5,10.542-23.5,23.5s10.542,23.5,23.5,23.5S256,156.958,256,144
			c0-5.087-1.63-9.797-4.387-13.648l21.128-28.175c2.431,0.853,5.041,1.323,7.76,1.323c2.423,0,4.761-0.369,6.962-1.053
			l21.445,28.848c-1.114,1.68-2.016,3.705-2.672,5.705H264.5v15h41.734c3.138,9,11.93,15.75,22.266,15.75
			c12.958,0,23.5-10.667,23.5-23.625S341.458,120.562,328.5,120.562z M232.5,152.5c-4.687,0-8.5-3.813-8.5-8.5s3.813-8.5,8.5-8.5
			s8.5,3.813,8.5,8.5S237.187,152.5,232.5,152.5z M280.5,88.5c-4.687,0-8.5-3.813-8.5-8.5s3.813-8.5,8.5-8.5s8.5,3.813,8.5,8.5
			S285.187,88.5,280.5,88.5z M328.5,152.5c-4.687,0-8.5-3.813-8.5-8.5s3.813-8.5,8.5-8.5s8.5,3.813,8.5,8.5
			S333.187,152.5,328.5,152.5z"/>
	</g>
</g>
<g>
	<g>
		<path d="M120.5,0c-21.78,0-40,17.72-40,39.5V448c0,21.78,18.22,40,40,40h56v24h63v-56h137v-15h-240v15h40v17h-56
			c-13.509,0-24.5-10.991-24.5-24.5c0-13.509,10.991-24.5,24.5-24.5h272c9.25,0,18-3.705,24-9.051V448c0,13.509-10.491,25-24,25
			h-128v15h128c21.78,0,39-18.22,39-40V0H120.5z M191.5,456h33v41h-33V456z M416.5,384c0,13.509-10.491,25-24,25h-272
			c-9.25,0-18,2.705-25,8.051V39.5c0-13.509,11.491-24.5,25-24.5h8v369h15V15h273V384z"/>
	</g>
</g>
<g>
	<g>
		<rect x="232.5" y="265" width="96" height="15"/>
	</g>
</g>
<g>
	<g>
		<rect x="232.5" y="329" width="96" height="15"/>
	</g>
</g>
<g>
	<g>
		<rect x="200.5" y="297" width="160" height="15"/>
	</g>
</g>
<g>
	<g>
		<rect x="224.5" y="217" width="16" height="15"/>
	</g>
</g>
<g>
	<g>
		<rect x="272.5" y="217" width="16" height="15"/>
	</g>
</g>
<g>
	<g>
		<rect x="320.5" y="217" width="16" height="15"/>
	</g>
</g>
<g>
</g>
<g>
</g>
<g>
</g>
<g>
</g>
<g>
</g>
<g>
</g>
<g>
</g>
<g>
</g>
<g>
</g>
<g>
</g>
<g>
</g>
<g>
</g>
<g>
</g>
<g>
</g>
<g>
</g>
</svg>
