<svg height="511pt" viewBox="-97 1 511 511.969" width="511pt" xmlns="http://www.w3.org/2000/svg"><path d="m261.214844 136.671875h-205.363282c-4.140624 0-7.5-3.355469-7.5-7.5v-29.558594c0-4.140625 3.359376-7.5 7.5-7.5h205.363282c4.144531 0 7.5 3.359375 7.5 7.5v29.558594c0 4.144531-3.355469 7.5-7.5 7.5zm-197.863282-15h190.363282v-14.558594h-190.363282zm0 0"/><path d="m273.160156 107.117188h-229.253906c-12.28125 0-22.277344-9.996094-22.277344-22.28125 0-12.285157 9.996094-22.28125 22.277344-22.28125h229.253906c12.285156 0 22.277344 9.996093 22.277344 22.28125 0 12.285156-9.992188 22.28125-22.277344 22.28125zm-229.253906-29.5625c-4.011719 0-7.277344 3.265624-7.277344 7.28125 0 4.011718 3.265625 7.277343 7.277344 7.277343h229.253906c4.011719 0 7.277344-3.265625 7.277344-7.277343 0-4.015626-3.265625-7.28125-7.277344-7.28125zm0 0"/><path d="m270.238281 77.554688h-223.40625c-4.144531 0-7.503906-3.355469-7.503906-7.5v-46.054688c0-13.234375 10.765625-24 24-24h190.414063c13.230468 0 23.996093 10.765625 23.996093 24v46.054688c0 4.144531-3.355469 7.5-7.5 7.5zm-215.90625-15h208.40625v-38.554688c0-4.960938-4.035156-9-8.996093-9h-190.414063c-4.960937 0-8.996094 4.039062-8.996094 9zm0 0"/><path d="m145.746094 394.1875c-4.726563 0-9.492188-1.449219-13.582032-4.457031-4.941406-3.636719-8.171874-8.980469-9.09375-15.042969-.925781-6.066406.566407-12.128906 4.203126-17.070312l13.105468-17.8125h-19.410156c-8.699219 0-16.550781-4.832032-20.484375-12.609376-3.933594-7.773437-3.171875-16.957031 1.980469-23.96875l40.015625-54.390624c3.636719-4.941407 8.976562-8.171876 15.042969-9.09375 6.0625-.925782 12.125.566406 17.066406 4.203124 4.941406 3.632813 8.171875 8.976563 9.097656 15.042969.921875 6.0625-.570312 12.125-4.207031 17.066407l-13.105469 17.8125h19.414062c8.699219 0 16.546876 4.832031 20.480469 12.609374 3.933594 7.777344 3.175781 16.960938-1.980469 23.96875l-40.011718 54.390626c-4.496094 6.113281-11.46875 9.351562-18.53125 9.351562zm15.25-139.710938c-.402344 0-.808594.03125-1.214844.09375-2.105469.316407-3.957031 1.4375-5.21875 3.152344l-40.011719 54.394532c-1.8125 2.460937-2.066406 5.566406-.679687 8.304687 1.386718 2.742187 4.039062 4.378906 7.097656 4.378906h34.238281c2.828125 0 5.417969 1.59375 6.695313 4.117188 1.273437 2.523437 1.023437 5.550781-.652344 7.828125l-21.890625 29.761718c-1.261719 1.714844-1.78125 3.816407-1.460937 5.917969.320312 2.105469 1.441406 3.957031 3.15625 5.21875 3.539062 2.601563 8.535156 1.839844 11.136718-1.695312l40.015625-54.394531c1.808594-2.460938 2.0625-5.566407.679688-8.308594-1.390625-2.742188-4.042969-4.378906-7.097657-4.378906h-34.242187c-2.828125 0-5.414063-1.589844-6.691406-4.113282-1.277344-2.523437-1.023438-5.550781.648437-7.828125l21.894532-29.761719c1.261718-1.714843 1.777343-3.816406 1.457031-5.917968-.320313-2.105469-1.441407-3.957032-3.152344-5.21875-1.386719-1.015625-3.023437-1.550782-4.707031-1.550782zm0 0"/><path d="m241.277344 278.527344c-13.515625 0-26.222656-5.265625-35.78125-14.824219-19.726563-19.726563-19.726563-51.832031 0-71.5625 9.558594-9.554687 22.265625-14.820313 35.78125-14.820313s26.226562 5.265626 35.78125 14.820313c19.730468 19.730469 19.730468 51.835937 0 71.5625-9.554688 9.558594-22.261719 14.824219-35.78125 14.824219zm-25.171875-75.777344c-13.882813 13.878906-13.882813 36.464844 0 50.347656 6.722656 6.722656 15.664062 10.425782 25.171875 10.425782 9.511718 0 18.449218-3.703126 25.175781-10.425782 13.882813-13.882812 13.878906-36.46875 0-50.347656-6.726563-6.726562-15.664063-10.429688-25.175781-10.429688-9.507813 0-18.449219 3.703126-25.171875 10.429688zm0 0"/><path d="m243.34375 426.675781h-179.929688c-10.960937 0-19.875-8.914062-19.875-19.875v-179.929687c0-10.957032 8.914063-19.875 19.875-19.875h136.910157c2.40625 0 4.664062 1.152344 6.074219 3.101562 1.410156 1.945313 1.800781 4.453125 1.054687 6.738282-1.175781 3.582031-1.773437 7.3125-1.773437 11.085937 0 11.710937 5.503906 22.3125 15.09375 29.082031 9.578124 6.761719 21.398437 8.390625 32.429687 4.46875 2.296875-.816406 4.847656-.46875 6.839844.9375 1.988281 1.40625 3.175781 3.691406 3.175781 6.128906v138.261719c0 10.960938-8.917969 19.875-19.875 19.875zm-179.929688-204.675781c-2.644531 0-4.875 2.230469-4.875 4.871094v179.929687c0 2.644531 2.230469 4.875 4.875 4.875h179.929688c2.640625 0 4.871094-2.230469 4.871094-4.875v-128.71875c-12.609375 1.804688-25.34375-1.234375-36.089844-8.820312-13.628906-9.621094-21.445312-24.6875-21.445312-41.339844 0-1.984375.117187-3.960937.347656-5.921875zm0 0"/><path d="m241.28125 278.5c-12.957031 0-25.914062-4.933594-35.78125-14.796875-9.558594-9.558594-14.820312-22.265625-14.820312-35.78125s5.265624-26.226563 14.820312-35.78125c2.929688-2.929687 7.679688-2.929687 10.609375 0l60.953125 60.957031c1.40625 1.40625 2.199219 3.3125 2.199219 5.300782 0 1.992187-.792969 3.898437-2.199219 5.304687-9.863281 9.867187-22.820312 14.796875-35.78125 14.796875zm-29.921875-69.890625c-3.695313 5.703125-5.679687 12.355469-5.679687 19.3125 0 9.507813 3.703124 18.449219 10.429687 25.171875 6.722656 6.726562 15.664063 10.429688 25.171875 10.429688 6.960938 0 13.613281-1.984376 19.316406-5.683594zm0 0"/><path d="m262.164062 512h-86.128906c-4.140625 0-7.5-3.355469-7.5-7.5s3.359375-7.5 7.5-7.5h86.128906c21.730469 0 39.414063-17.683594 39.414063-39.417969v-129.933593c0-4.144532 3.355469-7.503907 7.5-7.503907s7.5 3.359375 7.5 7.503907v129.933593c0 30.007813-24.410156 54.417969-54.414063 54.417969zm0 0"/><path d="m141.03125 512h-86.125c-30.003906 0-54.414062-24.410156-54.414062-54.417969v-281.496093c0-30.003907 24.410156-54.414063 54.414062-54.414063h207.253906c30.007813 0 54.417969 24.410156 54.417969 54.414063v116.558593c0 4.144531-3.359375 7.5-7.5 7.5-4.144531 0-7.5-3.355469-7.5-7.5v-116.558593c0-21.730469-17.683594-39.414063-39.417969-39.414063h-207.253906c-21.734375 0-39.414062 17.683594-39.414062 39.414063v281.496093c0 21.734375 17.679687 39.417969 39.414062 39.417969h86.125c4.144531 0 7.503906 3.355469 7.503906 7.5 0 4.140625-3.359375 7.5-7.503906 7.5zm0 0"/></svg>