<svg height="511pt" viewBox="-39 1 511 511.976" width="511pt" xmlns="http://www.w3.org/2000/svg"><path d="m217.5 312.511719c-16.878906 0-30.613281-13.730469-30.613281-30.609375s13.734375-30.609375 30.613281-30.609375 30.609375 13.730469 30.609375 30.609375-13.730469 30.609375-30.609375 30.609375zm0-46.21875c-8.609375 0-15.609375 7-15.609375 15.609375 0 8.605468 7 15.609375 15.609375 15.609375 8.605469 0 15.609375-7.003907 15.609375-15.609375 0-8.609375-7.003906-15.609375-15.609375-15.609375zm0 0"/><path d="m199.257812 303.582031h-50.917968c-11.953125 0-21.679688-9.726562-21.679688-21.679687 0-11.957032 9.726563-21.679688 21.679688-21.679688h50.917968c2.863282 0 5.476563 1.628906 6.738282 4.203125 1.257812 2.574219.941406 5.640625-.820313 7.902344-2.148437 2.761719-3.285156 6.070313-3.285156 9.570313s1.136719 6.8125 3.285156 9.578124c1.761719 2.257813 2.078125 5.324219.820313 7.898438-1.261719 2.574219-3.875 4.207031-6.738282 4.207031zm-50.917968-28.359375c-3.683594 0-6.679688 2.996094-6.679688 6.679688s2.996094 6.679687 6.679688 6.679687h39.273437c-.480469-2.167969-.722656-4.402343-.722656-6.679687 0-2.273438.242187-4.511719.722656-6.679688zm0 0"/><path d="m203.320312 271.160156c-1.121093 0-2.25-.253906-3.292968-.761718-2.574219-1.261719-4.207032-3.875-4.207032-6.738282v-70.863281c0-11.957031 9.726563-21.683594 21.679688-21.683594s21.679688 9.726563 21.679688 21.683594v70.863281c0 2.863282-1.632813 5.476563-4.207032 6.738282-2.574218 1.253906-5.640625.9375-7.902344-.820313-2.757812-2.152344-6.070312-3.285156-9.570312-3.285156s-6.8125 1.132812-9.574219 3.285156c-1.339843 1.042969-2.96875 1.582031-4.605469 1.582031zm14.179688-85.042968c-3.683594 0-6.679688 2.996093-6.679688 6.679687v59.21875c4.335938-.960937 9.023438-.960937 13.359376 0v-59.21875c0-3.683594-2.996094-6.679687-6.679688-6.679687zm0 0"/><path d="m134.160156 289.402344h-53.417968c-4.144532 0-7.5-3.359375-7.5-7.5 0-79.546875 64.710937-144.257813 144.257812-144.257813 4.140625 0 7.5 3.355469 7.5 7.5v33.472657c0 4.140624-3.355469 7.5-7.5 7.5-3.683594 0-6.679688 2.996093-6.679688 6.679687v70.621094c.070313 2.183593-.820312 4.332031-2.496093 5.828125-.144531.128906-.292969.253906-.449219.371094-1.003906.792968-1.914062 1.703124-2.703125 2.714843-1.421875 1.824219-3.601563 2.890625-5.917969 2.890625h-50.914062c-3.683594 0-6.679688 2.996094-6.679688 6.679688 0 4.140625-3.355468 7.5-7.5 7.5zm-45.703125-15h39.542969c3.058594-8.269532 11.023438-14.179688 20.339844-14.179688h47.480468v-67.425781c0-9.320313 5.910157-17.285156 14.179688-20.34375v-19.59375c-65.3125 3.757813-117.785156 56.230469-121.542969 121.542969zm0 0"/><path d="m340.054688 512c-3.269532 0-6.523438-.75-9.542969-2.234375-5.195313-2.554687-9.089844-6.980469-10.957031-12.460937l-17.050782-50.027344c-1.164062-3.414063.265625-7.167969 3.402344-8.945313 8.167969-4.628906 16.035156-9.941406 23.378906-15.789062 1.910156-1.519531 4.441406-2.015625 6.78125-1.328125 2.34375.683594 4.203125 2.46875 4.992188 4.777344l19.535156 57.324218c1.871094 5.480469 1.492188 11.359375-1.0625 16.558594-2.554688 5.195312-6.980469 9.085938-12.460938 10.953125-2.292968.78125-4.660156 1.171875-7.015624 1.171875zm-21.378907-63.777344 15.078125 44.242188c.574219 1.6875 1.773438 3.050781 3.375 3.839844 1.597656.785156 3.414063.902343 5.101563.324218 1.6875-.574218 3.054687-1.773437 3.839843-3.375.789063-1.601562.902344-3.410156.328126-5.101562l-16.199219-47.527344c-3.75 2.664062-7.601563 5.203125-11.523438 7.597656zm0 0"/><path d="m94.945312 512c-2.355468 0-4.71875-.390625-7.015624-1.171875-5.476563-1.867187-9.90625-5.757813-12.460938-10.953125-2.554688-5.199219-2.933594-11.078125-1.0625-16.5625l19.535156-57.320312c.789063-2.3125 2.648438-4.09375 4.992188-4.78125 2.339844-.683594 4.871094-.1875 6.78125 1.332031 7.351562 5.851562 15.21875 11.164062 23.378906 15.785156 3.136719 1.777344 4.566406 5.535156 3.40625 8.945313l-17.050781 50.03125c-1.871094 5.480468-5.761719 9.90625-10.957031 12.460937-3.023438 1.484375-6.273438 2.234375-9.546876 2.234375zm9.859376-71.375-16.199219 47.527344c-.578125 1.691406-.460938 3.503906.324219 5.105468.789062 1.597657 2.152343 2.796876 3.84375 3.375 1.6875.574219 3.5.457032 5.101562-.328124 1.601562-.789063 2.796875-2.152344 3.375-3.839844l15.078125-44.242188c-3.925781-2.394531-7.773437-4.929687-11.523437-7.597656zm0 0"/><path d="m418.289062 129.027344c-1.371093 0-2.726562-.375-3.917968-1.105469l-127.382813-78.027344c-1.761719-1.082031-3.003906-2.839843-3.425781-4.867187-.421875-2.023438.011719-4.132813 1.199219-5.828125 24.882812-35.5625 73.386719-45.640625 110.429687-22.953125 37.039063 22.691406 50.09375 70.480468 29.722656 108.800781-.972656 1.828125-2.652343 3.171875-4.648437 3.714844-.652344.179687-1.316406.265625-1.976563.265625zm-116.261718-87.511719 112.976562 69.203125c11.578125-29.886719.332032-64.539062-27.648437-81.679688-27.980469-17.140624-63.964844-11.417968-85.328125 12.476563zm0 0"/><path d="m414.066406 152.648438c-2.230468 0-4.421875-.613282-6.371094-1.808594l-138.089843-84.582032c-5.753907-3.527343-7.566407-11.078124-4.042969-16.832031l7.078125-11.558593c3.527344-5.753907 11.074219-7.570313 16.832031-4.042969l138.085938 84.585937c2.789062 1.707032 4.746094 4.398438 5.507812 7.578125.765625 3.179688.246094 6.46875-1.464844 9.253907l-7.078124 11.550781c-1.707032 2.789062-4.394532 4.746093-7.578126 5.511719-.953124.230468-1.917968.34375-2.878906.34375zm-134.269531-97.742188 133.378906 81.699219 4.195313-6.847657-133.378906-81.699218zm139.921875 76.289062s.003906.003907.007812.003907c0 0 0 0-.003906 0zm0 0"/><path d="m16.710938 129.027344c-.660157 0-1.324219-.085938-1.972657-.265625-1.996093-.542969-3.679687-1.886719-4.648437-3.714844-20.375-38.320313-7.320313-86.109375 29.722656-108.800781 37.039062-22.6875 85.542969-12.605469 110.425781 22.953125 1.1875 1.695312 1.621094 3.804687 1.199219 5.828125-.421875 2.027344-1.664062 3.785156-3.425781 4.867187l-127.382813 78.027344c-1.191406.730469-2.546875 1.105469-3.917968 1.105469zm66.027343-109.886719c-12.019531 0-24.164062 3.203125-35.089843 9.898437-27.984376 17.140626-39.230469 51.792969-27.652344 81.679688l112.976562-69.203125c-13.019531-14.5625-31.472656-22.375-50.234375-22.375zm0 0"/><path d="m20.933594 152.648438c-.957032 0-1.925782-.113282-2.882813-.34375-3.179687-.765626-5.867187-2.71875-7.578125-5.507813l-7.078125-11.554687c-1.707031-2.789063-2.226562-6.074219-1.460937-9.253907.761718-3.179687 2.71875-5.871093 5.507812-7.578125l138.085938-84.582031c5.753906-3.527344 13.304687-1.714844 16.832031 4.042969l7.078125 11.554687c1.707031 2.789063 2.226562 6.074219 1.464844 9.253907-.765625 3.179687-2.722656 5.871093-5.507813 7.578124l-138.089843 84.582032c-1.945313 1.195312-4.140626 1.808594-6.371094 1.808594zm-3.304688-22.890626 4.195313 6.847657 133.382812-81.699219-4.195312-6.847656zm-6.269531-4.953124h.011719zm0 0"/><path d="m236.253906 66.675781h-38.441406c-11.085938 0-20.105469-9.015625-20.105469-20.101562v-26.46875c0-11.085938 9.019531-20.105469 20.105469-20.105469h38.441406c11.085938 0 20.101563 9.019531 20.101563 20.105469v26.46875c0 11.085937-9.015625 20.101562-20.101563 20.101562zm-38.441406-51.675781c-2.816406 0-5.105469 2.289062-5.105469 5.105469v26.46875c0 2.8125 2.289063 5.101562 5.105469 5.101562h38.441406c2.8125 0 5.101563-2.289062 5.101563-5.101562v-26.46875c0-2.816407-2.289063-5.105469-5.101563-5.105469zm0 0"/><path d="m203.320312 102.773438c-1.882812 0-3.707031-.710938-5.101562-2-1.527344-1.417969-2.398438-3.410157-2.398438-5.5v-36.097657c0-4.140625 3.359376-7.5 7.5-7.5h28.359376c4.144531 0 7.5 3.359375 7.5 7.5v36.097657c0 2.085937-.867188 4.082031-2.394532 5.5-1.53125 1.417968-3.578125 2.136718-5.664062 1.980468-9.035156-.679687-18.152344-.679687-27.238282 0-.1875.015625-.375.019532-.5625.019532zm7.5-36.097657v20.679688c4.472657-.152344 8.894532-.148438 13.359376 0v-20.679688zm0 0"/><path d="m334.015625 142.941406c-1.683594 0-3.335937-.570312-4.671875-1.636718-5.789062-4.605469-11.894531-8.886719-18.148438-12.714844-3.519531-2.160156-4.636718-6.757813-2.492187-10.289063l16.300781-26.871093c1.035156-1.703126 2.707032-2.925782 4.644532-3.398438 1.9375-.46875 3.984374-.144531 5.6875.894531l19.640624 12.03125c3.519532 2.15625 4.632813 6.753907 2.492188 10.285157l-17.039062 28.089843c-1.117188 1.839844-2.972657 3.113281-5.097657 3.492188-.4375.078125-.878906.117187-1.316406.117187zm-8.691406-23.121094c2.226562 1.484376 4.429687 3.019532 6.601562 4.601563l8.84375-14.574219-6.847656-4.195312zm0 0"/><path d="m100.355469 143.445312c-.433594 0-.867188-.039062-1.300781-.113281-2.128907-.375-3.992188-1.648437-5.109376-3.496093l-17.09375-28.175782c-2.144531-3.53125-1.027343-8.128906 2.492188-10.289062l19.640625-12.03125c1.703125-1.039063 3.746094-1.363282 5.6875-.890625 1.9375.46875 3.609375 1.691406 4.644531 3.398437l16.304688 26.875c2.136718 3.519532 1.03125 8.105469-2.46875 10.269532-6.25 3.867187-12.339844 8.171874-18.097656 12.796874-1.34375 1.078126-3.003907 1.65625-4.699219 1.65625zm-6.808594-33.183593 8.878906 14.636719c2.164063-1.589844 4.363281-3.132813 6.585938-4.628907l-8.613281-14.203125zm0 0"/><path d="m234.992188 425.050781c-3.71875 0-6.945313-2.765625-7.429688-6.550781-.527344-4.109375 2.378906-7.867188 6.488281-8.390625 64.253907-8.207031 112.707031-63.324219 112.707031-128.210937 0-71.273438-57.984374-129.253907-129.257812-129.253907s-129.257812 57.984375-129.257812 129.253907c0 64.886718 48.453124 120.003906 112.707031 128.210937 4.109375.523437 7.015625 4.28125 6.488281 8.390625-.523438 4.109375-4.277344 7.011719-8.390625 6.488281-71.722656-9.160156-125.808594-70.675781-125.808594-143.089843 0-79.542969 64.714844-144.257813 144.261719-144.257813 79.542969 0 144.257812 64.714844 144.257812 144.257813 0 72.414062-54.085937 133.929687-125.808593 143.089843-.320313.042969-.640625.0625-.957031.0625zm0 0"/><path d="m217.5 476.5625c-107.335938 0-194.660156-87.324219-194.660156-194.660156 0-107.335938 87.324218-194.660156 194.660156-194.660156 48.820312 0 95.511719 18.152343 131.476562 51.117187 35.734376 32.753906 57.871094 77.269531 62.328126 125.347656.382812 4.125-2.648438 7.777344-6.773438 8.160157-4.128906.398437-7.78125-2.648438-8.160156-6.773438-8.613282-92.839844-85.507813-162.851562-178.871094-162.851562-99.066406 0-179.660156 80.59375-179.660156 179.660156s80.59375 179.660156 179.660156 179.660156c93.363281 0 170.257812-70.011719 178.871094-162.851562.378906-4.125 4.046875-7.171876 8.160156-6.777344 4.125.382812 7.15625 4.039062 6.773438 8.160156-4.457032 48.082031-26.59375 92.597656-62.328126 125.351562-35.964843 32.964844-82.65625 51.117188-131.476562 51.117188zm0 0"/></svg>