<svg height="511pt" viewBox="-73 1 511 511.969" width="511pt" xmlns="http://www.w3.org/2000/svg"><path d="m234.382812 101.050781h-102.863281c-7.570312 0-13.726562-6.160156-13.726562-13.730469v-41.363281c0-7.570312 6.15625-13.726562 13.726562-13.726562h102.863281c7.570313 0 13.726563 6.15625 13.726563 13.726562v41.363281c0 7.570313-6.15625 13.730469-13.726563 13.730469zm-101.589843-15h100.316406v-38.820312h-100.316406zm101.589843-38.820312h.007813zm0 0"/><path d="m198.957031 47.230469h-32.015625c-2.5625 0-4.949218-1.308594-6.324218-3.472657-2.960938-4.652343-4.527344-10.042968-4.527344-15.582031 0-15.535156 12.046875-28.175781 26.859375-28.175781s26.863281 12.640625 26.863281 28.175781c0 5.542969-1.566406 10.929688-4.527344 15.582031-1.378906 2.164063-3.765625 3.472657-6.328125 3.472657zm-27.277343-15h22.539062c.390625-1.304688.59375-2.667969.59375-4.054688 0-7.265625-5.320312-13.175781-11.863281-13.175781-6.539063 0-11.859375 5.910156-11.859375 13.175781 0 1.386719.199218 2.75.589844 4.054688zm0 0"/><path d="m287.445312 199.785156h-103.476562c-4.144531 0-7.503906-3.355468-7.503906-7.5 0-4.140625 3.359375-7.5 7.503906-7.5h103.476562c4.144532 0 7.5 3.359375 7.5 7.5 0 4.144532-3.355468 7.5-7.5 7.5zm0 0"/><path d="m287.445312 232.699219h-103.476562c-4.144531 0-7.503906-3.355469-7.503906-7.5 0-4.140625 3.359375-7.5 7.503906-7.5h103.476562c4.144532 0 7.5 3.359375 7.5 7.5 0 4.144531-3.355468 7.5-7.5 7.5zm0 0"/><path d="m287.445312 265.613281h-103.476562c-4.144531 0-7.503906-3.355469-7.503906-7.5 0-4.140625 3.359375-7.5 7.503906-7.5h103.476562c4.144532 0 7.5 3.359375 7.5 7.5 0 4.144531-3.355468 7.5-7.5 7.5zm0 0"/><path d="m287.445312 331.445312h-103.476562c-4.144531 0-7.503906-3.359374-7.503906-7.5 0-4.144531 3.359375-7.503906 7.503906-7.503906h103.476562c4.144532 0 7.5 3.359375 7.5 7.503906 0 4.140626-3.355468 7.5-7.5 7.5zm0 0"/><path d="m287.445312 364.359375h-103.476562c-4.144531 0-7.503906-3.359375-7.503906-7.5 0-4.144531 3.359375-7.5 7.503906-7.5h103.476562c4.144532 0 7.5 3.355469 7.5 7.5 0 4.140625-3.355468 7.5-7.5 7.5zm0 0"/><path d="m287.445312 397.273438h-103.476562c-4.144531 0-7.503906-3.359376-7.503906-7.5 0-4.144532 3.359375-7.5 7.503906-7.5h103.476562c4.144532 0 7.5 3.355468 7.5 7.5 0 4.140624-3.355468 7.5-7.5 7.5zm0 0"/><path d="m107.058594 245.207031c-1.992188 0-3.898438-.789062-5.304688-2.199219l-12.914062-12.910156c-2.925782-2.929687-2.925782-7.679687 0-10.605468 2.929687-2.929688 7.679687-2.929688 10.609375 0l7.609375 7.605468 15.570312-15.570312c2.929688-2.929688 7.679688-2.933594 10.609375 0 2.929688 2.925781 2.929688 7.675781 0 10.605468l-20.878906 20.875c-1.40625 1.410157-3.3125 2.199219-5.300781 2.199219zm0 0"/><path d="m110.261719 274.324219c-27.085938 0-49.125-22.035157-49.125-49.125 0-27.085938 22.039062-49.125 49.125-49.125 27.085937 0 49.125 22.039062 49.125 49.125 0 27.089843-22.039063 49.125-49.125 49.125zm0-83.246094c-18.816407 0-34.125 15.304687-34.125 34.121094 0 18.816406 15.308593 34.125 34.125 34.125 18.816406 0 34.125-15.308594 34.125-34.125 0-18.816407-15.308594-34.121094-34.125-34.121094zm0 0"/><path d="m107.058594 376.863281c-1.921875 0-3.839844-.730469-5.304688-2.195312l-12.914062-12.910157c-2.925782-2.929687-2.925782-7.679687 0-10.609374 2.929687-2.929688 7.679687-2.929688 10.609375 0l7.609375 7.609374 15.574218-15.574218c2.925782-2.929688 7.675782-2.929688 10.605469 0 2.929688 2.929687 2.929688 7.679687 0 10.609375l-20.875 20.875c-1.464843 1.460937-3.386719 2.195312-5.304687 2.195312zm0 0"/><path d="m110.261719 405.984375c-27.085938 0-49.125-22.039063-49.125-49.125 0-27.089844 22.039062-49.125 49.125-49.125 27.085937 0 49.125 22.035156 49.125 49.125 0 27.085937-22.039063 49.125-49.125 49.125zm0-83.25c-18.816407 0-34.125 15.308594-34.125 34.125s15.308593 34.125 34.125 34.125c18.816406 0 34.125-15.308594 34.125-34.125s-15.308594-34.125-34.125-34.125zm0 0"/><path d="m287.445312 199.785156h-103.476562c-4.144531 0-7.503906-3.355468-7.503906-7.5 0-4.140625 3.359375-7.5 7.503906-7.5h103.476562c4.144532 0 7.5 3.359375 7.5 7.5 0 4.144532-3.355468 7.5-7.5 7.5zm0 0"/><path d="m287.445312 232.699219h-103.476562c-4.144531 0-7.503906-3.355469-7.503906-7.5 0-4.140625 3.359375-7.5 7.503906-7.5h103.476562c4.144532 0 7.5 3.359375 7.5 7.5 0 4.144531-3.355468 7.5-7.5 7.5zm0 0"/><path d="m287.445312 265.613281h-103.476562c-4.144531 0-7.503906-3.355469-7.503906-7.5 0-4.140625 3.359375-7.5 7.503906-7.5h103.476562c4.144532 0 7.5 3.359375 7.5 7.5 0 4.144531-3.355468 7.5-7.5 7.5zm0 0"/><path d="m287.445312 331.445312h-103.476562c-4.144531 0-7.503906-3.359374-7.503906-7.5 0-4.144531 3.359375-7.503906 7.503906-7.503906h103.476562c4.144532 0 7.5 3.359375 7.5 7.503906 0 4.140626-3.355468 7.5-7.5 7.5zm0 0"/><path d="m287.445312 364.359375h-103.476562c-4.144531 0-7.503906-3.359375-7.503906-7.5 0-4.144531 3.359375-7.5 7.503906-7.5h103.476562c4.144532 0 7.5 3.355469 7.5 7.5 0 4.140625-3.355468 7.5-7.5 7.5zm0 0"/><path d="m287.445312 397.273438h-103.476562c-4.144531 0-7.503906-3.359376-7.503906-7.5 0-4.144532 3.359375-7.5 7.503906-7.5h103.476562c4.144532 0 7.5 3.355468 7.5 7.5 0 4.140624-3.355468 7.5-7.5 7.5zm0 0"/><path d="m107.058594 245.207031c-1.992188 0-3.898438-.789062-5.304688-2.199219l-12.914062-12.910156c-2.925782-2.929687-2.925782-7.679687 0-10.605468 2.929687-2.929688 7.679687-2.929688 10.609375 0l7.609375 7.605468 15.570312-15.570312c2.929688-2.929688 7.679688-2.933594 10.609375 0 2.929688 2.925781 2.929688 7.675781 0 10.605468l-20.878906 20.875c-1.40625 1.410157-3.3125 2.199219-5.300781 2.199219zm0 0"/><path d="m110.261719 274.324219c-27.085938 0-49.125-22.035157-49.125-49.125 0-27.085938 22.039062-49.125 49.125-49.125 27.085937 0 49.125 22.039062 49.125 49.125 0 27.089843-22.039063 49.125-49.125 49.125zm0-83.246094c-18.816407 0-34.125 15.304687-34.125 34.121094 0 18.816406 15.308593 34.125 34.125 34.125 18.816406 0 34.125-15.308594 34.125-34.125 0-18.816407-15.308594-34.121094-34.125-34.121094zm0 0"/><path d="m107.058594 376.863281c-1.921875 0-3.839844-.730469-5.304688-2.195312l-12.914062-12.910157c-2.925782-2.929687-2.925782-7.679687 0-10.609374 2.929687-2.929688 7.679687-2.929688 10.609375 0l7.609375 7.609374 15.574218-15.574218c2.925782-2.929688 7.675782-2.929688 10.605469 0 2.929688 2.929687 2.929688 7.679687 0 10.609375l-20.875 20.875c-1.464843 1.460937-3.386719 2.195312-5.304687 2.195312zm0 0"/><path d="m110.261719 405.984375c-27.085938 0-49.125-22.039063-49.125-49.125 0-27.089844 22.039062-49.125 49.125-49.125 27.085937 0 49.125 22.035156 49.125 49.125 0 27.085937-22.039063 49.125-49.125 49.125zm0-83.25c-18.816407 0-34.125 15.308594-34.125 34.125s15.308593 34.125 34.125 34.125c18.816406 0 34.125-15.308594 34.125-34.125s-15.308594-34.125-34.125-34.125zm0 0"/><path d="m321.367188 477.796875h-120.917969c-4.140625 0-7.5-3.359375-7.5-7.503906 0-4.140625 3.359375-7.5 7.5-7.5h117.671875v-306.28125h-43.710938c-6.480468 0-11.753906-5.273438-11.753906-11.753907v-43.707031h-214.875v361.742188h117.667969c4.140625 0 7.5 3.355469 7.5 7.5s-3.359375 7.5-7.5 7.5h-120.914063c-6.480468 0-11.753906-5.269531-11.753906-11.753907v-368.234374c0-6.480469 5.273438-11.753907 11.753906-11.753907h225.621094c4.140625 0 7.5 3.355469 7.5 7.5v47.960938h47.964844c4.140625 0 7.5 3.359375 7.5 7.5v317.03125c0 6.480469-5.273438 11.753906-11.753906 11.753906zm0 0"/><path d="m325.621094 156.511719c-1.921875 0-3.839844-.730469-5.304688-2.195313l-55.464844-55.464844c-1.464843-1.460937-2.195312-3.382812-2.195312-5.300781 0-1.921875.730469-3.839843 2.195312-5.304687 2.929688-2.929688 7.679688-2.929688 10.609376 0l55.460937 55.464844c1.464844 1.460937 2.195313 3.382812 2.195313 5.300781 0 1.921875-.730469 3.839843-2.195313 5.304687s-3.382813 2.195313-5.300781 2.195313zm0 0"/><path d="m347.734375 512h-329.570313c-9.746093 0-17.675781-7.929688-17.675781-17.675781v-422.144531c0-9.746094 7.929688-17.675782 17.675781-17.675782h107.128907c4.140625 0 7.5 3.359375 7.5 7.5v24.042969h100.316406v-24.042969c0-4.140625 3.355469-7.5 7.5-7.5h107.125c9.746094 0 17.675781 7.929688 17.675781 17.675782v186.613281c0 4.144531-3.355468 7.503906-7.5 7.503906-4.140625 0-7.5-3.359375-7.5-7.503906v-186.613281c0-1.449219-1.226562-2.675782-2.675781-2.675782h-99.625v17.816406c0 7.570313-6.15625 13.730469-13.730469 13.730469h-102.859375c-7.570312 0-13.726562-6.160156-13.726562-13.730469v-17.816406h-99.628907c-1.449218 0-2.675781 1.226563-2.675781 2.675782v422.144531c0 1.449219 1.226563 2.675781 2.675781 2.675781h329.570313c1.453125 0 2.679687-1.226562 2.679687-2.675781v-200.527344c0-4.144531 3.355469-7.5 7.5-7.5 4.140626 0 7.5 3.355469 7.5 7.5v200.527344c-.003906 9.746093-7.933593 17.675781-17.679687 17.675781zm0 0"/></svg>