<svg height="480pt" viewBox="0 0 480 480.00001" width="480pt" xmlns="http://www.w3.org/2000/svg"><path d="m472 0h-186.71875c-10.605469.0234375-20.773438 4.230469-28.296875 11.703125l-39.28125 39.28125c-8.496094 8.519531-11.027344 21.320313-6.410156 32.433594 4.617187 11.113281 15.472656 18.351562 27.507812 18.34375.414063 0 .800781-.113281 1.222657-.128907 0 .382813-.046876.757813-.046876 1.144532l-7.5625 22.695312c-.714843 2.160156-.472656 4.523438.65625 6.496094l-13.070312 19.566406c-2.621094 3.941406-4.011719 8.570313-4 13.304688v3.160156c0 13.253906 10.746094 24 24 24s24-10.746094 24-24v-3.160156c.011719-4.734375-1.378906-9.367188-4-13.3125l-6.097656-9.128906 18.59375-6.238282c.328125 7.777344 3.554687 15.148438 9.046875 20.664063 5.933593 5.953125 14.105469 9.121093 22.496093 8.71875-.375 8.382812 2.78125 16.539062 8.703126 22.480469 5.816406 5.851562 13.730468 9.125 21.976562 9.097656 9.0625-.003906 17.675781-3.945313 23.601562-10.800782l25.824219-30.175781c15.882813 15.902344 37.457031 24.808594 59.933594 24.734375 7.917969 0 15.796875-1.097656 23.410156-3.261718l6.710938-1.929688c3.433593-.980469 5.800781-4.117188 5.800781-7.6875v-160c0-4.417969-3.582031-8-8-8zm-8 105.511719c-29.414062 6.195312-59.84375-4.332031-79.144531-27.375l-2.710938-3.265625c-1.519531-1.820313-3.773437-2.871094-6.144531-2.871094h-84c-6.628906 0-12-5.371094-12-12s5.371094-12 12-12h108v-16h-25.207031c.773437-2.351562 1.179687-4.804688 1.207031-7.28125 0-2.976562-.542969-5.933594-1.601562-8.71875h89.601562zm-106.585938-86.945313c1.675782 1.617188 2.621094 3.84375 2.621094 6.167969 0 2.328125-.945312 4.554687-2.621094 6.167969l-1.125 1.097656h-24.738281l13.386719-13.464844c3.515625-3.285156 8.980469-3.273437 12.476562.03125zm-128.398437 63.136719c-5.34375-5.363281-5.34375-14.042969 0-19.40625l39.28125-39.28125c4.515625-4.480469 10.621094-7 16.984375-7.015625h39.613281l-15.902343 16h-16.992188c-15.464844 0-28 12.535156-28 28 .042969 1.097656.152344 2.1875.328125 3.273438l-15.121094 17.679687c-2.554687 2.816406-6.136719 4.484375-9.9375 4.625s-7.496093-1.253906-10.253906-3.875zm18.984375 86.296875c0 4.417969-3.582031 8-8 8s-8-3.582031-8-8v-3.160156c0-1.578125.46875-3.121094 1.34375-4.433594l6.65625-10.007812 6.65625 9.976562c.871094 1.316406 1.339844 2.863281 1.34375 4.441406zm2.105469-41.167969-.953125-.96875 5.878906-17.65625 23.746094-23.679687c4.046875 2.246094 8.59375 3.441406 13.222656 3.472656h8.640625l-31.039063 30.910156-2.128906 2.089844zm212.992187 35.390625c-6.1875 1.765625-12.585937 2.65625-19.019531 2.65625-20.953125.070313-40.789063-9.460937-53.820313-25.871094-1.488281-1.863281-3.730468-2.964843-6.113281-3.007812-2.382812-.015625-4.65625 1.003906-6.222656 2.800781l-31.730469 37.078125c-2.75 3.167969-6.6875 5.054688-10.878906 5.21875-4.195312.164063-8.265625-1.410156-11.257812-4.355468-5.238282-5.160157-5.523438-13.519532-.65625-19.03125l2.113281-2.503907 32.566406-38-12.15625-10.398437-32.5625 37.992187c-5.453125 5.867188-14.636719 6.203125-20.503906.742188-5.609375-5.628907-5.957031-14.625-.800781-20.671875l2.320312-2.71875 29.304688-34.152344h48.578124l.308594.375c18.527344 22.222656 45.964844 35.066406 74.898438 35.066406 5.542968-.023437 11.074218-.515625 16.535156-1.480468v40zm0 0"/><path d="m8 480h120c1.015625 0 2.023438-.195312 2.96875-.574219 25.828125-10.304687 46.703125-30.148437 58.296875-55.425781h10.734375v16c0 22.089844 17.910156 40 40 40s40-17.910156 40-40v-16h12c7.425781-.007812 14.546875-2.949219 19.816406-8.183594 5.304688-5.304687 8.253906-12.519531 8.183594-20.023437-.070312-7.5-3.152344-14.660157-8.550781-19.863281 5.496093-5.164063 8.597656-12.386719 8.550781-19.929688.003906-7.53125-3.042969-14.746094-8.441406-20 .082031-.078125.175781-.128906.257812-.207031 5.277344-5.292969 8.21875-12.476563 8.171875-19.949219-.050781-7.476562-3.082031-14.621094-8.429687-19.84375.082031-.078125.175781-.128906.257812-.207031 8.003906-8.011719 10.394532-20.054688 6.058594-30.515625-4.335938-10.464844-14.550781-17.28125-25.875-17.277344h-12v-32c0-4.417969-3.582031-8-8-8h-64c-4.417969 0-8 3.582031-8 8v32h-66.238281c-15.886719.019531-31.320313 5.273438-43.921875 14.945312l-86.710938 66.71875c-1.96875 1.511719-3.12499975 3.851563-3.128906 6.335938v136c0 4.417969 3.582031 8 8 8zm256-40c0 13.253906-10.746094 24-24 24s-24-10.746094-24-24v-96h48zm36.496094-35.496094c-2.257813 2.242188-5.3125 3.496094-8.496094 3.496094h-12v-24h12c4.863281-.011719 9.253906 2.914062 11.117188 7.40625 1.859374 4.492188.824218 9.667969-2.621094 13.097656zm3.503906-48.503906c.03125 3.121094-1.234375 6.117188-3.496094 8.273438-2.914062 2.507812-6.660156 3.839843-10.503906 3.726562h-10v-24h12c6.628906 0 12 5.371094 12 12zm0-40c.011719 3.1875-1.246094 6.246094-3.5 8.5s-5.3125 3.511719-8.5 3.5h-12v-24h12c6.628906 0 12 5.371094 12 12zm-12-52c6.628906 0 12 5.371094 12 12s-5.371094 12-12 12h-12v-24zm-28-40v104h-43.199219c9.464844-5.933594 14.789063-16.683594 13.777344-27.808594-1.015625-11.128906-8.195313-20.738281-18.578125-24.863281v-51.328125zm-248 115.9375 83.601562-64.320312c9.800782-7.519532 21.804688-11.601563 34.160157-11.617188h66.238281v9.601562c-3.265625.492188-6.429688 1.519532-9.359375 3.046876l-79.128906 42.976562 7.648437 14.054688 79.121094-42.96875c6.625-3.777344 15.0625-1.464844 18.839844 5.160156 3.777344 6.628906 1.464844 15.0625-5.160156 18.839844l-64.082032 38.449218c-2.101562 1.265625-3.511718 3.425782-3.816406 5.863282l-.796875 6.207031c-3.953125 31.878906-26.589844 58.300781-57.480469 67.097656l4.382813 15.375c37.089843-10.535156 64.277343-42.242187 69.03125-80.503906l.289062-2.335938 34.726563-20.863281h5.785156v24h-16v16h16v24h-16c-3.273438 0-6.21875 1.992188-7.433594 5.03125-9.191406 23.042969-27.273437 41.414062-50.167968 50.96875h-110.398438zm0 0"/><path d="m224 360h16v16h-16zm0 0"/><path d="m232 408h16v16h-16zm0 0"/><path d="m160 80v16h-16v16h16v16h16v-16h16v-16h-16v-16zm0 0"/><path d="m112 192c0 13.253906 10.746094 24 24 24s24-10.746094 24-24-10.746094-24-24-24-24 10.746094-24 24zm32 0c0 4.417969-3.582031 8-8 8s-8-3.582031-8-8 3.582031-8 8-8 8 3.582031 8 8zm0 0"/></svg>