<?xml version="1.0" encoding="UTF-8"?>
<svg xmlns="http://www.w3.org/2000/svg" id="Layer_1" data-name="Layer 1" viewBox="0 0 64 64" width="512" height="512"><path d="M36.657,53.134a1.028,1.028,0,0,0,.173.015,1,1,0,0,0,.984-.828l.172-.987,0-.015,9.85,1.711,0,.016-.171.986a1,1,0,0,0,.814,1.156,1.017,1.017,0,0,0,.172.015,1,1,0,0,0,.985-.829l.171-.986a12.986,12.986,0,0,0-2.191-9.761L46.188,41.6l2.032-1.43a13.072,13.072,0,0,0,3.164-18.213l-1.431-2.033,2.031-1.43a12.984,12.984,0,0,0,5.355-8.452l.171-.985a1,1,0,0,0-1.971-.342l-.171.985L45.516,7.984,45.688,7a1,1,0,1,0-1.971-.344l-.172.986a12.986,12.986,0,0,0,2.19,9.761l1.431,2.032-2.031,1.431a13.069,13.069,0,0,0-3.164,18.213l1.43,2.032-2.033,1.431a12.971,12.971,0,0,0-5.12,7.413c0,.015-.014.027-.017.043a.272.272,0,0,1,0,.028c-.08.319-.159.638-.216.966l-.172.985A1,1,0,0,0,36.657,53.134Zm1.86-3.754a10.961,10.961,0,0,1,1.5-2.767l7.493,1.3A10.946,10.946,0,0,1,48,51.027Zm3.111-18.727,9.756,1.7a10.95,10.95,0,0,1-1.816,3.744l-7.493-1.3A10.957,10.957,0,0,1,41.628,30.653Zm2.158-5.715,7.494,1.3a10.978,10.978,0,0,1,.447,4.137l-9.757-1.7A10.977,10.977,0,0,1,43.786,24.938ZM45.357,9.986l9.485,1.648a10.894,10.894,0,0,1-1.509,2.782l-7.494-1.3A10.951,10.951,0,0,1,45.357,9.986Zm2.013,6.266a11.164,11.164,0,0,1-.6-.945l4.939.858q-.42.363-.88.688L48.8,18.284Zm.948,4.819L49.749,23.1q.324.46.6.944l-4.939-.858q.42-.363.88-.688ZM43.605,37.927q-.322-.461-.6-.944l4.94.858q-.42.363-.88.688L45.036,39.96Zm.948,4.819,1.43,2.032c.216.307.415.623.6.945l-4.94-.858q.42-.363.88-.688Z"/><path d="M2.938,35.222a3.091,3.091,0,0,0,2.539.232A3.06,3.06,0,0,0,7.3,33.707l.817-2.045A73.844,73.844,0,0,0,8.3,41.13L9.63,57.146A4.009,4.009,0,0,0,6.7,61a1,1,0,0,0,1,1h6a1,1,0,0,0,.995-.9L15.7,51.05l1,10.05a1,1,0,0,0,1,.9h6a1,1,0,0,0,1-1,4.009,4.009,0,0,0-2.926-3.854l1.089-13.063a1,1,0,1,0-1.992-.166l-1.167,14A1,1,0,0,0,20.7,59a2,2,0,0,1,1.732,1H18.609L16.7,40.9a1,1,0,0,0-1.99,0L12.8,60H8.973A2,2,0,0,1,10.7,59a1,1,0,0,0,1-1.083L10.287,40.964a71.951,71.951,0,0,1,.192-13.882L10.7,25.11a1,1,0,0,0-1.923-.482L5.441,32.964a1.05,1.05,0,0,1-.629.6,1.068,1.068,0,0,1-.893-.088,1.108,1.108,0,0,1-.411-1.36L8.4,19.551A3.975,3.975,0,0,1,12.124,17a2.582,2.582,0,0,0,2.58-2.58V14a1,1,0,0,0-.6-.916c-1.27-.556-2.4-3.306-2.4-5.084a4,4,0,0,1,7.939-.717c.363,2.118-.862,5.154-2.34,5.8a1,1,0,0,0-.6.916v.42A2.582,2.582,0,0,0,19.284,17a4.027,4.027,0,0,1,3.728,2.55l4.916,12.64a1.057,1.057,0,0,1-.9,1.435,1.127,1.127,0,0,1-1.091-.745l-3.3-8.252a1,1,0,0,0-1.923.482l.219,1.972c.218,1.971.357,3.971.412,5.946a1,1,0,0,0,1,.972h.028a1,1,0,0,0,.973-1.028q-.02-.653-.049-1.308l.784,1.959a3.132,3.132,0,0,0,3.136,1.993,3.054,3.054,0,0,0,2.579-4.15L24.875,18.825A5.96,5.96,0,0,0,19.284,15a.581.581,0,0,1-.559-.426c2.162-1.453,3.324-5.094,2.888-7.629A6,6,0,0,0,9.7,8c0,1.98,1.055,5.225,2.982,6.567a.583.583,0,0,1-.562.433,5.964,5.964,0,0,0-5.592,3.826L1.644,31.4A3.1,3.1,0,0,0,2.938,35.222Z"/><path d="M22.057,34.91l-5.61-2.8a1,1,0,0,0-1.228,1.52l5.5,6.875a16.526,16.526,0,0,0,10.99,6.113.906.906,0,0,1,.62.367,1.035,1.035,0,0,1,.187.788l-.442,2.54a5,5,0,0,0,4.072,5.782l11.822,2.054a5.083,5.083,0,0,0,.866.075,5,5,0,0,0,4.916-4.146l7.53-43.351A5.006,5.006,0,0,0,57.209,4.94L45.386,2.887A5,5,0,0,0,39.6,6.958L34.538,36.125a1.022,1.022,0,0,1-.893.832A20.72,20.72,0,0,1,22.057,34.91Zm14.452,1.557L41.575,7.3a3,3,0,0,1,3.469-2.442L56.867,6.911a3,3,0,0,1,2.443,3.468L51.779,53.731a3,3,0,0,1-3.469,2.442L36.487,54.119a3,3,0,0,1-2.442-3.469l.441-2.54a3.035,3.035,0,0,0-.552-2.323,2.89,2.89,0,0,0-1.985-1.159,14.542,14.542,0,0,1-9.668-5.378l-2.656-3.319,1.537.768a22.7,22.7,0,0,0,12.7,2.245A3.033,3.033,0,0,0,36.509,36.467Z"/><path d="M35.593,17.6a1.026,1.026,0,0,0,.182.016,1,1,0,0,0,.983-.818l.878-4.744a1,1,0,0,0-1.967-.364l-.878,4.744A1,1,0,0,0,35.593,17.6Z"/><path d="M34.057,18.987l-.372,1.581a1,1,0,0,0,1.947.458L36,19.445a1,1,0,0,0-1.947-.458Z"/></svg>
