<svg height="511pt" viewBox="-84 1 511 511.969" width="511pt" xmlns="http://www.w3.org/2000/svg"><path d="m69.175781 104.886719c-12.429687 0-22.539062-10.109375-22.539062-22.539063v-59.808594c0-12.429687 10.109375-22.539062 22.539062-22.539062 12.429688 0 22.539063 10.109375 22.539063 22.539062v59.808594c0 12.429688-10.109375 22.539063-22.539063 22.539063zm0-89.886719c-4.15625 0-7.539062 3.382812-7.539062 7.539062v59.808594c0 4.15625 3.382812 7.539063 7.539062 7.539063s7.539063-3.382813 7.539063-7.539063v-59.808594c0-4.15625-3.382813-7.539062-7.539063-7.539062zm0 0"/><path d="m137.492188 104.886719c-12.425782 0-22.539063-10.109375-22.539063-22.539063v-59.808594c0-12.429687 10.109375-22.539062 22.539063-22.539062 12.429687 0 22.542968 10.109375 22.542968 22.539062v59.808594c0 12.429688-10.113281 22.539063-22.542968 22.539063zm0-89.886719c-4.15625 0-7.539063 3.382812-7.539063 7.539062v59.808594c0 4.15625 3.382813 7.539063 7.539063 7.539063 4.160156 0 7.542968-3.382813 7.542968-7.539063v-59.808594c0-4.15625-3.382812-7.539062-7.542968-7.539062zm0 0"/><path d="m205.8125 104.886719c-12.429688 0-22.539062-10.109375-22.539062-22.539063v-59.808594c0-12.429687 10.109374-22.539062 22.539062-22.539062 12.425781 0 22.539062 10.109375 22.539062 22.539062v59.808594c0 12.429688-10.109374 22.539063-22.539062 22.539063zm0-89.886719c-4.15625 0-7.539062 3.382812-7.539062 7.539062v59.808594c0 4.15625 3.382812 7.539063 7.539062 7.539063s7.539062-3.382813 7.539062-7.539063v-59.808594c0-4.15625-3.382812-7.539062-7.539062-7.539062zm0 0"/><path d="m274.132812 104.886719c-12.429687 0-22.542968-10.109375-22.542968-22.539063v-59.808594c0-12.429687 10.113281-22.539062 22.542968-22.539062 12.425782 0 22.535157 10.109375 22.539063 22.539062v59.808594c0 12.429688-10.113281 22.539063-22.539063 22.539063zm0-89.886719c-4.160156 0-7.542968 3.382812-7.542968 7.539062v59.808594c0 4.15625 3.382812 7.539063 7.542968 7.539063 4.15625 0 7.539063-3.382813 7.539063-7.539063v-59.808594c0-4.15625-3.382813-7.539062-7.539063-7.539062zm0 0"/><path d="m285.46875 223.25h-106.65625c-4.144531 0-7.5-3.355469-7.5-7.5 0-4.140625 3.355469-7.5 7.5-7.5h106.65625c4.144531 0 7.5 3.359375 7.5 7.5 0 4.144531-3.355469 7.5-7.5 7.5zm0 0"/><path d="m224.980469 158.707031h-106.65625c-4.140625 0-7.5-3.359375-7.5-7.5 0-4.144531 3.359375-7.503906 7.5-7.503906h106.65625c4.144531 0 7.5 3.359375 7.5 7.503906 0 4.140625-3.355469 7.5-7.5 7.5zm0 0"/><path d="m285.46875 257.175781h-106.65625c-4.144531 0-7.5-3.355469-7.5-7.5 0-4.140625 3.355469-7.5 7.5-7.5h106.65625c4.144531 0 7.5 3.359375 7.5 7.5 0 4.144531-3.355469 7.5-7.5 7.5zm0 0"/><path d="m285.46875 291.105469h-106.65625c-4.144531 0-7.5-3.359375-7.5-7.503907 0-4.140624 3.355469-7.5 7.5-7.5h106.65625c4.144531 0 7.5 3.359376 7.5 7.5 0 4.144532-3.355469 7.503907-7.5 7.503907zm0 0"/><path d="m285.46875 358.957031h-106.65625c-4.144531 0-7.5-3.359375-7.5-7.5 0-4.144531 3.355469-7.503906 7.5-7.503906h106.65625c4.144531 0 7.5 3.359375 7.5 7.503906 0 4.140625-3.355469 7.5-7.5 7.5zm0 0"/><path d="m285.46875 392.882812h-106.65625c-4.144531 0-7.5-3.359374-7.5-7.5 0-4.144531 3.355469-7.5 7.5-7.5h106.65625c4.144531 0 7.5 3.355469 7.5 7.5 0 4.140626-3.355469 7.5-7.5 7.5zm0 0"/><path d="m285.46875 426.808594h-106.65625c-4.144531 0-7.5-3.359375-7.5-7.5 0-4.144532 3.355469-7.5 7.5-7.5h106.65625c4.144531 0 7.5 3.355468 7.5 7.5 0 4.140625-3.355469 7.5-7.5 7.5zm0 0"/><path d="m99.535156 270.066406c-1.988281 0-3.894531-.789062-5.300781-2.195312l-13.308594-13.308594c-2.929687-2.929688-2.929687-7.679688 0-10.609375 2.929688-2.925781 7.675781-2.925781 10.605469 0l8.003906 8.007813 16.214844-16.214844c2.929688-2.929688 7.679688-2.929688 10.609375 0 2.929687 2.929687 2.929687 7.679687 0 10.605468l-21.519531 21.519532c-1.40625 1.40625-3.3125 2.195312-5.304688 2.195312zm0 0"/><path d="m102.839844 300.082031c-27.792969 0-50.40625-22.609375-50.40625-50.40625 0-27.792969 22.613281-50.402343 50.40625-50.402343 27.792968 0 50.402344 22.609374 50.402344 50.402343 0 27.796875-22.609376 50.40625-50.402344 50.40625zm0-85.808593c-19.523438 0-35.40625 15.882812-35.40625 35.402343 0 19.523438 15.882812 35.40625 35.40625 35.40625 19.519531 0 35.402344-15.882812 35.402344-35.40625 0-19.519531-15.882813-35.402343-35.402344-35.402343zm0 0"/><path d="m99.535156 405.773438c-1.988281 0-3.894531-.792969-5.304687-2.199219l-13.308594-13.3125c-2.925781-2.925781-2.925781-7.675781 0-10.605469 2.929687-2.925781 7.679687-2.929688 10.609375 0l8.003906 8.007812 16.214844-16.214843c2.929688-2.929688 7.675781-2.929688 10.605469 0 2.929687 2.925781 2.929687 7.675781 0 10.605469l-21.515625 21.519531c-1.40625 1.40625-3.3125 2.199219-5.304688 2.199219zm0 0"/><path d="m102.839844 435.785156c-27.792969 0-50.40625-22.609375-50.40625-50.402344 0-27.792968 22.613281-50.40625 50.40625-50.40625 27.792968 0 50.402344 22.613282 50.402344 50.40625.003906 27.792969-22.609376 50.402344-50.402344 50.402344zm0-85.808594c-19.523438 0-35.40625 15.882813-35.40625 35.40625 0 19.519532 15.882812 35.402344 35.40625 35.402344 19.519531 0 35.402344-15.882812 35.402344-35.402344 0-19.523437-15.882813-35.40625-35.402344-35.40625zm0 0"/><path d="m313.222656 512h-124.070312c-4.140625 0-7.5-3.355469-7.5-7.5s3.359375-7.5 7.5-7.5h124.070312c8.046875 0 14.589844-6.542969 14.589844-14.585938v-192.339843c0-4.144531 3.355469-7.5 7.5-7.5s7.5 3.355469 7.5 7.5v192.339843c0 16.3125-13.273438 29.585938-29.589844 29.585938zm0 0"/><path d="m154.148438 512h-124.070313c-16.316406 0-29.589844-13.273438-29.589844-29.589844v-411.902344c0-16.3125 13.273438-29.585937 29.589844-29.585937h24.054687c4.140626 0 7.5 3.355469 7.5 7.5v33.925781c0 4.15625 3.382813 7.539063 7.539063 7.539063s7.539063-3.382813 7.539063-7.539063v-33.925781c0-4.144531 3.359374-7.5 7.5-7.5h38.242187c4.140625 0 7.5 3.355469 7.5 7.5v33.925781c0 4.15625 3.382813 7.539063 7.539063 7.539063s7.539062-3.382813 7.539062-7.539063v-33.925781c0-4.144531 3.359375-7.5 7.5-7.5h38.238281c4.144531 0 7.5 3.355469 7.5 7.5v33.925781c0 4.15625 3.382813 7.539063 7.539063 7.539063 4.160156 0 7.539062-3.382813 7.539062-7.539063v-33.925781c0-4.144531 3.359375-7.5 7.503906-7.5h38.238282c4.140625 0 7.5 3.355469 7.5 7.5v33.925781c0 4.15625 3.382812 7.539063 7.539062 7.539063s7.539063-3.382813 7.539063-7.539063v-33.925781c0-4.144531 3.355469-7.5 7.5-7.5h24.054687c16.316406 0 29.589844 13.269531 29.589844 29.585937v184.566407c0 4.140625-3.359375 7.5-7.5 7.5-4.144531 0-7.503906-3.359375-7.503906-7.5v-184.566407c0-8.042968-6.542969-14.585937-14.585938-14.585937h-16.554687v26.425781c0 12.429688-10.109375 22.539063-22.539063 22.539063-12.429687 0-22.542968-10.109375-22.542968-22.539063v-26.425781h-23.234376v26.425781c0 12.429688-10.113281 22.539063-22.542968 22.539063-12.425782 0-22.539063-10.109375-22.539063-22.539063v-26.425781h-23.238281v26.425781c0 12.429688-10.109375 22.539063-22.539062 22.539063-12.429688 0-22.539063-10.109375-22.539063-22.539063v-26.425781h-23.238281v26.425781c0 12.429688-10.113282 22.539063-22.542969 22.539063s-22.539063-10.109375-22.539063-22.539063v-26.425781h-16.554687c-8.042969 0-14.585937 6.542969-14.585937 14.585937v411.902344c0 8.042969 6.542968 14.589844 14.585937 14.589844h124.070313c4.144531 0 7.5 3.355469 7.5 7.5 0 4.140625-3.355469 7.5-7.5 7.5zm0 0"/></svg>